<?xml version="1.0" standalone="no"?>
<!DOCTYPE svg PUBLIC "-//W3C//DTD SVG 1.1//EN" "http://www.w3.org/Graphics/SVG/1.1/DTD/svg11.dtd" >
<svg xmlns="http://www.w3.org/2000/svg" xmlns:xlink="http://www.w3.org/1999/xlink" version="1.1">
<metadata>
Created by FontForge 20170731 at Tue Jun 28 22:40:48 2016
 By Aleksey,,,
</metadata>
<defs>
<font id="DomaineText-Regular" horiz-adv-x="640" >
  <font-face 
    font-family="Copyright Klim Type Foundry"
    font-weight="380"
    font-stretch="normal"
    units-per-em="1000"
    panose-1="0 0 0 0 0 0 0 0 0 0"
    ascent="800"
    descent="-200"
    x-height="486"
    cap-height="700"
    bbox="-151 -254 1315 1099"
    underline-thickness="0"
    underline-position="0"
    unicode-range="U+000D-FB04"
  />
<missing-glyph horiz-adv-x="500" 
 />
    <glyph glyph-name="ff" unicode="ff" horiz-adv-x="691" 
d="M189 486h246v74v12t0.5 11.5t1.5 11t2 10.5q-7 19 -19 36.5t-27.5 31t-36 21.5t-43.5 8q-30 0 -53 -11.5t-39 -33t-24 -51.5t-8 -67v-53zM281 8v-8h-236v7q20 12 29.5 19.5t15.5 17.5t9 25t3 40v336h-70v27l70 20v33q0 45 14.5 84t41.5 68.5t66.5 45.5t88.5 16
q24 0 46.5 -4t42.5 -12t36.5 -18.5t30.5 -24.5q12 18 28.5 31.5t36.5 22.5t43 14t49 5q30 0 56 -7t45.5 -19.5t30 -30t10.5 -37.5q0 -14 -5 -24.5t-13.5 -18t-20 -11t-25.5 -3.5q-4 0 -7.5 0.5t-6.5 1l-6 1t-7 1.5q3 5 5 10.5t3.5 12t2 13t0.5 12.5q0 13 -4.5 24.5
t-13.5 20.5t-22 14t-30 5q-22 0 -40 -9t-30.5 -26t-19 -42t-6.5 -57v-98h144l-5 -41h-139v-343q0 -22 5 -36t16.5 -23.5t29 -16.5t49.5 -17v-9h-244v7q20 12 29.5 19.5t15.5 17.5t9 25t3 40v336h-246v-344q0 -22 4.5 -36t14.5 -23.5t26.5 -16.5t46.5 -17z" />
    <glyph glyph-name="fi" unicode="fi" horiz-adv-x="614" 
d="M189 445v-344q0 -22 4.5 -36t14.5 -23.5t26.5 -16.5t46.5 -17v-8h-236v7q20 12 29.5 19.5t15.5 17.5t9 25t3 40v336h-70v27l70 20v40q0 51 15.5 92t44.5 70t70 44t92 15q37 0 67.5 -8.5t51.5 -23t32.5 -33t11.5 -39.5q0 -14 -5.5 -25.5t-15.5 -20t-23.5 -12.5t-28.5 -4
q-6 0 -11 0.5t-9.5 1t-8.5 1.5t-7 2q4 5 7.5 10.5t5.5 12t3 14t1 15.5q0 15 -4.5 28.5t-14.5 23.5t-26.5 16t-38.5 6q-31 0 -54 -12t-38 -34.5t-22.5 -54t-7.5 -71.5v-60h333v-377q0 -25 3 -40t9 -25t15.5 -17.5t29.5 -19.5v-7h-201v7q20 12 29.5 19.5t15.5 17.5t9 25t3 40
v336h-246z" />
    <glyph glyph-name="fl" unicode="fl" horiz-adv-x="614" 
d="M522 749v-640q0 -25 3 -40t9 -25t15.5 -17.5t29.5 -19.5v-7h-201v7q20 12 29.5 19.5t15.5 17.5t9 25t3 40v481q0 24 -9.5 46.5t-27.5 40.5t-42.5 28t-52.5 10t-49.5 -10t-36 -29.5t-21.5 -47t-7 -62.5v-80h139l-5 -41h-134v-344q0 -22 4.5 -36t14.5 -23.5t26.5 -16.5
t46.5 -17v-8h-236v7q20 12 29.5 19.5t15.5 17.5t9 25t3 40v336h-70v27l70 20v64q0 47 14.5 84t40 62t60 38t74.5 13q23 0 45.5 -4.5t41.5 -12.5t35 -19t27 -24z" />
    <glyph glyph-name="ffi" unicode="ffi" horiz-adv-x="947" 
d="M189 486h246v46q0 9 0.5 17l1 16t2 16t3.5 15q-7 20 -18 39t-27.5 34t-37.5 24t-46 9q-30 0 -53 -11.5t-39 -33t-24 -51.5t-8 -67v-53zM281 8v-8h-236v7q20 12 29.5 19.5t15.5 17.5t9 25t3 40v336h-70v27l70 20v33q0 45 14.5 84t41.5 68.5t66.5 45.5t88.5 16
q26 0 49.5 -5t44.5 -13.5t38 -21t31 -27.5q14 20 33 35t41.5 25t49.5 15.5t57 5.5q37 0 67.5 -8.5t51.5 -23t32.5 -33t11.5 -39.5q0 -14 -5.5 -25.5t-15.5 -20t-23.5 -12.5t-28.5 -4q-6 0 -11 0.5t-9.5 1t-8.5 1.5t-7 2q4 5 7 10.5t5.5 12.5t3.5 14t1 15q0 15 -4.5 28.5
t-14.5 23.5t-26.5 16t-38.5 6q-31 0 -54 -12t-38 -34.5t-22.5 -54t-7.5 -71.5v-60h333v-377q0 -25 3 -40t9 -25t15.5 -17.5t29.5 -19.5v-7h-201v7q19 12 28.5 19.5t16 17.5t9 25t2.5 40v336h-245v-344q0 -22 4.5 -36t14.5 -23.5t26.5 -16.5t45.5 -17v-8h-235v7
q20 12 29.5 19.5t15.5 17.5t9 25t3 40v336h-246v-344q0 -22 4.5 -36t14.5 -23.5t26.5 -16.5t46.5 -17z" />
    <glyph glyph-name="ffl" unicode="ffl" horiz-adv-x="947" 
d="M189 486h246v70v13t0.5 12t1.5 11.5t2 11.5q-7 19 -18.5 36.5t-27.5 31.5t-36 22t-44 8q-30 0 -53 -11.5t-39 -33t-24 -51.5t-8 -67v-53zM281 8v-8h-236v7q20 12 29.5 19.5t15.5 17.5t9 25t3 40v336h-70v27l70 20v33q0 45 14.5 84t41.5 68.5t66.5 45.5t88.5 16
q24 0 46.5 -4t42.5 -12t37 -19t31 -25q12 18 28.5 32t36.5 23.5t42.5 14t46.5 4.5q23 0 45.5 -4.5t41.5 -12.5t35 -19t27 -24l82 56v-640q0 -25 3 -40t9 -25t15.5 -17.5t29.5 -19.5v-7h-201v7q19 12 28.5 19.5t16 17.5t9 25t2.5 40v481q0 24 -9.5 46.5t-27.5 40.5t-42 28
t-52 10t-49.5 -10t-36 -29.5t-21.5 -47t-7 -62.5v-80h138l-5 -41h-133v-344q0 -22 4.5 -36t14.5 -23.5t26.5 -16.5t45.5 -17v-8h-235v7q20 12 29.5 19.5t15.5 17.5t9 25t3 40v336h-246v-344q0 -22 4.5 -36t14.5 -23.5t26.5 -16.5t46.5 -17z" />
    <glyph glyph-name="f_b" unicode="fb" horiz-adv-x="959" 
d="M522 261v-66q0 -38 13 -67.5t34.5 -49t47.5 -29t52 -9.5q34 0 62.5 14t49 41.5t31.5 66.5t11 89q0 43 -10.5 78t-30 60.5t-48 39t-63.5 13.5q-33 0 -60.5 -14.5t-47.5 -40t-30.5 -58t-10.5 -68.5zM435 590q0 24 -9.5 46.5t-27.5 40.5t-42.5 28t-52.5 10t-49.5 -10
t-36 -29.5t-21.5 -47t-7 -62.5v-80h139l-5 -41h-134v-344q0 -22 4.5 -36t14.5 -23.5t26.5 -16.5t46.5 -17v-8h-236v7q20 12 29.5 19.5t15.5 17.5t9 25t3 40v336h-70v27l70 20v64q0 47 14.5 84t40 62t60 38t74.5 13q23 0 45.5 -4.5t41.5 -12.5t35 -19t27 -24l82 56v-383
q9 27 25 51t39.5 41.5t53 27.5t63.5 10q46 0 85 -16.5t68.5 -48t45.5 -77.5t16 -103q0 -59 -18 -107.5t-50 -83t-73.5 -52.5t-88.5 -18q-33 0 -61.5 8t-51.5 22t-39.5 32t-25.5 38q-4 -16 -12 -31t-18 -28t-21.5 -23t-24.5 -18h-12q5 21 7.5 46t3.5 52t1.5 54t0.5 70v378z
" />
    <glyph glyph-name="f_f_b" unicode="ffb" horiz-adv-x="1292" 
d="M189 486h246v70v13t0.5 12t1.5 11.5t2 11.5q-7 19 -18.5 36.5t-27.5 31.5t-36 22t-44 8q-30 0 -53 -11.5t-39 -33t-24 -51.5t-8 -67v-53zM855 261v-66q0 -38 13 -67.5t34.5 -49t47.5 -29t52 -9.5q34 0 62.5 14t49 41.5t31.5 66.5t11 89q0 43 -10.5 78t-30 60.5t-48 39
t-63.5 13.5q-33 0 -60.5 -14.5t-47.5 -40t-30.5 -58t-10.5 -68.5zM842 90q-4 -16 -11.5 -31t-17.5 -28t-22 -23t-25 -18h-12q5 21 7.5 46t3.5 52t1.5 54t0.5 70v378q0 24 -9.5 46.5t-27.5 40.5t-42 28t-52 10t-49.5 -10t-36 -29.5t-21.5 -47t-7 -62.5v-80h138l-5 -41h-133
v-344q0 -22 4.5 -36t14.5 -23.5t26.5 -16.5t45.5 -17v-8h-235v7q20 12 29.5 19.5t15.5 17.5t9 25t3 40v336h-246v-344q0 -22 4.5 -36t14.5 -23.5t26.5 -16.5t46.5 -17v-8h-236v7q20 12 29.5 19.5t15.5 17.5t9 25t3 40v336h-70v27l70 20v33q0 45 14.5 84t41.5 68.5t66.5 45.5
t88.5 16q24 0 46.5 -4t42.5 -12t37 -19t31 -25q12 18 28.5 32t36.5 23.5t42.5 14t46.5 4.5q23 0 45.5 -4.5t41.5 -12.5t35 -19t27 -24l82 56v-383q9 27 25 51t39 41.5t52.5 27.5t63.5 10q46 0 85.5 -16.5t69 -48t45.5 -77.5t16 -103q0 -59 -18 -107.5t-50 -83t-73.5 -52.5
t-88.5 -18q-33 0 -61.5 8t-51.5 22t-39.5 32t-26.5 38z" />
    <glyph glyph-name="f_h" unicode="fh" horiz-adv-x="946" 
d="M435 590q0 24 -9.5 46.5t-27.5 40.5t-42.5 28t-52.5 10t-49.5 -10t-36 -29.5t-21.5 -47t-7 -62.5v-80h139l-5 -41h-134v-344q0 -22 4.5 -36t14.5 -23.5t26.5 -16.5t46.5 -17v-8h-236v7q20 12 29.5 19.5t15.5 17.5t9 25t3 40v336h-70v27l70 20v64q0 47 14.5 84t40 62
t60 38t74.5 13q23 0 45.5 -4.5t41.5 -12.5t35 -19t27 -24l82 56v-384q11 31 28 55.5t39.5 41.5t50 25.5t58.5 8.5q38 0 67 -12t49 -34.5t30 -55t10 -72.5v-213q0 -25 3 -40t9 -25t15.5 -17.5t29.5 -19.5v-7h-201v7q20 12 29.5 19.5t15.5 17.5t9 25t3 40v198q0 26 -5.5 48.5
t-18 40.5t-32.5 28t-49 10q-28 0 -53.5 -11.5t-45 -34.5t-30.5 -56.5t-11 -75.5v-147q0 -25 3 -40t9 -25t15.5 -17.5t29.5 -19.5v-7h-201v7q20 12 29.5 19.5t15.5 17.5t9 25t3 40v481z" />
    <glyph glyph-name="f_f_h" unicode="ffh" horiz-adv-x="1279" 
d="M189 486h246v70v13t0.5 12t1.5 11.5t2 11.5q-7 19 -18.5 36.5t-27.5 31.5t-36 22t-44 8q-30 0 -53 -11.5t-39 -33t-24 -51.5t-8 -67v-53zM281 8v-8h-236v7q20 12 29.5 19.5t15.5 17.5t9 25t3 40v336h-70v27l70 20v33q0 45 14.5 84t41.5 68.5t66.5 45.5t88.5 16
q24 0 46.5 -4t42.5 -12t37 -19t31 -25q12 18 28.5 32t36.5 23.5t42.5 14t46.5 4.5q23 0 45.5 -4.5t41.5 -12.5t35 -19t27 -24l82 56v-384q11 31 28 55.5t39.5 41.5t49.5 25.5t58 8.5q38 0 67.5 -12t49.5 -34.5t30 -55t10 -72.5v-213q0 -25 3 -40t9 -25t15.5 -17.5
t29.5 -19.5v-7h-201v7q19 12 28.5 19.5t16 17.5t9 25t2.5 40v198q0 26 -5.5 48.5t-18 40.5t-32.5 28t-48 10q-29 0 -54.5 -11.5t-44.5 -34.5t-30 -56.5t-11 -75.5v-147q0 -25 3 -40t9 -25t15.5 -17.5t29.5 -19.5v-7h-201v7q19 12 28.5 19.5t16 17.5t9 25t2.5 40v481
q0 24 -9.5 46.5t-27.5 40.5t-42 28t-52 10t-49.5 -10t-36 -29.5t-21.5 -47t-7 -62.5v-80h138l-5 -41h-133v-344q0 -22 4.5 -36t14.5 -23.5t26.5 -16.5t45.5 -17v-8h-235v7q20 12 29.5 19.5t15.5 17.5t9 25t3 40v336h-246v-344q0 -22 4.5 -36t14.5 -23.5t26.5 -16.5t46.5 -17
z" />
    <glyph glyph-name="f_idieresis" unicode="f&#xef;" horiz-adv-x="614" 
d="M633 640q0 -12 -4.5 -23t-12.5 -19.5t-19 -13t-24 -4.5q-12 0 -22.5 4.5t-19 13t-13 19.5t-4.5 23t4.5 22.5t13 19t19 13t22.5 4.5t23 -4.5t19.5 -13t13 -19t4.5 -22.5zM189 445v-344q0 -22 4.5 -36t14.5 -23.5t26.5 -16.5t46.5 -17v-8h-236v7q20 12 29.5 19.5t15.5 17.5
t9 25t3 40v336h-70v27l70 20v66q0 46 14 82.5t40 61.5t61 38t76 13q31 0 57.5 -8t46.5 -22t31 -32.5t11 -39.5q0 -15 -6 -27t-16.5 -20.5t-24 -12.5t-27.5 -4q-5 0 -10 0.5t-9.5 1t-8.5 1.5t-7 2q5 6 8.5 12t6 13t4 14.5t1.5 15.5q0 15 -3.5 27.5t-11.5 22.5t-21 15.5
t-30 5.5q-22 0 -39.5 -9t-30 -26t-19 -41.5t-6.5 -55.5v-100h333v-377q0 -25 3 -40t9 -25t15.5 -17.5t29.5 -19.5v-7h-201v7q20 12 29.5 19.5t15.5 17.5t9 25t3 40v336h-246z" />
    <glyph glyph-name="f_f_idieresis" unicode="ff&#xef;" horiz-adv-x="947" 
d="M189 486h246v72v12t0.5 12t1.5 11.5t2 10.5q-7 19 -18.5 36.5t-27.5 31.5t-36 22t-44 8q-30 0 -53 -11.5t-39 -33t-24 -51.5t-8 -67v-53zM906 699q12 0 23 -4.5t19.5 -13t13 -19t4.5 -22.5t-4.5 -23t-12.5 -19.5t-19 -13t-24 -4.5q-12 0 -22.5 4.5t-19 13t-13 19.5
t-4.5 23t4.5 22.5t13 19t19 13t22.5 4.5zM281 8v-8h-236v7q20 12 29.5 19.5t15.5 17.5t9 25t3 40v336h-70v27l70 20v33q0 45 14.5 84t41.5 68.5t66.5 45.5t88.5 16q24 0 46.5 -4t42.5 -12t37 -19t31 -25q12 18 28.5 32t36.5 23t43 14t48 5q31 0 57.5 -8t46.5 -22t31 -32.5
t11 -39.5q0 -15 -6 -27t-16.5 -20.5t-24 -12.5t-27.5 -4q-6 0 -11 0.5t-9 1t-8 1.5t-7 2q5 6 8.5 12t6 13t4 14.5t1.5 15.5q0 15 -4 27.5t-12 22.5t-20.5 15.5t-29.5 5.5q-22 0 -39.5 -9t-30 -26t-19 -41.5t-6.5 -55.5v-100h333v-377q0 -25 3 -40t9 -25t15.5 -17.5
t29.5 -19.5v-7h-201v7q19 12 28.5 19.5t16 17.5t9 25t2.5 40v336h-245v-344q0 -22 4.5 -36t14.5 -23.5t26.5 -16.5t45.5 -17v-8h-235v7q20 12 29.5 19.5t15.5 17.5t9 25t3 40v336h-246v-344q0 -22 4.5 -36t14.5 -23.5t26.5 -16.5t46.5 -17z" />
    <glyph glyph-name="f_j" unicode="fj" horiz-adv-x="607" 
d="M435 445h-246v-344q0 -22 4.5 -36t14.5 -23.5t26.5 -16.5t46.5 -17v-8h-236v7q20 12 29.5 19.5t15.5 17.5t9 25t3 40v336h-70v27l70 20v40q0 51 15.5 92t44.5 70t70 44t92 15q37 0 67.5 -8.5t51.5 -23t32.5 -33t11.5 -39.5q0 -14 -5.5 -25.5t-15.5 -20t-23.5 -12.5
t-28.5 -4q-6 0 -11 0.5t-9.5 1t-8.5 1.5t-7 2q4 5 7.5 10.5t5.5 12t3 14t1 15.5q0 15 -4.5 28.5t-14.5 23.5t-26.5 16t-38.5 6q-31 0 -54 -12t-38 -34.5t-22.5 -54t-7.5 -71.5v-60h333v-520q0 -45 -11 -80.5t-32.5 -60t-53 -37.5t-71.5 -13q-29 0 -53 6t-41 18t-26.5 28
t-9.5 36q0 14 5 25t14 18t20.5 10.5t25.5 3.5q3 0 6.5 -0.5l7 -1t6.5 -1t5 -1.5q-2 -5 -4 -10.5t-3 -11.5t-1.5 -12t-0.5 -12q0 -13 4 -24t11.5 -19.5t18 -13t23.5 -4.5q20 0 34 9.5t22.5 26.5t12.5 41t4 54v505z" />
    <glyph glyph-name="f_f_j" unicode="ffj" horiz-adv-x="939" 
d="M189 486h246v46q0 9 0.5 17l1 16t2 16t3.5 15q-7 20 -18 39t-27.5 34t-37.5 24t-46 9q-30 0 -53 -11.5t-39 -33t-24 -51.5t-8 -67v-53zM686 -225q-28 0 -52 6t-41 18t-26.5 28t-9.5 36q0 14 5 25t14 18t20.5 10.5t25.5 3.5q3 0 6.5 -0.5l7 -1t6.5 -1t5 -1.5
q-2 -5 -4 -10.5t-3 -11.5t-1.5 -12t-0.5 -12q0 -13 4 -24t11.5 -19.5t18 -13t22.5 -4.5q20 0 34 9.5t22.5 26.5t12.5 41t4 54v505h-245v-344q0 -22 4.5 -36t14.5 -23.5t26.5 -16.5t45.5 -17v-8h-235v7q20 12 29.5 19.5t15.5 17.5t9 25t3 40v336h-246v-344q0 -22 4.5 -36
t14.5 -23.5t26.5 -16.5t46.5 -17v-8h-236v7q20 12 29.5 19.5t15.5 17.5t9 25t3 40v336h-70v27l70 20v33q0 45 14.5 84t41.5 68.5t66.5 45.5t88.5 16q26 0 49.5 -5t44.5 -13.5t38 -21t31 -27.5q14 20 33 35t41.5 25t49.5 15.5t57 5.5q37 0 67.5 -8.5t51.5 -23t32.5 -33
t11.5 -39.5q0 -14 -5.5 -25.5t-15.5 -20t-23.5 -12.5t-28.5 -4q-6 0 -11 0.5t-9.5 1t-8.5 1.5t-7 2q4 5 7 10.5t5.5 12.5t3.5 14t1 15q0 15 -4.5 28.5t-14.5 23.5t-26.5 16t-38.5 6q-31 0 -54 -12t-38 -34.5t-22.5 -54t-7.5 -71.5v-60h333v-520q0 -45 -11 -80.5t-32.5 -60
t-53 -37.5t-72.5 -13z" />
    <glyph glyph-name="f_k" unicode="fk" horiz-adv-x="918" 
d="M281 8v-8h-236v7q20 12 29.5 19.5t15.5 17.5t9 25t3 40v336h-70v27l70 20v64q0 47 14.5 84t40 62t60 38t74.5 13q23 0 45.5 -4.5t41.5 -12.5t35 -19t27 -24l82 56v-463h24q10 0 17.5 1t13.5 3t11.5 5.5t10.5 8.5l118 110l9 9t6 7.5t3 6.5t1 7q0 5 -2 9.5t-6 8.5t-9 8.5
t-13 9.5v6h189v-6q-20 -7 -37 -14t-33 -16.5t-32.5 -22t-34.5 -28.5l-112 -105l161 -203q12 -16 25.5 -28t27.5 -21.5t29 -17t35 -16.5v-8h-172q-2 10 -5 18.5t-7 16.5t-10 16.5t-14 18.5l-124 159q-5 6 -9 10t-8 6.5t-9 3.5t-12 1h-32v-141q0 -25 3 -40t9 -25t15.5 -17.5
t29.5 -19.5v-7h-201v7q20 12 29.5 19.5t15.5 17.5t9 25t3 40v481q0 24 -9.5 46.5t-27.5 40.5t-42.5 28t-52.5 10t-49.5 -10t-36 -29.5t-21.5 -47t-7 -62.5v-80h139l-5 -41h-134v-344q0 -22 4.5 -36t14.5 -23.5t26.5 -16.5t46.5 -17z" />
    <glyph glyph-name="f_f_k" unicode="ffk" horiz-adv-x="1251" 
d="M189 486h246v70v13t0.5 12t1.5 11.5t2 11.5q-7 19 -18.5 36.5t-27.5 31.5t-36 22t-44 8q-30 0 -53 -11.5t-39 -33t-24 -51.5t-8 -67v-53zM281 8v-8h-236v7q20 12 29.5 19.5t15.5 17.5t9 25t3 40v336h-70v27l70 20v33q0 45 14.5 84t41.5 68.5t66.5 45.5t88.5 16
q24 0 46.5 -4t42.5 -12t37 -19t31 -25q12 18 28.5 32t36.5 23.5t42.5 14t46.5 4.5q23 0 45.5 -4.5t41.5 -12.5t35 -19t27 -24l82 56v-463h24q10 0 17.5 1t13.5 3t11.5 5.5t10.5 8.5l118 110l9 9t6 7.5t3 6.5t1 7q0 5 -2 9.5t-6 8.5t-9 8.5t-13 9.5v6h189v-6q-20 -7 -37 -14
t-33 -16.5t-32.5 -22t-34.5 -28.5l-112 -105l161 -203q12 -16 25.5 -28t27.5 -21.5t29 -17t35 -16.5v-8h-172q-2 10 -5 18.5t-7.5 16.5t-10.5 16.5t-14 18.5l-124 159q-4 6 -8 10t-8.5 6.5t-9.5 3.5t-12 1h-31v-141q0 -25 3 -40t9 -25t15.5 -17.5t29.5 -19.5v-7h-201v7
q19 12 28.5 19.5t16 17.5t9 25t2.5 40v481q0 24 -9.5 46.5t-27.5 40.5t-42 28t-52 10t-49.5 -10t-36 -29.5t-21.5 -47t-7 -62.5v-80h138l-5 -41h-133v-344q0 -22 4.5 -36t14.5 -23.5t26.5 -16.5t45.5 -17v-8h-235v7q20 12 29.5 19.5t15.5 17.5t9 25t3 40v336h-246v-344
q0 -22 4.5 -36t14.5 -23.5t26.5 -16.5t46.5 -17z" />
    <glyph glyph-name=".notdef" horiz-adv-x="500" 
 />
    <glyph glyph-name=".null" horiz-adv-x="0" 
 />
    <glyph glyph-name="nonmarkingreturn" unicode="&#xd;" horiz-adv-x="500" 
 />
    <glyph glyph-name="NULL" horiz-adv-x="0" 
 />
    <glyph glyph-name="NULL" horiz-adv-x="0" 
 />
    <glyph glyph-name="space" unicode=" " horiz-adv-x="200" 
 />
    <glyph glyph-name="exclam" unicode="!" horiz-adv-x="269" 
d="M72 700h125l-56 -496h-13zM202 59q0 -14 -5 -26.5t-14.5 -22t-21.5 -14.5t-26 -5t-26.5 5t-22 14.5t-14.5 22t-5 26.5t5 26.5t14.5 22t22 14.5t26.5 5t26 -5t21.5 -14.5t14.5 -22t5 -26.5z" />
    <glyph glyph-name="quotedbl" unicode="&#x22;" horiz-adv-x="412" 
d="M299 429h-12l-47 248q4 7 9.5 13t12 10.5t14.5 7t17 2.5t17.5 -2.5t15 -7t12 -10.5t8.5 -13zM125 429h-12l-47 248q4 7 9.5 13t12 10.5t14.5 7t17 2.5t17.5 -2.5t15 -7t12 -10.5t8.5 -13z" />
    <glyph glyph-name="numbersign" unicode="#" horiz-adv-x="643" 
d="M380 246l30 207h-144l-30 -207h144zM345 0l30 207h-144l-30 -207h-41l30 207h-150l7 39h148l30 207h-164l7 38h162l30 209h41l-30 -209h144l30 209h40l-30 -209h149l-8 -38h-146l-30 -207h163l-7 -39h-161l-30 -207h-40z" />
    <glyph glyph-name="dollar" unicode="$" horiz-adv-x="593" 
d="M145 548q0 -28 8.5 -48.5t25 -35.5t41 -26t59.5 -21v252q-30 -2 -54.5 -11.5t-42.5 -25t-27.5 -37t-9.5 -47.5zM344 304l-25 7v-280q33 3 59.5 14t45.5 29.5t29.5 44t10.5 58.5q0 25 -7 44t-21.5 34.5t-37 27.5t-54.5 21zM319 -122h-40v112q-51 1 -94.5 12t-75 30.5
t-48.5 44.5t-17 54q0 18 6 31.5t16 22t22.5 13t25.5 4.5q5 0 9.5 -0.5t8.5 -1.5t7 -2t6 -3q-3 -5 -5.5 -10t-4 -10.5t-2.5 -11.5t-1 -13q0 -26 10 -48t29.5 -38t46.5 -25t61 -10v294l-21 6q-45 13 -79 29t-59 38.5t-38.5 53.5t-13.5 71t15 73.5t43.5 58.5t67.5 39.5t85 17.5
v108h40v-109q44 -2 81 -12t64 -26.5t41.5 -38.5t14.5 -48q0 -17 -5.5 -30t-15.5 -21t-22.5 -11.5t-26.5 -3.5q-4 0 -7.5 0.5l-7 1t-6.5 1.5t-5 2q3 5 5.5 10t4 10t2.5 12t1 15q0 19 -7.5 36t-22.5 30.5t-37.5 22t-50.5 10.5v-264l41 -12q43 -13 75.5 -29t56.5 -39.5
t37 -55.5t13 -74q0 -44 -17.5 -80t-48.5 -62t-71.5 -41.5t-85.5 -19.5v-114z" />
    <glyph glyph-name="percent" unicode="%" horiz-adv-x="928" 
d="M363 639q10 -10 18.5 -22.5t14 -27t8.5 -30t3 -31.5q0 -41 -14 -74.5t-39.5 -57.5t-59 -37t-71.5 -13q-37 0 -70.5 13t-59 37t-39.5 57.5t-14 74.5t14 74.5t39.5 57.5t59 37t70.5 13q27 0 47.5 -6.5t57 -21t66.5 -22t70 -7.5q27 0 52.5 3.5t49.5 11.5t44.5 20.5
t36.5 30.5l22 -9l-375 -710h-36l349 660q-9 -7 -25.5 -13.5t-37.5 -10.5t-42 -6.5t-38 -2.5q-12 0 -25 1t-26.5 2.5t-26 4t-23.5 4.5zM328 528q0 36 -8 64t-22 46.5t-33.5 28t-41.5 9.5t-41 -9.5t-33 -28t-22 -46.5t-8 -64t8 -64t22 -46.5t33 -28t41 -9.5t41.5 9.5t33.5 28
t22 46.5t8 64zM705 -10q-37 0 -70.5 13t-59 37t-39.5 57.5t-14 74.5t14 74.5t39.5 57.5t59 37t70.5 13t70.5 -13t59 -37t39.5 -57.5t14 -74.5t-14 -74.5t-39.5 -57.5t-59 -37t-70.5 -13zM705 24q22 0 41 9.5t33.5 28t22.5 46.5t8 64t-8 64t-22.5 46.5t-33.5 28t-41 9.5
t-41 -9.5t-33 -28t-22 -46.5t-8 -64t8 -64t22 -46.5t33 -28t41 -9.5z" />
    <glyph glyph-name="ampersand" unicode="&#x26;" horiz-adv-x="734" 
d="M256 453l56 -58q25 12 44.5 28.5t34 37t22 45.5t7.5 53q0 24 -8 45t-22.5 36.5t-35.5 24t-46 8.5q-26 0 -47.5 -7.5t-36 -22t-22 -33.5t-7.5 -42q0 -16 4.5 -30.5t12.5 -28.5t18.5 -27.5t25.5 -28.5zM306 39q24 0 47.5 4t45.5 12.5t42 20t38 26.5l-235 239
q-27 -15 -46.5 -33t-31.5 -38t-18 -42.5t-6 -47.5q0 -31 12 -57t34.5 -45t52.5 -29t65 -10zM580 0l-73 74q-22 -20 -47 -35.5t-53.5 -26.5t-60.5 -16.5t-66 -5.5q-48 0 -90 11.5t-74 35t-49.5 57.5t-17.5 78q0 30 11.5 57.5t34 51t55.5 43t76 34.5l-42 43q-17 17 -29.5 33.5
t-22 34t-14.5 37t-5 39.5q0 40 15.5 71t42.5 52t62 31.5t75 10.5q45 0 81 -11.5t61 -32.5t37.5 -49t12.5 -60q0 -33 -13.5 -61t-37 -51t-53.5 -40t-65 -28l204 -209q8 13 14 26.5t10.5 28t8 29.5t4.5 31q2 19 -0.5 30.5t-10.5 20t-19.5 15.5t-43.5 25v7h193v-7
q-23 -14 -35.5 -23t-19.5 -17.5t-10.5 -19.5t-7.5 -31t-9.5 -38.5t-12.5 -36.5t-15.5 -34.5t-18.5 -32.5l56 -57q14 -15 27.5 -26t26.5 -19.5t27 -15.5t33 -15v-8h-152z" />
    <glyph glyph-name="quotesingle" unicode="'" horiz-adv-x="238" 
d="M125 429h-12l-47 248q4 7 9.5 13t12 10.5t14.5 7t17 2.5t17.5 -2.5t15 -7t12 -10.5t8.5 -13z" />
    <glyph glyph-name="parenleft" unicode="(" horiz-adv-x="353" 
d="M66 297q0 76 16 144t46 125.5t71 103t92 79.5h26q-39 -35 -70.5 -83t-53 -106.5t-32.5 -125t-11 -137.5t11 -137.5t32.5 -125t53 -106.5t70.5 -83h-26q-51 34 -92.5 80t-71 103t-45.5 125t-16 144z" />
    <glyph glyph-name="parenright" unicode=")" horiz-adv-x="353" 
d="M62 749q51 -34 92 -79.5t71 -103t46 -125.5t16 -144t-16 -144t-45.5 -125t-71 -103t-92.5 -80h-26q39 35 70.5 83t53 106.5t32.5 125t11 137.5t-11 137.5t-32.5 125t-53 106.5t-70.5 83h26z" />
    <glyph glyph-name="asterisk" unicode="*" horiz-adv-x="480" 
d="M240 507l-104 -119l-21 16l80 135l-145 63l9 25l153 -35l15 157h26l15 -157l153 35l9 -25l-145 -63l81 -135l-21 -16z" />
    <glyph glyph-name="plus" unicode="+" horiz-adv-x="598" 
d="M527 316h-205v-204h-46v204h-205v48h205v204h46v-204h205v-48z" />
    <glyph glyph-name="comma" unicode="," horiz-adv-x="255" 
d="M152 13q-4 -3 -8 -4.5t-8.5 -3t-10 -2t-11.5 -0.5q-11 0 -21.5 4.5t-18 12t-11.5 18t-4 21.5q0 13 4.5 24.5t13 19.5t20 12.5t25.5 4.5q19 0 34 -7t26 -20t16.5 -32t5.5 -43q0 -33 -11 -63t-32.5 -53t-52 -36.5t-68.5 -14.5v29q28 5 50 16.5t36.5 28.5t21 39t4.5 49z" />
    <glyph glyph-name="hyphen" unicode="-" horiz-adv-x="349" 
d="M50 249v51h249v-51h-249z" />
    <glyph glyph-name="period" unicode="." horiz-adv-x="256" 
d="M196 59q0 -14 -5.5 -26.5t-15 -22t-21.5 -14.5t-26 -5t-26.5 5t-22 14.5t-14.5 22t-5 26.5t5 26.5t14.5 22t22 14.5t26.5 5t26 -5t21.5 -14.5t15 -22t5.5 -26.5z" />
    <glyph glyph-name="slash" unicode="/" horiz-adv-x="394" 
d="M10 -153l300 902h46l-300 -902h-46z" />
    <glyph glyph-name="zero" unicode="0" horiz-adv-x="650" 
d="M600 350q0 -78 -19 -144t-55.5 -114.5t-87.5 -75t-113 -26.5t-113 26.5t-87.5 75t-55.5 114.5t-19 144t19 144t55.5 114.5t87.5 75t113 26.5t113 -26.5t87.5 -75t55.5 -114.5t19 -144zM498 350q0 70 -10.5 128t-32 100t-54 65t-76.5 23t-77 -23t-54.5 -65t-32 -100
t-10.5 -128t10.5 -128t32 -100t54.5 -65t77 -23t76.5 23t54 65t32 100t10.5 128z" />
    <glyph glyph-name="one" unicode="1" horiz-adv-x="374" 
d="M339 0h-299v12q44 14 58.5 19.5t25.5 13t16 19t5 30.5v509q0 19 -5 30t-17 19t-20 11t-72 26v11h203v-606q0 -19 5.5 -30.5t17 -19t23 -11.5t59.5 -21v-12z" />
    <glyph glyph-name="two" unicode="2" horiz-adv-x="571" 
d="M122 77l211 1q43 0 66.5 3t42 12t35 27.5t36.5 52.5h10l-22 -173h-482v6l130 139q71 75 101 107t64.5 78.5t56 95.5t21.5 96q0 34 -8.5 61t-25.5 46.5t-42 30t-57 10.5q-30 0 -53 -10t-38 -27.5t-22.5 -40.5t-7.5 -50q0 -16 2 -30t6 -25.5t9.5 -21t13.5 -17.5
q-3 -1 -6.5 -2t-7.5 -1.5t-8.5 -1t-8.5 -0.5q-19 0 -35 7t-28 20t-18.5 31.5t-6.5 40.5q0 33 15 63.5t42.5 54t66.5 37t85 13.5q51 0 93.5 -14t73 -40t47 -62t16.5 -80q0 -52 -22 -97.5t-65 -92.5t-88.5 -86t-191.5 -161z" />
    <glyph glyph-name="three" unicode="3" horiz-adv-x="586" 
d="M282 -10q-50 0 -92.5 11.5t-74.5 33.5t-49.5 51t-17.5 63q0 21 6.5 38.5t18 30t28 19t35.5 6.5q5 0 10 -0.5t9.5 -1.5t8 -2t7.5 -3q-7 -9 -12 -17t-8.5 -17.5t-5.5 -20t-2 -23.5q0 -30 9.5 -54t28 -41t44 -25.5t57.5 -8.5q35 0 63 10t49 30.5t32 51.5t11 71t-12 71.5
t-35.5 54t-59 34t-81.5 11.5v29q44 1 76 12t52 30t29.5 44.5t9.5 57.5q0 30 -8.5 55t-25 42.5t-40.5 27t-54 9.5q-29 0 -52 -8.5t-38.5 -24t-23 -37t-7.5 -47.5q0 -16 2 -28.5t5.5 -23t9 -19t13.5 -15.5l-6 -2t-6.5 -1.5t-7.5 -0.5h-8q-19 0 -35.5 6t-28.5 18t-18.5 29.5
t-6.5 39.5q0 30 14 57.5t41.5 49.5t66 34.5t86.5 12.5q47 0 87 -11t70 -33t46.5 -55t16.5 -75q0 -34 -14 -62t-38.5 -48.5t-55.5 -32t-64 -13.5v-2q47 -3 84.5 -18.5t63 -41t39 -58t13.5 -68.5q0 -50 -19.5 -88t-54 -63.5t-80.5 -38t-100 -12.5z" />
    <glyph glyph-name="four" unicode="4" horiz-adv-x="638" 
d="M362 233v386l-271 -386h271zM496 192h-47v-83q0 -25 3 -40t9 -25t15.5 -17.5t29.5 -19.5v-7h-201v7q20 12 29.5 19.5t15.5 17.5t9 25t3 40v83h-348v5l360 503h75v-467h47q25 0 39.5 2.5t23.5 8t16 14t19 28.5h7v-147h-7q-12 20 -19 28.5t-16 14t-23.5 8t-39.5 2.5z" />
    <glyph glyph-name="five" unicode="5" horiz-adv-x="566" 
d="M256 30q37 0 67 13.5t51 39t32 60.5t11 77q0 41 -9.5 73.5t-28 55.5t-47 35t-66.5 12q-24 0 -47 -5t-43 -14t-37 -21t-32 -26h-4l44 371q28 -4 54 -7.5t50.5 -6t48 -3.5t45.5 -1q29 0 49.5 1.5t38.5 6t33.5 13.5t30.5 23h4q0 -34 -7.5 -59.5t-23.5 -43t-43 -26.5t-66 -9
q-24 0 -50 2.5t-50.5 6t-45 7.5t-38.5 8l-26 -213q11 9 26.5 16.5t34.5 13.5t39.5 9.5t41.5 3.5q44 0 84.5 -13.5t72 -40.5t49.5 -68.5t18 -96.5q0 -53 -21 -97t-58 -74.5t-84 -46.5t-98 -16q-50 0 -91.5 11.5t-71 33t-45.5 50.5t-16 63q0 22 6.5 39.5t18 29.5t27 18.5
t34.5 6.5q6 0 11.5 -0.5t10 -1.5t8.5 -2t7 -3q-7 -8 -12 -16t-8.5 -17.5t-5.5 -20.5t-2 -25q0 -30 9 -53.5t26 -39.5t40.5 -24.5t53.5 -8.5z" />
    <glyph glyph-name="six" unicode="6" horiz-adv-x="589" 
d="M336 671q-50 0 -87 -25.5t-61 -73t-36 -112.5t-12 -144q8 25 24 47.5t39.5 39.5t53 26.5t62.5 9.5q47 0 87.5 -14.5t70.5 -43t46.5 -70t16.5 -93.5q0 -49 -17.5 -91t-50 -73t-76 -47.5t-93.5 -16.5q-62 0 -110 25t-80 71t-47.5 106.5t-15.5 132.5q0 81 18.5 151t55 122.5
t90 82t122.5 29.5q43 0 78.5 -10t61 -27.5t39 -42t13.5 -53.5q0 -19 -6 -33.5t-17 -24t-24.5 -14t-29.5 -4.5q-4 0 -7.5 0.5t-7 1.5t-6.5 2t-6 3q5 5 8.5 12t6.5 15t4.5 17.5t1.5 18.5q1 21 -6 39t-21 32t-35 21.5t-47 7.5zM159 213q0 -41 10 -75t28.5 -58t45 -37t59.5 -13
t60 13t45.5 37t28.5 58t10 75t-10 74.5t-28.5 57.5t-45.5 37t-60 13t-59.5 -13t-45 -37t-28.5 -57.5t-10 -74.5z" />
    <glyph glyph-name="seven" unicode="7" horiz-adv-x="535" 
d="M40 523v177h490v-4l-87 -130q-40 -59 -70.5 -124t-51 -135t-31.5 -145t-13 -154l-103 -18q10 86 30 164t49.5 148.5t68 136.5t87.5 136l30 43h-259q-27 0 -47 -5.5t-35 -16.5t-26 -29t-22 -44h-10z" />
    <glyph glyph-name="eight" unicode="8" horiz-adv-x="596" 
d="M364 385q48 -18 81.5 -37.5t56 -43.5t33.5 -53.5t11 -66.5q0 -42 -17.5 -77.5t-50 -62t-77.5 -40.5t-98 -14q-54 0 -100 12.5t-80.5 36.5t-53.5 58.5t-19 78.5q0 32 12.5 60t35.5 50.5t52.5 39t63.5 26.5q-27 12 -49 28.5t-39 38t-26.5 48.5t-9.5 60q0 40 16 74
t44.5 58.5t67 37.5t82.5 13q43 0 81 -11.5t66 -33.5t43.5 -52.5t15.5 -66.5q0 -35 -12.5 -62.5t-33 -46.5t-45 -31.5t-51.5 -20.5zM173 548q0 -25 7.5 -44.5t21 -35t32.5 -27.5t45 -22l65 -27q18 11 33 26t26 33.5t17.5 41.5t6.5 51t-9 51t-26 40t-40.5 26t-51.5 9
t-51.5 -8.5t-40.5 -24.5t-26 -39t-9 -50zM337 302l-104 41q-21 -12 -39 -28t-31 -36t-20.5 -44t-7.5 -52q0 -35 12.5 -63.5t35 -48.5t53.5 -30.5t67 -10.5q32 0 60.5 9t50 26.5t34 42t12.5 55.5q0 25 -8.5 46t-25 38t-39 30.5t-50.5 24.5z" />
    <glyph glyph-name="nine" unicode="9" horiz-adv-x="589" 
d="M430 487q0 41 -10 75t-28.5 58t-45 37t-59.5 13t-60 -13t-45.5 -37t-28.5 -58t-10 -75t10 -74.5t28.5 -57.5t45.5 -37t60 -13t59.5 13t45 37t28.5 57.5t10 74.5zM253 29q50 0 87 25.5t61 73t36 112.5t12 144q-8 -25 -24 -47.5t-39.5 -39.5t-53 -26.5t-62.5 -9.5
q-47 0 -87.5 14.5t-70.5 43t-46.5 70t-16.5 93.5q0 49 17.5 91t50 73t76 47.5t93.5 16.5q62 0 110 -25t80 -71t47.5 -106.5t15.5 -132.5q0 -81 -18.5 -151t-55 -122.5t-90 -82t-122.5 -29.5q-43 0 -78.5 10t-61 27.5t-39 42t-13.5 53.5q0 19 6 33.5t17 24t24.5 14t29.5 4.5
q4 0 7.5 -0.5t7 -1.5t6.5 -2t6 -3q-5 -5 -8.5 -12t-6.5 -15t-4.5 -17.5t-1.5 -18.5q-1 -21 6 -39t21 -32t35 -21.5t47 -7.5z" />
    <glyph glyph-name="colon" unicode=":" horiz-adv-x="256" 
d="M196 59q0 -14 -5.5 -26.5t-15 -22t-21.5 -14.5t-26 -5t-26.5 5t-22 14.5t-14.5 22t-5 26.5t5 26.5t14.5 22t22 14.5t26.5 5t26 -5t21.5 -14.5t15 -22t5.5 -26.5zM196 375q0 -14 -5.5 -26.5t-15 -22t-21.5 -14.5t-26 -5t-26.5 5t-22 14.5t-14.5 22t-5 26.5t5 26.5t14.5 22
t22 14.5t26.5 5t26 -5t21.5 -14.5t15 -22t5.5 -26.5z" />
    <glyph glyph-name="semicolon" unicode=";" horiz-adv-x="255" 
d="M152 13q-4 -3 -8 -4.5t-8.5 -3t-10 -2t-11.5 -0.5q-11 0 -21.5 4.5t-18 12t-11.5 18t-4 21.5q0 13 4.5 24.5t13 19.5t20 12.5t25.5 4.5q19 0 34 -7t26 -20t16.5 -32t5.5 -43q0 -33 -11 -63t-32.5 -53t-52 -36.5t-68.5 -14.5v29q28 5 50 16.5t36.5 28.5t21 39t4.5 49z
M196 375q0 -14 -5.5 -26.5t-15 -22t-21.5 -14.5t-26 -5t-26.5 5t-22 14.5t-14.5 22t-5 26.5t5 26.5t14.5 22t22 14.5t26.5 5t26 -5t21.5 -14.5t15 -22t5.5 -26.5z" />
    <glyph glyph-name="less" unicode="&#x3c;" horiz-adv-x="473" 
d="M67 311v56l347 194v-56l-301 -167l301 -165v-57z" />
    <glyph glyph-name="equal" unicode="=" horiz-adv-x="624" 
d="M84 382v47h456v-47h-456zM84 249v47h456v-47h-456z" />
    <glyph glyph-name="greater" unicode="&#x3e;" horiz-adv-x="473" 
d="M406 367v-56l-348 -195v57l302 165l-302 167v56z" />
    <glyph glyph-name="question" unicode="?" horiz-adv-x="499" 
d="M247 671q-29 0 -51.5 -8.5t-37.5 -24t-23 -36.5t-8 -45q0 -10 2 -19.5t5.5 -18.5t8 -16.5t9.5 -13.5q-3 -2 -6.5 -3t-7.5 -2.5t-8.5 -2t-8.5 -0.5q-17 0 -31.5 5.5t-25 16t-16 26t-5.5 36.5q0 28 14.5 54t42 46.5t65.5 32.5t83 12q48 0 86.5 -14t65.5 -39t41 -58t14 -71
q0 -43 -15.5 -79t-44 -64t-65.5 -48t-81 -33v-103h-38v181q36 7 66 20.5t52.5 34t35 47.5t12.5 61q0 26 -8.5 49t-25 40.5t-41 27t-55.5 9.5zM298 59q0 -14 -5 -26.5t-14.5 -22t-21.5 -14.5t-26 -5t-26.5 5t-22 14.5t-14.5 22t-5 26.5t5 26.5t14.5 22t22 14.5t26.5 5t26 -5
t21.5 -14.5t14.5 -22t5 -26.5z" />
    <glyph glyph-name="at" unicode="@" horiz-adv-x="968" 
d="M710 433l-68 -277q-6 -23 -4 -40t10 -28t22 -16.5t32 -5.5q27 0 54 13.5t49.5 42.5t36.5 74.5t14 105.5q0 73 -27 130.5t-74.5 96.5t-110 59t-133.5 20q-75 0 -144 -29.5t-121.5 -84t-82.5 -128t-30 -158.5q0 -81 27.5 -148t77.5 -115.5t118.5 -74t148.5 -25.5
q48 0 90 5.5t80.5 17t74.5 31t71 47.5l13 -22q-30 -31 -67 -53.5t-79.5 -36.5t-88.5 -21t-94 -7q-94 0 -174 28t-139 81t-91.5 128t-32.5 166q0 94 34.5 175t96 140.5t142 91.5t170.5 32q79 0 150 -23t126 -68t86 -110t31 -145q0 -72 -19 -125.5t-50.5 -88t-69.5 -51
t-75 -16.5q-27 0 -49.5 7t-39.5 20t-26.5 33t-9.5 45q-11 -22 -26 -41.5t-34 -33.5t-42 -22t-47 -8q-29 0 -54 10t-43.5 29.5t-28.5 47.5t-10 62q0 52 17.5 99.5t49 84.5t73 58t88.5 21q24 0 43.5 -6t34 -17t23.5 -25t12 -30q6 11 16.5 23t22.5 23t22.5 19.5t18.5 12.5h9z
M572 213l12 51q8 32 6 56t-11.5 39.5t-25 23t-35.5 7.5q-30 0 -57.5 -18t-48.5 -49t-33 -71t-12 -82q0 -23 5.5 -42t15 -31.5t23 -19.5t29.5 -7q23 0 43.5 10t37.5 29t30 45.5t21 58.5z" />
    <glyph glyph-name="A" unicode="A" horiz-adv-x="760" 
d="M355 565l-134 -293h270zM196 8v-8h-188v8q19 13 30 22.5t20.5 20t18.5 25.5t20 38l280 598h5l280 -598q11 -24 19.5 -38.5t17.5 -25.5t20 -20.5t28 -21.5v-8h-218v8q16 7 26.5 13t17 11.5t9 12t2.5 14.5q0 5 -1 9.5t-2.5 9.5t-4 10.5t-6.5 13.5l-60 129h-308l-58 -128
q-3 -7 -5.5 -13t-4 -10.5t-2 -9t-0.5 -9.5q0 -8 4 -14t11.5 -12t18.5 -12t30 -15z" />
    <glyph glyph-name="B" unicode="B" horiz-adv-x="661" 
d="M364 0h-316v8q20 11 31 19t18 18.5t10 26t3 40.5v476q0 25 -3 40.5t-10 26t-18 18.5t-31 19v8h292q56 0 101.5 -10t79 -31t52 -55t18.5 -81q0 -34 -14 -63t-38.5 -50.5t-56.5 -33.5t-68 -14v-2q43 -2 80.5 -13t65.5 -32t44 -53t16 -73q0 -48 -18 -84t-52 -59.5t-81 -34.5
t-105 -11zM201 661v-283h125q37 0 67.5 7.5t53.5 24t36 44t13 67.5q0 36 -11.5 62.5t-33.5 43.5t-53 25.5t-70 8.5h-127zM335 340h-134v-301h148q40 0 72 8.5t55.5 27t36 47.5t12.5 68t-13 67.5t-37.5 47t-59.5 27t-80 8.5z" />
    <glyph glyph-name="C" unicode="C" horiz-adv-x="714" 
d="M405 666q-56 0 -103 -22.5t-81 -64t-52.5 -99t-18.5 -125.5q0 -71 20.5 -128t57.5 -96.5t84.5 -60t101.5 -20.5q40 0 74 9t63.5 28t54 49t44.5 73l17 -7q-12 -48 -36.5 -87t-59.5 -67t-80.5 -43t-99.5 -15q-75 0 -138.5 26t-109.5 74.5t-71 114.5t-25 145
q0 77 26.5 143.5t74.5 115t113 75t139 26.5q29 0 55 -4t48 -11.5t40.5 -17.5t34.5 -22l51 55h8v-211h-9q-22 38 -44.5 68t-49 52t-59 34.5t-70.5 12.5z" />
    <glyph glyph-name="D" unicode="D" horiz-adv-x="757" 
d="M47 0v8q20 11 31 19t18.5 18.5t10.5 26t3 40.5v476q0 25 -3 40.5t-10.5 26t-18.5 18.5t-31 19v8h273q90 0 162.5 -24t123.5 -70t77.5 -110.5t26.5 -144.5q0 -81 -26.5 -146t-77 -111t-122 -70t-159.5 -24h-278zM609 351q0 71 -19 128t-57 97.5t-93.5 62t-126.5 21.5h-112
v-620h115q71 0 125.5 21t92 61.5t56.5 98t19 130.5z" />
    <glyph glyph-name="E" unicode="E" horiz-adv-x="658" 
d="M483 475v-231h-9q-14 35 -24 53.5t-22.5 27.5t-31 12t-51.5 3h-144v-301h198q41 0 70.5 7t52.5 22t43 39t47 64h8l-32 -171h-541v8q20 11 31 19t18.5 18.5t10.5 26t3 40.5v476q0 25 -3 40.5t-10.5 26t-18.5 18.5t-31 19v8h449q11 0 19.5 0.5t15.5 1.5t12.5 2t12.5 2
l34 -159h-8q-34 39 -49.5 56t-36.5 30.5t-49.5 20.5t-70.5 7h-175v-282h144q33 0 51 3t31 12.5t23 27.5t24 53h9z" />
    <glyph glyph-name="F" unicode="F" horiz-adv-x="621" 
d="M289 0h-242v8q20 11 31 19t18.5 18.5t10.5 26t3 40.5v476q0 25 -3 40.5t-10.5 26t-18.5 18.5t-31 19v8h449q11 0 19.5 0.5t15.5 1.5t12.5 2t12.5 2l34 -159h-8q-34 39 -49.5 56t-36.5 30.5t-49.5 20.5t-70.5 7h-175v-295h144q33 0 51.5 3t31 12t22.5 27.5t24 53.5h9v-231
h-9q-14 35 -24 53t-23 27.5t-31 12.5t-51 3h-144v-215q0 -24 5 -39.5t15.5 -26.5t25.5 -18.5t42 -19.5v-8z" />
    <glyph glyph-name="G" unicode="G" horiz-adv-x="779" 
d="M600 128v94q0 25 -3.5 40.5t-10.5 25.5t-18 18t-32 20v8h219v-8q-21 -12 -32 -20t-18.5 -18t-11 -25.5t-3.5 -40.5v-231h-23l-53 100q-15 -22 -37 -40.5t-50 -32t-61 -21t-69 -7.5q-75 0 -139.5 25.5t-111.5 73.5t-73 113.5t-26 143.5q0 79 27 146t76.5 116t116.5 75.5
t145 26.5q29 0 56 -4t50.5 -12t43 -17.5t35.5 -21.5l54 55h7v-209h-8q-23 38 -46.5 67.5t-51.5 51.5t-61.5 34.5t-73.5 12.5q-59 0 -108 -23t-84.5 -65.5t-54.5 -101t-19 -128.5q0 -69 19.5 -125.5t55 -97t85.5 -62t110 -21.5q28 0 53 5t47.5 15t42.5 26.5t36 38.5z" />
    <glyph glyph-name="H" unicode="H" horiz-adv-x="822" 
d="M47 0v8q20 11 31 19t18.5 18.5t10.5 26t3 40.5v476q0 25 -3 40.5t-10.5 26t-18.5 18.5t-31 19v8h218v-8q-21 -11 -32 -19t-18 -18.5t-10.5 -26t-3.5 -40.5v-208h419v208q0 25 -3 40.5t-10.5 26t-18.5 18.5t-31 19v8h218v-8q-21 -11 -32 -19t-18 -18.5t-10.5 -26
t-3.5 -40.5v-476q0 -25 3.5 -40.5t10.5 -26t18 -18.5t32 -19v-8h-218v8q20 11 31 19t18.5 18.5t10.5 26t3 40.5v227h-419v-227q0 -25 3.5 -40.5t10.5 -26t18 -18.5t32 -19v-8h-218z" />
    <glyph glyph-name="I" unicode="I" horiz-adv-x="312" 
d="M110 588q0 25 -3 40.5t-10.5 26t-18.5 18.5t-31 19v8h218v-8q-21 -11 -32 -19t-18 -18.5t-10.5 -26t-3.5 -40.5v-476q0 -25 3.5 -40.5t10.5 -26t18 -18.5t32 -19v-8h-218v8q20 11 31 19t18.5 18.5t10.5 26t3 40.5v476z" />
    <glyph glyph-name="J" unicode="J" horiz-adv-x="576" 
d="M388 216v372q0 25 -3.5 40.5t-10.5 26t-18 18.5t-32 19v8h218v-8q-20 -11 -31 -19t-18.5 -18.5t-10.5 -26t-3 -40.5v-377q0 -51 -17 -92.5t-48 -70t-73 -43.5t-92 -15q-47 0 -88 13.5t-71 37.5t-46 56t-16 69q0 22 7 40.5t20 31.5t30.5 20t36.5 7q8 0 15 -1t13 -3
t11.5 -5t9.5 -7q-12 -8 -21 -16.5t-15.5 -20.5t-10 -26.5t-3.5 -33.5q0 -27 9 -49.5t26.5 -39t41 -25.5t51.5 -9q36 0 62.5 13t43.5 37.5t25 59t8 77.5z" />
    <glyph glyph-name="K" unicode="K" horiz-adv-x="733" 
d="M265 0h-218v8q20 11 31 19t18.5 18.5t10.5 26t3 40.5v476q0 25 -3 40.5t-10.5 26t-18.5 18.5t-31 19v8h218v-8q-21 -11 -32 -19t-18 -18.5t-10.5 -26t-3.5 -40.5v-259l305 284q5 5 9 10t6.5 9.5t3.5 8.5t1 9q0 6 -3 11t-8.5 10t-12.5 9.5t-19 11.5v8h207v-8
q-25 -12 -45 -23.5t-38 -23.5t-35 -26t-35 -31l-192 -178l252 -298q17 -19 32.5 -35t30.5 -29t30.5 -23t31.5 -17v-8h-222v8q9 5 13.5 8t8.5 7t6.5 8.5t2.5 9.5t-1.5 9.5t-4 9.5t-6.5 10.5t-12 15.5l-227 266l-79 -71v-169q0 -25 3.5 -40.5t10.5 -26t18 -18.5t32 -19v-8z
" />
    <glyph glyph-name="L" unicode="L" horiz-adv-x="630" 
d="M201 588v-549h173q42 0 71 8t52 25.5t44.5 45.5t52.5 76h8l-37 -194h-518v8q20 11 31 19t18.5 18.5t10.5 26t3 40.5v476q0 25 -3 40.5t-10.5 26t-18.5 18.5t-31 19v8h218v-8q-21 -11 -32 -19t-18 -18.5t-10.5 -26t-3.5 -40.5z" />
    <glyph glyph-name="M" unicode="M" horiz-adv-x="921" 
d="M471 153l230 547h173v-8q-20 -11 -31 -19t-18.5 -18.5t-10.5 -26t-3 -40.5v-476q0 -25 3 -40.5t10.5 -26t18.5 -18.5t31 -19v-8h-217v8q20 11 31 19t18.5 18.5t10.5 26t3 40.5v524l-277 -647h-4l-280 647v-523q0 -24 5 -40t14 -26.5t20.5 -18t35.5 -20.5v-8h-198v8
q24 13 35 20.5t20 18t14 26.5t5 40v475q0 25 -3 40.5t-10.5 26t-18.5 18.5t-31 19v8h187z" />
    <glyph glyph-name="N" unicode="N" horiz-adv-x="780" 
d="M626 182v405q0 24 -5 40t-14 26.5t-20.5 18t-35.5 20.5v8h198v-8q-24 -13 -35 -20.5t-20 -18t-14 -26.5t-5 -40v-595h-14l-502 625v-504q0 -24 5 -40t14 -26.5t20.5 -18t35.5 -20.5v-8h-198v8q24 13 35 20.5t20 18t14 26.5t5 40v475q0 25 -3 40.5t-10.5 26t-18.5 18.5
t-31 19v8h165z" />
    <glyph glyph-name="O" unicode="O" horiz-adv-x="788" 
d="M47 350q0 78 25.5 144t72.5 114.5t111 75t138 26.5t138 -26.5t111 -75t72.5 -114.5t25.5 -144t-25.5 -144t-72.5 -114.5t-111 -75t-138 -26.5t-138 26.5t-111 75t-72.5 114.5t-25.5 144zM638 350q0 70 -16.5 128.5t-48.5 100t-77.5 64t-101.5 22.5t-101.5 -22.5
t-77.5 -64t-48.5 -100t-16.5 -128.5t16.5 -128.5t48.5 -100t77.5 -64t101.5 -22.5t101.5 22.5t77.5 64t48.5 100t16.5 128.5z" />
    <glyph glyph-name="P" unicode="P" horiz-adv-x="644" 
d="M350 293h-149v-181q0 -24 5 -39.5t15.5 -26.5t25.5 -18.5t42 -19.5v-8h-242v8q20 11 31 19t18.5 18.5t10.5 26t3 40.5v476q0 25 -3 40.5t-10.5 26t-18.5 18.5t-31 19v8h303q62 0 110.5 -12.5t83.5 -38t53 -64t18 -89.5t-18.5 -89t-53.5 -63.5t-83.5 -38t-109.5 -12.5z
M201 332h132q46 0 81 10t58.5 30t35 51t11.5 73q0 43 -11.5 74t-35 51t-58.5 30t-81 10h-132v-329z" />
    <glyph glyph-name="Q" unicode="Q" horiz-adv-x="788" 
d="M638 -120q-25 0 -46 10t-37.5 27t-30 38.5t-26.5 49.5q-12 -4 -24.5 -6.5t-25.5 -4.5t-26.5 -3t-27.5 -1q-74 0 -138 26.5t-111 75t-72.5 114.5t-25.5 144t25.5 144t72.5 114.5t111 75t138 26.5t138 -26.5t111 -75t72.5 -114.5t25.5 -144q0 -53 -12 -101t-35 -88.5
t-55 -73t-72 -54.5q11 -21 21 -37t22 -28t27 -19t32 -7q11 0 20.5 2.5t18.5 8t16.5 14.5t14.5 22h12q-4 -27 -14 -48t-25 -34.5t-34 -20t-40 -6.5zM150 350q0 -44 6.5 -83.5t19.5 -73t31.5 -61t42.5 -47.5q3 30 13 56t27 46.5t42 32t56 11.5q29 0 51.5 -11.5t40 -31.5
t31.5 -43.5t30 -57.5q23 20 41 47.5t30.5 60.5t19 72t6.5 83q0 70 -16.5 128.5t-48.5 100t-77.5 64t-101.5 22.5t-101.5 -22.5t-77.5 -64t-48.5 -100t-16.5 -128.5zM394 35q11 0 22 1t21.5 3t20.5 4.5t20 6.5q-15 34 -26 55.5t-24 40t-29.5 29t-36.5 10.5q-18 0 -33.5 -9
t-27 -25t-17.5 -38t-6 -48q12 -7 25.5 -12.5t28.5 -9.5t30.5 -6t31.5 -2z" />
    <glyph glyph-name="R" unicode="R" horiz-adv-x="721" 
d="M201 661v-302h147q38 0 70 8t56 26t38 48t14 73q0 39 -12.5 67t-36.5 45.5t-56.5 26t-72.5 8.5h-147zM201 319v-207q0 -25 3.5 -40.5t10.5 -26t18 -18.5t32 -19v-8h-218v8q20 11 31 19t18.5 18.5t10.5 26t3 40.5v476q0 25 -3 40.5t-10.5 26t-18.5 18.5t-31 19v8h317
q56 0 103 -10t82.5 -32t55.5 -58t20 -85q0 -45 -17 -78.5t-46.5 -55t-66 -32t-77.5 -10.5v-3q33 -4 58 -14t44 -25.5t32 -37.5t22 -50l29 -84q9 -26 19.5 -44.5t24 -31t30 -22t40.5 -19.5v-8h-159q-7 15 -12.5 27t-10 23.5l-9 23t-12.5 34.5l-33 96q-11 32 -22 52.5
t-27.5 34.5t-40.5 21t-59 7h-131z" />
    <glyph glyph-name="S" unicode="S" horiz-adv-x="603" 
d="M291 669q-30 0 -55.5 -8t-45 -24t-30 -38t-10.5 -50t9 -49.5t26 -37.5t42 -27t58 -20l86 -23q43 -12 74.5 -28t53.5 -39t33.5 -55.5t11.5 -75.5q0 -49 -19.5 -87.5t-53.5 -64.5t-77.5 -39t-92.5 -13q-28 0 -55.5 5t-52 13.5t-43.5 18.5t-33 20l-45 -57h-9l-12 221h13
q23 -44 47.5 -77t53.5 -55t63 -33.5t73 -11.5q37 0 66.5 9.5t50 27.5t31.5 44.5t11 59.5q0 25 -7.5 46t-22.5 37t-37 27.5t-51 19.5l-92 25q-45 12 -79 28.5t-57.5 39t-35.5 53.5t-12 71q0 42 16 76.5t46.5 59.5t72 38.5t90.5 13.5q26 0 50.5 -4.5t45 -11t36.5 -14t34 -16.5
l44 46h8l1 -200h-10q-25 42 -45.5 70t-44 48t-53 30.5t-66.5 10.5z" />
    <glyph glyph-name="T" unicode="T" horiz-adv-x="733" 
d="M122 700h489q11 0 19.5 0.5t15.5 1.5t12.5 2t12.5 2l33 -188h-9q-32 48 -46.5 68t-34 38.5t-44.5 28.5t-59 10h-99v-550q0 -25 3.5 -40.5t12 -26.5t21.5 -19t36 -19v-8h-236v8q23 11 36 19t21 18.5t11.5 26.5t3.5 41v550h-98q-34 0 -59.5 -10t-45 -28.5t-34 -38.5
t-46.5 -68h-9l33 188q8 -1 13 -2t12 -2t15.5 -1.5t19.5 -0.5z" />
    <glyph glyph-name="U" unicode="U" horiz-adv-x="759" 
d="M612 587q0 24 -5 40t-14.5 26.5t-21 18t-35.5 20.5v8h199v-8q-23 -13 -34.5 -20.5t-20.5 -18t-13.5 -26.5t-4.5 -40v-319q0 -67 -20 -119.5t-57 -87.5t-87.5 -53t-110.5 -18q-73 0 -128 19.5t-91 56t-53.5 87.5t-17.5 115v320q0 25 -3.5 40.5t-10.5 26t-18 18.5t-32 19v8
h219v-8q-21 -11 -32 -19t-18 -18.5t-10.5 -26t-3.5 -40.5v-308q0 -59 14 -103.5t40.5 -74t64.5 -44.5t86 -15q50 0 90 14t69 42.5t44.5 73.5t15.5 106v308z" />
    <glyph glyph-name="V" unicode="V" horiz-adv-x="744" 
d="M394 138l203 458l6 13.5t3 8.5t1.5 7.5t0.5 8.5q0 8 -4 14.5t-11.5 13t-19 13.5t-29.5 17v8h188v-8q-18 -13 -29 -22t-20 -20t-17.5 -26t-19.5 -38l-272 -596h-5l-272 596q-10 23 -18.5 38t-17.5 26t-20 20t-29 22v8h218v-8q-16 -7 -26 -13t-16.5 -11.5t-9 -12
t-2.5 -14.5q0 -5 1 -9.5t2.5 -9t9.5 -24.5z" />
    <glyph glyph-name="W" unicode="W" horiz-adv-x="996" 
d="M685 -10l-189 547l-181 -547h-9l-211 596q-8 22 -16 37t-17 26t-20 20t-30 23v8h213v-8q-16 -7 -26 -13t-16 -11.5t-9 -12t-3 -14.5q0 -5 1 -9.5t2 -10t8 -25.5l150 -429l140 438q-6 16 -13 28t-15 21.5t-18.5 18t-25.5 19.5v8h212v-8q-16 -7 -26.5 -13t-17 -11.5
t-10 -12t-3.5 -14.5q0 -5 0.5 -10t2 -10.5t3.5 -11.5t4 -13l144 -435l144 433q2 7 3.5 12t2.5 9.5t1.5 8.5t0.5 9q0 8 -4 15t-12 13.5t-18.5 13t-29.5 17.5v8h189v-8q-20 -14 -31.5 -23t-21 -20.5t-18 -26.5t-15.5 -36l-206 -596h-9z" />
    <glyph glyph-name="X" unicode="X" horiz-adv-x="734" 
d="M192 8v-8h-181v8q18 11 33 22t28 23t25.5 26.5t28.5 34.5l192 246l-175 228q-14 19 -26 33t-24.5 26t-26.5 23t-32 22v8h214v-8q-9 -6 -14.5 -11t-8.5 -10.5t-4 -10.5t-1 -12q0 -6 1.5 -12t4 -12t6.5 -12.5t10 -13.5l135 -176l134 175q6 7 10 13.5t6.5 12t3.5 11t1 11.5
t-2.5 11.5t-7 10.5t-10.5 10l-18 15v8h177v-8q-18 -11 -32.5 -22t-27.5 -23.5t-25 -26.5t-26 -32l-157 -201l211 -275q14 -19 26 -33t24.5 -26t26.5 -23t32 -22v-8h-214v8q9 6 14.5 11t8.5 10.5t4 10.5t1 12q0 6 -1.5 12t-4 12t-6.5 12.5t-10 13.5l-171 223l-169 -220
q-6 -8 -10 -14t-6.5 -11.5t-3.5 -10.5t-1 -11t2.5 -12t7 -12t11.5 -12t17 -14z" />
    <glyph glyph-name="Y" unicode="Y" horiz-adv-x="676" 
d="M362 341l163 260q4 6 6.5 11.5t4.5 10.5t2.5 9.5t0.5 7.5q0 7 -3.5 13t-10 12t-15 12t-22.5 15v8h176v-8q-16 -12 -27.5 -22t-21.5 -21.5t-20.5 -26t-23.5 -34.5l-188 -296v-180q0 -25 3.5 -40.5t11.5 -26t21 -18.5t36 -19v-8h-234v8q23 11 36 19t21 18.5t11.5 26
t3.5 40.5v180l-188 296q-13 20 -23 34.5t-20.5 26t-22 22t-27.5 21.5v8h204v-8q-10 -6 -16 -11.5t-10 -11t-5.5 -11t-1.5 -12.5q0 -6 1 -11.5t2.5 -11t4.5 -11t7 -11.5z" />
    <glyph glyph-name="Z" unicode="Z" horiz-adv-x="698" 
d="M619 0h-573v4l461 656h-228q-41 0 -69 -8.5t-47.5 -24.5t-34 -36t-45.5 -67h-11l24 182q8 -1 13 -2t12 -2t15.5 -1.5t19.5 -0.5h481v-4l-459 -656h247q41 0 70 7t52 23t44 41t50 67h10z" />
    <glyph glyph-name="bracketleft" unicode="[" horiz-adv-x="325" 
d="M82 -154v903h207v-15l-136 -29v-814l136 -30v-15h-207z" />
    <glyph glyph-name="backslash" unicode="\" horiz-adv-x="396" 
d="M84 749l300 -902h-46l-300 902h46z" />
    <glyph glyph-name="bracketright" unicode="]" horiz-adv-x="325" 
d="M243 749v-903h-207v15l136 30v814l-136 29v15h207z" />
    <glyph glyph-name="asciicircum" unicode="^" horiz-adv-x="510" 
d="M253 710h4l203 -358h-54l-151 268l-151 -268h-54z" />
    <glyph glyph-name="underscore" unicode="_" horiz-adv-x="480" 
d="M50 -117v45h380v-45h-380z" />
    <glyph glyph-name="grave" unicode="`" horiz-adv-x="500" 
d="M161 749h111l67 -188h-19z" />
    <glyph glyph-name="a" unicode="a" horiz-adv-x="542" 
d="M360 255l-73 -15q-38 -8 -65.5 -17t-46.5 -22.5t-28.5 -32t-9.5 -44.5q0 -20 6 -35.5t17.5 -26t28 -15.5t36.5 -5q24 0 48 10.5t44 31t31.5 51t11.5 68.5v52zM545 23v-13q-9 -3 -19 -6t-21.5 -5.5t-24 -4t-24.5 -1.5q-23 0 -40 6.5t-28.5 19.5t-18 33t-7.5 47
q-8 -23 -24.5 -43t-39.5 -35t-51 -23t-58 -8t-56.5 8t-46 23.5t-30.5 39t-11 53.5q0 38 19 65.5t51 45.5t72 29t93 21l80 14v38q0 35 -6.5 59.5t-19.5 40t-33.5 23t-50.5 7.5q-22 0 -39.5 -5t-30 -15.5t-19 -24.5t-6.5 -32q0 -8 1 -15t3.5 -13t6 -11t7.5 -10q-4 -3 -9.5 -6
t-12 -5t-13.5 -3t-14 -1q-12 0 -22.5 3.5t-18 11t-11.5 18.5t-4 25q0 24 13.5 46t39 39t61.5 27t80 10q47 0 82.5 -10.5t59 -31.5t35 -52t11.5 -72q0 -30 -0.5 -58.5t-1 -67t-1 -58.5t-0.5 -40q0 -21 6 -36t17.5 -25t30 -15t44.5 -7z" />
    <glyph glyph-name="b" unicode="b" horiz-adv-x="616" 
d="M179 261v-66q0 -38 13 -67.5t34 -49t47 -29t52 -9.5q34 0 63 14t49.5 41.5t31.5 67t11 88.5q0 43 -10.5 78t-30.5 60.5t-48 39t-63 13.5q-33 0 -60.5 -14.5t-47.5 -40t-30.5 -58t-10.5 -68.5zM166 90q-4 -16 -11.5 -31t-17.5 -28t-22 -23t-25 -18h-12q5 21 7.5 46t3.5 52
t1.5 54t0.5 70v433q0 20 -5 34.5t-14 25t-19.5 18t-29.5 19.5v7h156v-383q9 27 25 51t39 41.5t52.5 27.5t63.5 10q46 0 85.5 -16.5t69 -48t45.5 -77.5t16 -103q0 -59 -18 -107.5t-50 -83t-73.5 -52.5t-88.5 -18q-33 0 -61.5 8t-51.5 22t-39.5 32t-26.5 38z" />
    <glyph glyph-name="c" unicode="c" horiz-adv-x="509" 
d="M288 456q-35 0 -63.5 -16t-48 -44t-30 -65.5t-10.5 -80.5q0 -47 11.5 -85.5t32.5 -65t51 -40.5t67 -14q27 0 50.5 7t43.5 21t35.5 35.5t26.5 49.5l19 -8q-8 -38 -25.5 -67.5t-43 -50t-59 -31.5t-73.5 -11q-49 0 -91 16.5t-73.5 48t-49 78t-17.5 103.5q0 58 19 106
t52.5 82.5t78.5 53t96 18.5q37 0 69.5 -9t56.5 -25.5t37 -39t13 -48.5q0 -17 -5.5 -29t-15 -19t-21 -10.5t-23.5 -3.5q-4 0 -7.5 0.5t-7 1.5t-6.5 2t-5 3q6 14 7 18.5t2 10.5t1 14q0 20 -5.5 37t-17.5 30t-29.5 20t-41.5 7z" />
    <glyph glyph-name="d" unicode="d" horiz-adv-x="618" 
d="M437 225v66q0 38 -13 68t-34.5 49.5t-47.5 29t-52 9.5q-34 0 -62.5 -14t-49 -41.5t-31.5 -66.5t-11 -88q0 -44 10.5 -79.5t30 -61t48 -39t63.5 -13.5q33 0 60.5 14.5t47.5 40t30.5 58t10.5 68.5zM440 0l-3 120q-9 -27 -25 -50.5t-39 -41.5t-52.5 -28t-63.5 -10
q-46 0 -85.5 16.5t-69 48.5t-45.5 78t-16 104t18 106t49.5 82.5t72.5 52.5t86 18q33 0 60.5 -7.5t49 -21t36.5 -31t24 -37.5v246q0 20 -5 34.5t-14 25t-19.5 18t-29.5 19.5v7h156v-640q0 -25 2.5 -40t9 -25t16 -17.5t28.5 -19.5v-7h-141z" />
    <glyph glyph-name="e" unicode="e" horiz-adv-x="530" 
d="M274 496q51 0 91.5 -16.5t68 -48t42 -77t14.5 -102.5h-355q0 -48 11.5 -86.5t33.5 -66t53.5 -41.5t70.5 -14q29 0 53.5 7t44.5 21t35.5 35.5t26.5 50.5l21 -7q-9 -38 -26.5 -68t-43.5 -51t-60.5 -31.5t-76.5 -10.5q-49 0 -92.5 16.5t-76 48.5t-50.5 78t-18 104t18 106
t50 82.5t74.5 52.5t90.5 18zM137 290h259q-1 34 -7 63.5t-20 52.5t-38 36.5t-58 13.5q-29 0 -53 -12t-41 -34t-28 -52.5t-14 -67.5z" />
    <glyph glyph-name="f" unicode="f" horiz-adv-x="358" 
d="M189 443v-341q0 -22 5 -36t16.5 -23.5t29 -16.5t49.5 -17v-9h-244v7q20 12 29.5 19.5t15.5 17.5t9 25t3 40v334h-70v27l70 20v70q0 44 13.5 80t39 61.5t60.5 38.5t78 13q30 0 56 -7t45.5 -19.5t30 -30t10.5 -37.5q0 -14 -5 -24.5t-13.5 -18t-20 -11t-24.5 -3.5
q-4 0 -7.5 0.5l-7 1t-6.5 1t-6 1.5q3 5 4.5 10.5t3 12t2 13t0.5 12.5q0 13 -4.5 25t-13 20.5t-22 13.5t-30.5 5q-22 0 -40 -9t-30.5 -26t-19 -42t-6.5 -57v-100h145l-5 -41h-140z" />
    <glyph glyph-name="g" unicode="g" horiz-adv-x="572" 
d="M364 335q0 30 -7 53.5t-20 39t-31.5 23.5t-41.5 8t-41.5 -8t-31.5 -23.5t-20 -39t-7 -53.5t7 -53.5t20 -39t31.5 -23.5t41.5 -8t41.5 8t31.5 23.5t20 39t7 53.5zM528 -49q0 -43 -21.5 -76t-58.5 -55.5t-85.5 -33.5t-101.5 -11q-48 0 -91 8t-76.5 24.5t-52.5 42t-19 59.5
q0 20 9 37.5t26.5 31.5t42.5 23.5t56 13.5q-21 4 -38.5 11t-30.5 17.5t-20.5 26t-7.5 35.5q0 18 6.5 33.5t18 28.5t26.5 22.5t32 16.5q-17 11 -30 25t-21.5 30.5t-13 35t-4.5 38.5q0 34 12.5 63t37 51t60.5 34.5t81 12.5q22 0 42 -3t37 -8.5t32 -13.5t27 -18
q11 14 22.5 26.5t24.5 22.5t28 15.5t30 5.5q14 0 25.5 -4t19.5 -12t12.5 -18.5t4.5 -23.5q0 -11 -4.5 -21t-12.5 -17.5t-18 -11.5t-21 -4q0 10 -2.5 19t-7.5 16t-12.5 10.5t-17.5 3.5q-7 0 -13.5 -2t-13 -5.5t-12.5 -8.5t-12 -12q9 -10 15 -21t10.5 -23.5t6.5 -25.5t2 -27
q0 -34 -12.5 -63t-37.5 -51t-61 -34.5t-81 -12.5q-15 0 -28.5 1.5t-26 4t-24 6t-21.5 8.5q-9 -5 -17 -10.5t-14 -12t-9 -14.5t-3 -17q0 -14 5 -23.5t14.5 -15.5t24.5 -8.5t35 -2.5h139q44 0 79 -8.5t59.5 -26t37.5 -44t13 -60.5zM334 8h-105q-31 -1 -55 -7.5t-39.5 -18.5
t-23.5 -28.5t-8 -38.5q0 -25 12 -44.5t34 -31.5t50.5 -18t61.5 -6q41 0 75.5 7.5t60 22t39.5 35.5t14 47q0 19 -6.5 34t-20.5 25.5t-36 16t-53 5.5z" />
    <glyph glyph-name="h" unicode="h" horiz-adv-x="608" 
d="M516 322v-213q0 -25 3 -40t9 -25t15.5 -17.5t29.5 -19.5v-7h-201v7q20 12 29.5 19.5t15.5 17.5t9 25t3 40v198q0 26 -5.5 48.5t-18 40.5t-32.5 28t-49 10q-28 0 -53.5 -11.5t-45 -34.5t-30.5 -56.5t-11 -75.5v-147q0 -25 3 -40t9 -25t15.5 -17.5t29.5 -19.5v-7h-201v7
q20 12 29.5 19.5t15.5 17.5t9 25t3 40v536q0 20 -5 34.5t-14 25t-19.5 18t-29.5 19.5v7h155v-384q11 31 28 55.5t39.5 41.5t50 25.5t58.5 8.5q38 0 67 -12t49 -34.5t30 -55t10 -72.5z" />
    <glyph glyph-name="i" unicode="i" horiz-adv-x="281" 
d="M77 656q0 13 4.5 24.5t13.5 20t20.5 13.5t24.5 5t24.5 -5t20 -13.5t13.5 -20t5 -24.5t-5 -24t-13.5 -19.5t-20 -13.5t-24.5 -5t-24.5 5t-20.5 13.5t-13.5 19.5t-4.5 24zM189 486v-377q0 -25 3 -40t9 -25t15.5 -17.5t29.5 -19.5v-7h-201v7q20 12 29.5 19.5t15.5 17.5t9 25
t3 40v274q0 19 -5 33.5t-13.5 25.5t-19.5 19t-29 19v6h154z" />
    <glyph glyph-name="j" unicode="j" horiz-adv-x="269" 
d="M72 656q0 13 4.5 24.5t13 20t20 13.5t24.5 5t24.5 -5t20.5 -13.5t13.5 -20t4.5 -24.5t-4.5 -24t-13.5 -19.5t-20.5 -13.5t-24.5 -5t-24.5 5t-20 13.5t-13 19.5t-4.5 24zM97 -60v443q0 20 -5 34t-14 25t-20 19t-29 19v6h155v-520q0 -45 -11 -80.5t-32.5 -60t-53 -37.5
t-71.5 -13q-29 0 -53 6t-41 18t-26.5 28t-9.5 36q0 14 5 25t14 18t20.5 10.5t25.5 3.5q3 0 6.5 -0.5l7 -1t6.5 -1t5 -1.5q-2 -5 -4 -10.5t-3 -11.5t-1.5 -12t-0.5 -12q0 -13 4 -24t11.5 -19.5t18 -13t23.5 -4.5q20 0 34 9.5t22.5 26.5t12.5 41t4 54z" />
    <glyph glyph-name="k" unicode="k" horiz-adv-x="581" 
d="M241 7v-7h-201v7q20 12 29.5 19.5t15.5 17.5t9 25t3 40v536q0 20 -5 34.5t-14 25t-19.5 18t-29.5 19.5v7h155v-463h24q10 0 17.5 1t13.5 3t11.5 5.5t10.5 8.5l118 110l9 9t6 7.5t3 6.5t1 7q0 5 -2 9.5t-6 8.5t-9 8.5t-13 9.5v6h190v-6q-20 -7 -37 -14t-33.5 -16.5
t-33 -22t-34.5 -28.5l-111 -105l160 -203q12 -16 25.5 -28t27.5 -21.5t29 -17t35 -16.5v-8h-172q-2 10 -5 18.5t-7 16.5t-10 16.5t-14 18.5l-124 159q-5 6 -9 10t-8 6.5t-9 3.5t-12 1h-32v-141q0 -25 3 -40t9 -25t15.5 -17.5t29.5 -19.5z" />
    <glyph glyph-name="l" unicode="l" horiz-adv-x="278" 
d="M184 749v-640q0 -25 3 -40t9 -25t15.5 -17.5t29.5 -19.5v-7h-201v7q20 12 29.5 19.5t15.5 17.5t9 25t3 40v536q0 20 -5 34.5t-14 25t-19.5 18t-29.5 19.5v7h155z" />
    <glyph glyph-name="m" unicode="m" horiz-adv-x="904" 
d="M499 362q10 31 26 56t38 42.5t48.5 26.5t56.5 9q35 0 62.5 -12t45.5 -34.5t27.5 -54.5t9.5 -72v-214q0 -25 2.5 -40t9 -25t16 -17.5t28.5 -19.5v-7h-201v7q20 12 29.5 19.5t15.5 17.5t9 25t3 40v197q0 27 -4.5 49.5t-15 40.5t-29 28.5t-44.5 10.5q-27 0 -50.5 -12
t-42 -35t-28.5 -56.5t-10 -75.5v-147q0 -25 3 -40t9 -25t15.5 -17.5t29.5 -19.5v-7h-201v7q19 12 28.5 19.5t16 17.5t9 25t2.5 40v197q0 27 -4.5 49.5t-15 40.5t-28.5 28.5t-45 10.5q-26 0 -50 -12t-42 -35t-28.5 -56.5t-10.5 -75.5v-147q0 -25 3 -40t9 -25t15.5 -17.5
t29.5 -19.5v-7h-201v7q20 12 29.5 19.5t15.5 17.5t9 25t3 40v274q0 19 -5 33.5t-13.5 25.5t-19.5 19t-29 19v6h150l4 -121q11 31 27 55.5t37 41.5t47 25.5t56 8.5q32 0 57 -9t43 -26.5t28.5 -42t14.5 -56.5z" />
    <glyph glyph-name="n" unicode="n" horiz-adv-x="613" 
d="M521 322v-213q0 -25 3 -40t9 -25t15.5 -17.5t29.5 -19.5v-7h-201v7q20 12 29.5 19.5t15.5 17.5t9 25t3 40v198q0 26 -5.5 48.5t-18 40.5t-32.5 28t-49 10q-28 0 -53.5 -11.5t-45 -34.5t-30.5 -56.5t-11 -75.5v-147q0 -25 3 -40t9 -25t15.5 -17.5t29.5 -19.5v-7h-201v7
q20 12 29.5 19.5t15.5 17.5t9 25t3 40v274q0 19 -5 33.5t-13.5 25.5t-19.5 19t-29 19v6h150l4 -121q11 31 28 55.5t39.5 41.5t50 25.5t58.5 8.5q38 0 67 -12t49 -34.5t30 -55t10 -72.5z" />
    <glyph glyph-name="o" unicode="o" horiz-adv-x="570" 
d="M529 243q0 -55 -18 -101.5t-51.5 -80.5t-78 -52.5t-96.5 -18.5t-96.5 18.5t-78 52.5t-51.5 80.5t-18 101.5t18 101.5t51.5 80.5t78 52.5t96.5 18.5t96.5 -18.5t78 -52.5t51.5 -80.5t18 -101.5zM432 243q0 49 -9.5 88.5t-28 67t-46 42t-63.5 14.5t-63.5 -14.5t-46 -42
t-28 -67t-9.5 -88.5t9.5 -88.5t28 -67t46 -42t63.5 -14.5t63.5 14.5t46 42t28 67t9.5 88.5z" />
    <glyph glyph-name="p" unicode="p" horiz-adv-x="621" 
d="M184 261v-66q0 -38 13 -67.5t34.5 -49t47.5 -29t52 -9.5q34 0 62.5 14t49 41.5t31.5 66.5t11 89q0 43 -10.5 78t-30 60.5t-48 39t-63.5 13.5q-33 0 -60.5 -14.5t-47.5 -40t-30.5 -58t-10.5 -68.5zM184 87v-193q0 -24 4.5 -39.5t13.5 -25.5t20.5 -16.5t38.5 -19.5v-8h-221
v7q20 12 29.5 19.5t15.5 17.5t9 25t3 40v489q0 19 -5 33.5t-13.5 25.5t-19.5 19t-29 19v6h150l4 -120q9 27 25 51t39.5 41.5t53 27.5t63.5 10q46 0 85.5 -16.5t69 -48t45.5 -77.5t16 -103q0 -58 -18 -106.5t-49.5 -83t-73 -53t-86.5 -18.5q-33 0 -60.5 7.5t-48.5 21t-36 31
t-25 37.5z" />
    <glyph glyph-name="q" unicode="q" horiz-adv-x="609" 
d="M449 396q4 16 11.5 31t18 28t22.5 23t25 18h12q-5 -21 -7.5 -46t-3.5 -52t-1.5 -54t-0.5 -70v-380q0 -25 2.5 -40t9 -25t16 -17.5t28.5 -19.5v-7h-221v9q33 17 42 22t17.5 14.5t13 24.5t4.5 39v226q-9 -27 -25 -50.5t-39 -41.5t-52.5 -28t-63.5 -10q-46 0 -85.5 16.5
t-69 48.5t-45.5 78t-16 104t18 106t49.5 82.5t73.5 52.5t88 18q33 0 61.5 -8t52 -22t40 -32t25.5 -38zM437 225v66q0 38 -13 68t-34.5 49.5t-47.5 29t-52 9.5q-34 0 -62.5 -14t-49 -41.5t-31.5 -66.5t-11 -88q0 -44 10.5 -79.5t30 -61t48 -39t63.5 -13.5q33 0 60.5 14.5
t47.5 40t30.5 58t10.5 68.5z" />
    <glyph glyph-name="r" unicode="r" horiz-adv-x="450" 
d="M189 227v-125q0 -22 5 -36t15.5 -23.5t28 -16.5t48.5 -17v-9h-241v7q20 12 29.5 19.5t15.5 17.5t9 25t3 40v274q0 19 -5 33.5t-13.5 25.5t-19.5 19t-29 19v6h150l4 -139q10 31 24.5 57.5t34 47t44.5 32.5t56 12q19 0 34.5 -5t26 -14.5t16 -23t5.5 -29.5q0 -15 -5 -27
t-14 -20.5t-20.5 -13t-23.5 -4.5q1 15 -2 26.5t-10 20t-17.5 13t-25.5 4.5q-25 0 -47.5 -15.5t-39.5 -42.5t-26.5 -63t-9.5 -75z" />
    <glyph glyph-name="s" unicode="s" horiz-adv-x="489" 
d="M231 455q-22 0 -39.5 -5.5t-29.5 -15t-18 -23.5t-6 -30q0 -18 6.5 -31.5t21 -24t37 -18t55.5 -14.5q49 -9 83 -22.5t55 -31t31 -41.5t10 -55q0 -34 -14 -62.5t-39 -48.5t-59 -31t-73 -11q-23 0 -44 3.5t-39.5 10t-34 14t-29.5 15.5l-35 -43h-8l-11 185h14
q19 -36 40 -62.5t44 -44.5t49 -27t54 -9q23 0 43 5.5t34.5 16t22.5 27t8 38.5q0 21 -8 35.5t-24 24.5t-39.5 16.5t-57.5 13.5q-47 9 -78.5 22t-51 30.5t-28.5 40.5t-9 53q0 31 12.5 57t35 45t53 29t65.5 10q21 0 40 -3t35.5 -8.5t31 -12.5t28.5 -16l38 40h7v-165h-11
q-18 28 -36 50t-38.5 39t-44 26t-49.5 9z" />
    <glyph glyph-name="t" unicode="t" horiz-adv-x="415" 
d="M22 443v26q31 6 54.5 21t40 38t27.5 53.5t17 68.5h28v-166h173l-5 -41h-168v-306q0 -22 5 -38.5t15 -28t24.5 -17t33.5 -5.5q20 0 36 6.5t28.5 19.5t21.5 33.5t14 47.5l20 -4q-3 -36 -13.5 -65.5t-29.5 -51t-45.5 -33t-59.5 -11.5q-31 0 -56.5 9t-44 26.5t-28.5 43
t-10 57.5l1 317h-79z" />
    <glyph glyph-name="u" unicode="u" horiz-adv-x="598" 
d="M179 486v-306q0 -26 5.5 -49t18 -41t32.5 -28.5t48 -10.5q29 0 54 12t43.5 35t29 56.5t10.5 75.5v153q0 20 -5 34t-14 25t-20 19t-29 19v6h155v-377q0 -25 3 -40t9 -25t15.5 -17.5t29.5 -19.5v-7h-144v123q-10 -32 -26.5 -57t-38.5 -42t-49 -25.5t-59 -8.5q-37 0 -66 12
t-49 34.5t-30 54.5t-10 72v220q0 19 -5 33.5t-13.5 25.5t-19.5 19t-29 19v6h154z" />
    <glyph glyph-name="v" unicode="v" horiz-adv-x="521" 
d="M284 125l114 251q5 11 8.5 18.5t5 13.5t2 11t0.5 10q0 7 -4 13.5t-11 12.5t-14.5 11t-22.5 14v6h162v-6q-13 -10 -23 -20.5t-19.5 -23t-19 -29.5t-20.5 -39l-179 -378h-5l-179 378q-11 22 -20.5 39t-19 29.5t-19.5 23t-23 20.5v6h185v-6q-12 -8 -17.5 -12t-10 -8.5
t-6.5 -9.5t-2 -11q0 -5 1.5 -11t4 -13.5t6 -16t8.5 -20.5z" />
    <glyph glyph-name="w" unicode="w" horiz-adv-x="729" 
d="M495 -10l-131 366l-138 -366h-5l-146 378q-10 25 -18.5 41.5t-17 28t-18 20.5t-24.5 22v6h181v-6q-10 -7 -16 -11.5t-10 -9t-5.5 -9t-1.5 -10.5t1 -12.5t3 -13.5t4 -13t8 -23l88 -234l95 268q-5 12 -11 21t-13 17t-15.5 15t-20.5 15v6h176v-6q-10 -6 -16 -11t-10 -9.5
t-5.5 -9.5t-1.5 -10q0 -6 1 -12.5t3 -13.5t4 -13t8 -23l79 -237l91 234q9 26 10.5 31t2.5 9.5t1 9.5q0 7 -3.5 13.5t-10 13t-17 13t-25.5 15.5v6h161v-6q-14 -12 -23.5 -21t-18 -21t-17 -28.5t-18.5 -41.5l-155 -378h-5z" />
    <glyph glyph-name="x" unicode="x" horiz-adv-x="531" 
d="M166 7v-7h-166v7q19 8 36 19t32.5 24.5t30 30t30.5 37.5l95 124l-87 124q-18 27 -32 44t-27 29t-27 21t-35 20v6h197v-6q-6 -5 -10 -9t-6.5 -7.5t-4 -7.5t-1.5 -8q0 -6 2.5 -12.5t7 -14t2.5 -4.5t26 -39l56 -79l58 79q15 20 19 25.5t8 12t6 12.5t2 13q0 6 -2.5 11t-6.5 9
t-21 19v6h165v-6q-19 -8 -36.5 -19t-32.5 -25t-29.5 -30.5t-30.5 -37.5l-78 -100l104 -148q19 -27 31 -43t25 -28.5t28.5 -23t36.5 -18.5v-7h-197v7q6 4 10 8t6.5 7.5t4 7.5t1.5 8q0 6 -2.5 12.5t-7 14.5t-8 13.5t-20.5 29.5l-72 103l-75 -102q-11 -16 -16.5 -23.5t-9 -14
t-5 -12.5t-1.5 -12q0 -5 2 -10t5 -9.5t8 -9.5t12 -11z" />
    <glyph glyph-name="y" unicode="y" horiz-adv-x="517" 
d="M242 -2l-163 370q-10 22 -19.5 38.5t-19 29t-19.5 22.5t-24 22v6h186v-6q-10 -7 -16.5 -12t-11 -9.5t-6.5 -9t-2 -10.5t1.5 -12t3.5 -13t3 -8.5t12 -27.5l118 -280l111 276q4 11 7 18.5t4.5 13.5t2.5 11.5t1 11.5q0 7 -3.5 13t-10.5 12t-16 12t-23 14v6h162v-6
q-13 -12 -23 -22t-19 -22.5t-18 -29t-19 -38.5l-194 -457q-14 -35 -26.5 -58.5t-27.5 -41t-35.5 -27t-48.5 -9.5q-17 0 -32 5.5t-26 15t-17 22.5t-6 29q0 12 5 23t13.5 20t19.5 14.5t23 7.5q-1 -2 -1.5 -5.5t-1 -6.5t-1 -6.5t-0.5 -5.5q0 -10 3 -18.5t9 -15t14 -10t18 -3.5
q13 0 24 5.5t20.5 16.5t18 26.5t18.5 37.5z" />
    <glyph glyph-name="z" unicode="z" horiz-adv-x="521" 
d="M40 5l307 443h-124q-28 0 -47 -5.5t-34.5 -18.5t-30.5 -35t-38 -63h-10l15 170q6 -3 13 -4.5t15.5 -3t19 -2t23.5 -0.5h320v-4l-305 -444h144q28 0 47.5 5.5t36 19t34 37t41.5 64.5h12l-29 -164h-410v5z" />
    <glyph glyph-name="braceleft" unicode="{" horiz-adv-x="383" 
d="M28 288v17q26 1 48 8t39 23t27 42.5t10 65.5q0 14 -2 30t-6.5 43t-7 46t-2.5 36q0 31 12.5 58.5t36 48t56 32t71.5 11.5h11t11.5 -0.5t11.5 -1.5l12 -2v-9q-30 0 -57 -9t-47 -27t-31.5 -44.5t-11.5 -61.5q0 -11 2 -27t7 -45.5t7.5 -49t2.5 -34.5q0 -36 -13.5 -62.5
t-34.5 -43t-43 -25.5t-41 -11q19 -2 41 -10.5t43 -25.5t34.5 -43.5t13.5 -62.5q0 -15 -2.5 -34t-7.5 -48.5t-7 -45.5t-2 -27q0 -35 11.5 -62t31.5 -45t47 -27t57 -9v-9l-12 -2t-11.5 -1.5t-11.5 -0.5h-11q-39 0 -71.5 11.5t-56 32t-36 48t-12.5 59.5q0 17 2.5 36t7 45.5
t6.5 42.5t2 30q0 39 -10 66t-27 43t-39 23t-48 8z" />
    <glyph glyph-name="bar" unicode="|" horiz-adv-x="222" 
d="M90 -153v902h42v-902h-42z" />
    <glyph glyph-name="braceright" unicode="}" horiz-adv-x="375" 
d="M347 305v-17q-26 -1 -48 -8t-39 -23t-27 -43t-10 -66q0 -14 2 -30t6.5 -42.5t7 -45.5t2.5 -36q0 -32 -12.5 -59.5t-36 -48t-56 -32t-71.5 -11.5h-11t-11.5 0.5t-11.5 1.5l-12 2v9q30 0 57 9t47 27t31.5 45t11.5 62q0 11 -2 27t-7 45.5t-7.5 48.5t-2.5 34q0 36 13.5 62.5
t34.5 43.5t43 25.5t41 10.5q-19 2 -41 11t-43 25.5t-34.5 43t-13.5 62.5q0 15 2.5 34.5t7.5 49t7 45.5t2 27q0 35 -11.5 61.5t-31.5 44.5t-47 27t-57 9v9l12 2t11.5 1.5t11.5 0.5h11q39 0 71.5 -11.5t56 -32t36 -48t12.5 -58.5q0 -17 -2.5 -36t-7 -46t-6.5 -43t-2 -30
q0 -39 10 -65.5t27 -42.5t39 -23t48 -8z" />
    <glyph glyph-name="asciitilde" unicode="~" horiz-adv-x="498" 
d="M63 246h-13q9 30 21.5 53t28 38t34 22.5t39.5 7.5t40 -6.5t47 -19t46.5 -19t38.5 -6.5q15 0 28 3.5t24 10.5t20.5 17.5t17.5 24.5h13q-9 -30 -21 -53t-28 -38t-34.5 -22.5t-38.5 -7.5q-21 0 -40.5 6.5t-47 19t-46 19t-38.5 6.5q-16 0 -29 -3.5t-24 -10.5t-20.5 -17.5
t-17.5 -24.5z" />
    <glyph glyph-name="uni00A0" unicode="&#xa0;" horiz-adv-x="200" 
 />
    <glyph glyph-name="exclamdown" unicode="&#xa1;" horiz-adv-x="269" 
d="M135 560q14 0 26 -5t21.5 -14.5t14.5 -22t5 -26.5t-5 -26.5t-14.5 -22t-21.5 -14.5t-26 -5t-26.5 5t-22 14.5t-14.5 22t-5 26.5t5 26.5t14.5 22t22 14.5t26.5 5zM197 -149h-125l56 496h13z" />
    <glyph glyph-name="cent" unicode="&#xa2;" horiz-adv-x="549" 
d="M145 262q0 -42 8 -76.5t23.5 -61t38 -44.5t50.5 -27l35 429q-38 -2 -67 -19.5t-48.5 -47t-29.5 -69t-10 -84.5zM292 -10h-1l-9 -104h-31l9 106q-45 5 -83.5 24.5t-67 52.5t-44.5 78.5t-16 101.5q0 61 19.5 111.5t54 86.5t81 55t99.5 19l8 95h31l-8 -96q34 -3 63 -12.5
t50.5 -25.5t33 -37t11.5 -46q0 -18 -5.5 -30.5t-14.5 -19.5t-20.5 -10.5t-23.5 -3.5q-3 0 -7 0.5t-7.5 1.5t-6.5 2t-6 3q4 5 6 9.5t3.5 9.5t2.5 11t1 14q0 18 -5.5 34t-15.5 28.5t-26 20.5t-36 11l-36 -434q3 0 6 -0.5t5.5 -0.5h5h6.5q31 0 56.5 7.5t45.5 23t36 38.5t27 54
l20 -8q-9 -41 -27 -72.5t-45 -53.5t-62 -33t-77 -11z" />
    <glyph glyph-name="sterling" unicode="&#xa3;" horiz-adv-x="653" 
d="M475 -25q-35 0 -66.5 9.5t-59 24t-113.5 70.5q-14 -22 -30 -39t-33.5 -28t-35.5 -16.5t-36 -5.5q-20 0 -36.5 6t-28.5 17t-18.5 26t-6.5 33q0 20 7.5 36t21 28t32 18t40.5 6q11 0 23 -1.5t23.5 -4.5t23 -7t24.5 -9q3 10 5 21t3.5 22.5t2 24t0.5 25.5q0 11 -0.5 22.5
t-1 23.5t-1.5 24.5t-2 25.5h-115v37h112q-1 19 -2 33t-2 28.5t-1.5 29t-0.5 28.5q0 51 15 93t43 72t68.5 46t90.5 16q42 0 75 -10t55.5 -27t33.5 -39.5t11 -47.5q0 -20 -6 -36t-17 -27t-25 -16.5t-30 -5.5q-4 0 -8 0.5t-8.5 1t-9 2t-8.5 3.5q6 6 11 12t8.5 14.5t6 20.5
t2.5 28q0 20 -5.5 36t-16.5 28t-28.5 18.5t-40.5 6.5q-29 0 -51.5 -11.5t-37 -33.5t-22 -52t-7.5 -67v-129v-15h161v-37h-162q-2 -33 -6 -62.5t-9.5 -56t-13 -49t-16.5 -42.5q33 -15 54.5 -23.5t47.5 -16.5t55 -13t59 -5q22 0 41 5.5t34 17.5t25 32t14 47q7 -5 12.5 -11
t9.5 -14t6 -17.5t2 -21.5q0 -28 -10.5 -51t-30 -39t-45 -24t-55.5 -8zM101 27q14 0 27 4.5t25 14t22.5 24t18.5 32.5q-10 5 -20 8.5t-20 6t-20.5 4t-21.5 1.5q-13 0 -23.5 -3.5t-18 -9.5t-11.5 -15.5t-4 -21.5q0 -11 3.5 -19.5t9.5 -14t14.5 -8.5t18.5 -3z" />
    <glyph glyph-name="yen" unicode="&#xa5;" horiz-adv-x="667" 
d="M450 8v-8h-233v8q23 11 36 19t21 18.5t11.5 26t3.5 40.5v105h-202v35h202v40l-32 53h-170v36h149l-123 207q-11 19 -21 33t-21 26t-23 22.5t-28 22.5v8h204v-8q-10 -6 -16.5 -11.5t-10.5 -11t-5.5 -11t-1.5 -12.5q0 -5 1 -10.5t3 -11t4.5 -11.5t6.5 -12l153 -260l150 260
q4 6 6.5 11.5t4.5 11t3 11.5t1 11q0 7 -1.5 12.5t-5.5 11t-10 11t-16 11.5v8h157v-8q-16 -12 -28 -22t-22 -21.5t-20.5 -26t-22.5 -34.5l-123 -207h149v-36h-170l-32 -53v-40h202v-35h-202v-105q0 -25 3.5 -40.5t11.5 -26t21 -18.5t36 -19z" />
    <glyph glyph-name="section" unicode="&#xa7;" horiz-adv-x="552" 
d="M414 45q5 7 9.5 14.5t8 16t5 19t1.5 21.5q0 17 -3.5 31.5t-10.5 28.5t-18.5 27t-28.5 27l-171 138q-12 10 -21.5 18.5t-17.5 17t-15 17.5t-14 19q-6 -6 -10.5 -14t-7.5 -16.5t-4.5 -19t-1.5 -21.5q0 -17 3.5 -31.5t10.5 -28.5t18.5 -27.5t28.5 -26.5l171 -138
q12 -10 21.5 -18.5t17.5 -17t15 -17.5t14 -19zM427 29q5 -10 8.5 -20t6 -21t4 -22.5t1.5 -23.5q0 -34 -13.5 -64.5t-38 -53.5t-59 -36t-74.5 -13q-35 0 -66.5 10t-55 27.5t-36.5 40.5t-13 48q0 17 5.5 30t14.5 22.5t21 14t26 4.5q6 0 12 -0.5t11 -1.5t9.5 -2t8.5 -3l-12 -12
t-8.5 -11t-7.5 -17.5t-3 -23.5q0 -18 6.5 -34t19 -27.5t30 -18t39.5 -6.5q28 0 50 8t36.5 23t22 35t7.5 44q0 22 -5.5 39t-16 31t-24.5 27t-37 31l-153 122q-21 17 -36 35t-24.5 37t-14 38.5t-4.5 39.5q0 19 4.5 37t12.5 35t19.5 32t24.5 27q-5 10 -8.5 20t-6 21t-4 22.5
t-1.5 23.5q0 34 13 64.5t38 53.5t59 36t74 13q35 0 66.5 -10t55 -27.5t36.5 -40.5t13 -48q0 -17 -5 -30t-14.5 -22.5t-21.5 -14t-26 -4.5q-6 0 -11.5 0.5t-10.5 1.5l-10 2t-9 3q7 6 12 11t9.5 12t7 17.5t2.5 23.5q0 18 -6.5 34t-18.5 27.5t-30 18t-40 6.5q-28 0 -49.5 -8
t-36.5 -23t-22.5 -35t-7.5 -44q0 -21 5.5 -38.5t16 -31.5t24.5 -26.5t37 -31.5l154 -122q21 -17 36 -35t24.5 -37t14 -38.5t4.5 -39.5q0 -19 -4.5 -37t-12.5 -35t-19.5 -32t-24.5 -27z" />
    <glyph glyph-name="dieresis" unicode="&#xa8;" horiz-adv-x="500" 
d="M160 580q-12 0 -23 4.5t-19 13t-12.5 19.5t-4.5 23t4.5 22.5t12.5 19t19 13t23 4.5t23 -4.5t19 -13t12.5 -19t4.5 -22.5t-4.5 -23t-12.5 -19.5t-19 -13t-23 -4.5zM340 580q-12 0 -23 4.5t-19.5 13t-13 19.5t-4.5 23t4.5 22.5t13 19t19.5 13t23 4.5t23 -4.5t19 -13
t12.5 -19t4.5 -22.5t-4.5 -23t-12.5 -19.5t-19 -13t-23 -4.5z" />
    <glyph glyph-name="copyright" unicode="&#xa9;" horiz-adv-x="810" 
d="M765 350q0 -77 -27.5 -143t-77.5 -115t-115.5 -75.5t-139.5 -26.5t-139.5 26.5t-115.5 75.5t-77.5 115t-27.5 143t27.5 143t77.5 115t115.5 75.5t139.5 26.5t139.5 -26.5t115.5 -75.5t77.5 -115t27.5 -143zM734 350q0 70 -25.5 131t-71 105.5t-105.5 69t-127 24.5
t-127 -24.5t-105.5 -69t-71 -105.5t-25.5 -131t25.5 -131t71 -105.5t105.5 -69t127 -24.5t127 24.5t105.5 69t71 105.5t25.5 131zM284 354q0 -42 11.5 -75t32 -55.5t48 -33.5t60.5 -11q23 0 42.5 4.5t36 14.5t31 27t26.5 42l13 -5q-8 -30 -23 -54t-37 -41.5t-50.5 -26.5
t-62.5 -9q-44 0 -82 15.5t-66 45t-43.5 69.5t-15.5 87t16 87t45 69.5t68.5 45.5t84.5 16q18 0 34 -2.5t29.5 -7t25 -11t21.5 -13.5l32 34h4v-134h-8q-13 24 -26.5 42.5t-29 32t-35 21t-42.5 7.5q-32 0 -58 -13t-44.5 -37t-28 -57.5t-9.5 -73.5z" />
    <glyph glyph-name="ordfeminine" unicode="&#xaa;" horiz-adv-x="456" 
d="M279 463l-47 -10q-24 -5 -41.5 -11.5t-29.5 -15.5t-18 -21.5t-6 -29.5q0 -14 4 -24.5t11.5 -17.5t18 -10.5t23.5 -3.5q16 0 31 7t27.5 20.5t19.5 33.5t7 45v38zM281 352q-6 -16 -17 -30t-27 -24t-35.5 -15.5t-40.5 -5.5t-39.5 5.5t-32.5 16.5t-22 27.5t-8 37.5
q0 27 13.5 46.5t36 32t50.5 20t65 14.5l55 10v31q0 23 -4 39t-12 27t-21.5 16t-33.5 5q-15 0 -26.5 -3.5t-19.5 -10t-12 -16.5t-4 -22q0 -6 1 -11.5t3 -10t5 -8t6 -6.5q-3 -3 -7.5 -5.5t-10 -4t-11.5 -2.5t-12 -1q-10 0 -18.5 3t-14.5 8.5t-9 13.5t-3 18q0 18 9.5 33.5
t28 27.5t45 18.5t58.5 6.5q35 0 61.5 -7.5t44 -22t26.5 -36.5t9 -51q0 -19 -0.5 -37.5t-1 -44.5t-0.5 -41v-30q0 -16 4 -27t12 -18t21 -11.5t31 -6.5v-8q-6 -2 -14 -4.5t-17.5 -4.5t-19 -3t-19.5 -1q-17 0 -30 4t-22 13t-14 23t-6 33zM86 155v38h300v-38h-300z" />
    <glyph glyph-name="guillemotleft" unicode="&#xab;" horiz-adv-x="622" 
d="M62 240v8q34 19 67 42t64.5 49.5t61.5 55.5t59 60h17q-15 -30 -33.5 -59.5t-37.5 -56.5t-37.5 -50.5t-35.5 -44.5q17 -21 35.5 -44.5t37.5 -50.5t37.5 -56.5t33.5 -59.5h-17q-29 31 -59 60t-61.5 55.5t-64.5 49.5t-67 42zM304 240v8q34 19 67 42t64.5 49.5t61.5 55.5
t59 60h17q-15 -30 -33.5 -59.5t-37.5 -56.5t-37.5 -50.5t-35.5 -44.5q17 -21 35.5 -44.5t37.5 -50.5t37.5 -56.5t33.5 -59.5h-17q-29 31 -59 60t-61.5 55.5t-64.5 49.5t-67 42z" />
    <glyph glyph-name="registered" unicode="&#xae;" horiz-adv-x="542" 
d="M487 494q0 -46 -16.5 -85.5t-46.5 -69t-69.5 -45.5t-83.5 -16t-83.5 16t-69.5 45.5t-46.5 69t-16.5 85.5t16.5 85.5t46.5 69t69.5 45.5t83.5 16t83.5 -16t69.5 -45.5t46.5 -69t16.5 -85.5zM462 494q0 41 -14.5 76.5t-41 61.5t-61.5 40t-74 14t-74 -14t-61.5 -40
t-41 -61.5t-14.5 -76.5t14.5 -76.5t41 -61.5t61.5 -40t74 -14t74 14t61.5 40t41 61.5t14.5 76.5zM232 594v-91h27q14 0 24.5 1.5t18.5 6.5t12.5 14.5t4.5 23.5q0 13 -4.5 22t-12 14t-18.5 7t-25 2h-27zM232 481v-65q0 -9 1 -14t3.5 -8t5.5 -4t13 -7v-6h-89v6q13 7 14.5 8
t4 3.5t4 8t1.5 13.5v159q0 8 -1.5 13.5t-4 8t-4 3.5t-14.5 8v6h110q19 0 35 -3.5t28 -11.5t18.5 -20.5t6.5 -29.5q0 -14 -6 -25.5t-16.5 -19t-23.5 -11t-27 -3.5v-1q12 -1 20.5 -4t15.5 -8.5t12 -12.5t8 -17l9 -27q3 -9 6.5 -15t7.5 -9.5t9.5 -6t14.5 -6.5v-6h-65q-3 5 -5 9
t-3.5 8t-3 9t-4.5 12l-11 31q-3 10 -6.5 16.5t-9 10.5t-13 6t-19.5 2h-22z" />
    <glyph glyph-name="macron" unicode="&#xaf;" horiz-adv-x="500" 
d="M388 590h-276v55h276v-55z" />
    <glyph glyph-name="degree" unicode="&#xb0;" horiz-adv-x="352" 
d="M303 583q0 -26 -10 -49t-27.5 -40.5t-40.5 -27.5t-49 -10t-49 10t-40.5 27.5t-27.5 40.5t-10 49t10 49t27.5 40.5t40.5 27.5t49 10t49 -10t40.5 -27.5t27.5 -40.5t10 -49zM89 583q0 -18 6.5 -34t18.5 -28.5t28 -19t34 -6.5t34 6.5t28.5 19t19 28.5t6.5 34t-6.5 34
t-19 28.5t-28.5 19t-34 6.5t-34 -6.5t-28 -19t-18.5 -28.5t-6.5 -34z" />
    <glyph glyph-name="plusminus" unicode="&#xb1;" horiz-adv-x="609" 
d="M535 379h-207v-180h-46v180h-208v47h208v177h46v-177h207v-47zM74 103v48h461v-48h-461z" />
    <glyph glyph-name="twosuperior" unicode="&#xb2;" horiz-adv-x="373" 
d="M103 363l118 2q25 0 38 1.5t23 6t19 14.5t20 28h9l-13 -113h-291v3l89 96q27 28 46 50t35.5 47t26.5 51.5t10 53.5q0 17 -4.5 31t-12.5 23.5t-20.5 15t-28.5 5.5q-14 0 -25 -5t-19 -14t-12 -21t-4 -26q0 -10 1 -19t4.5 -17t7.5 -14t10 -10q-2 -2 -5.5 -3l-7 -2t-8 -1.5
t-8.5 -0.5q-13 0 -24 4.5t-19 12.5t-12.5 19.5t-4.5 25.5q0 21 9 39t26 31.5t40 21t51 7.5q29 0 55 -7t45.5 -21.5t31 -37t11.5 -51.5q0 -30 -13 -56t-38 -51t-60.5 -51.5t-95.5 -67.5z" />
    <glyph glyph-name="threesuperior" unicode="&#xb3;" horiz-adv-x="382" 
d="M181 296q-28 0 -53 6.5t-45 19t-31 30t-11 39.5q0 14 5 25.5t13.5 20t20 12.5t24.5 4q5 0 9 -0.5t7.5 -1.5t6.5 -2t6 -3q-5 -6 -9 -11.5t-6.5 -12t-4 -14.5t-1.5 -17q0 -17 5 -29.5t14 -20.5t21.5 -12t28.5 -4q17 0 31.5 5.5t24.5 16.5t15.5 27t5.5 37q0 23 -6 41t-18 30
t-29.5 18t-40.5 6v21q21 1 37 6t26.5 15t15.5 24.5t5 34.5q0 17 -4 30t-12.5 22t-20.5 13.5t-27 4.5t-26 -4t-19 -11.5t-12 -19t-4 -25.5q0 -9 1.5 -17t4.5 -14t7 -11t10 -9q-3 -2 -6 -3.5t-6.5 -2t-7.5 -1t-8 -0.5q-12 0 -22.5 4t-18 11.5t-12 18.5t-4.5 24q0 19 9 35
t25 28.5t39 19t50 6.5q29 0 54 -6.5t44 -19t29.5 -31t10.5 -42.5q0 -20 -8 -36t-22.5 -27.5t-33 -17.5t-38.5 -8v-1q26 -1 47.5 -9.5t37 -22.5t24 -32.5t8.5 -41.5q0 -28 -12 -50t-33.5 -36.5t-49.5 -21.5t-61 -7z" />
    <glyph glyph-name="acute" unicode="&#xb4;" horiz-adv-x="500" 
d="M228 749h111l-159 -188h-19z" />
    <glyph glyph-name="paragraph" unicode="&#xb6;" horiz-adv-x="634" 
d="M335 -214v495q-62 0 -116.5 13t-96.5 39.5t-66 66t-24 90.5t24 91t66 66.5t96.5 39.5t116.5 13h248v-8q-20 -11 -30.5 -19t-17 -18.5t-9 -26t-2.5 -40.5v-802h-46v881h-97v-881h-46z" />
    <glyph glyph-name="periodcentered" unicode="&#xb7;" horiz-adv-x="256" 
d="M196 274q0 -14 -5.5 -26.5t-15 -22t-21.5 -14.5t-26 -5t-26.5 5t-22 14.5t-14.5 22t-5 26.5t5 26.5t14.5 22t22 14.5t26.5 5t26 -5t21.5 -14.5t15 -22t5.5 -26.5z" />
    <glyph glyph-name="cedilla" unicode="&#xb8;" horiz-adv-x="500" 
d="M139 -169l15 20q8 -9 17 -16t19 -11.5t20.5 -6.5t22.5 -2t22 3t17.5 8.5t11.5 14.5t4 21q0 14 -6 24.5t-18 17.5t-30 11t-42 5l47 100h37l-35 -77q26 -1 48.5 -6.5t38.5 -16t25 -25.5t9 -33q0 -19 -8.5 -35t-24.5 -27t-36.5 -16.5t-44.5 -5.5q-19 0 -36 4t-31 11
t-25 16.5t-17 21.5z" />
    <glyph glyph-name="onesuperior" unicode="&#xb9;" horiz-adv-x="267" 
d="M242 302h-216v12q47 17 55 21.5t12 11t4 16.5v273q0 11 -4 17.5t-12 11t-57 24.5v11h147v-337q0 -10 4 -16.5t12 -11t55 -21.5v-12z" />
    <glyph glyph-name="ordmasculine" unicode="&#xba;" horiz-adv-x="459" 
d="M406 455q0 -39 -13 -71.5t-37 -56.5t-56.5 -37t-69.5 -13t-69.5 13t-56.5 37t-37.5 56.5t-13.5 71.5t13.5 71.5t37.5 56.5t56.5 37t69.5 13t69.5 -13t56.5 -37t37 -56.5t13 -71.5zM323 455q0 36 -5.5 63.5t-17.5 46.5t-29.5 29t-40.5 10t-40.5 -10t-29.5 -29t-17.5 -46.5
t-5.5 -63.5t5.5 -63.5t17.5 -46.5t29.5 -29t40.5 -10t40.5 10t29.5 29t17.5 46.5t5.5 63.5zM80 155v38h300v-38h-300z" />
    <glyph glyph-name="guillemotright" unicode="&#xbb;" horiz-adv-x="622" 
d="M318 248v-8q-34 -19 -67 -42t-64.5 -49.5t-61.5 -55.5t-59 -60h-17q15 30 33.5 59.5t37.5 56.5t37.5 50.5t35.5 44.5q-17 21 -35.5 44.5t-37.5 50.5t-37.5 56.5t-33.5 59.5h17q29 -31 59 -60t61.5 -55.5t64.5 -49.5t67 -42zM560 248v-8q-34 -19 -67 -42t-64.5 -49.5
t-61.5 -55.5t-59 -60h-17q15 30 33.5 59.5t37.5 56.5t37.5 50.5t35.5 44.5q-17 21 -35.5 44.5t-37.5 50.5t-37.5 56.5t-33.5 59.5h17q29 -31 59 -60t61.5 -55.5t64.5 -49.5t67 -42z" />
    <glyph glyph-name="onequarter" unicode="&#xbc;" horiz-adv-x="827" 
d="M242 302h-216v12q47 17 55 21.5t12 11t4 16.5v273q0 11 -4 17.5t-12 11t-57 24.5v11h147v-337q0 -10 4 -16.5t12 -11t55 -21.5v-12zM182 -10h-47l438 720h47zM620 133v205l-145 -205h145zM720 108h-27v-42q0 -15 1.5 -23.5t4.5 -14t8.5 -10t16.5 -11.5v-7h-135v7
q11 7 16.5 11.5t8.5 10t4.5 14t1.5 23.5v42h-195l-2 2l207 288h63v-265h27q14 0 21.5 1t13 4.5t10 8.5t11.5 16h7v-86h-7l-12 16.5t-9.5 8.5t-13.5 4.5t-21 1.5z" />
    <glyph glyph-name="onehalf" unicode="&#xbd;" horiz-adv-x="827" 
d="M242 302h-216v12q47 17 55 21.5t12 11t4 16.5v273q0 11 -4 17.5t-12 11t-57 24.5v11h147v-337q0 -10 4 -16.5t12 -11t55 -21.5v-12zM182 -10h-47l438 720h47zM557 61l118 2q25 0 38 1.5t23 6t19 14.5t20 28h9l-13 -113h-291v3l89 96q27 28 46 50t35.5 47t26.5 51.5
t10 53.5q0 17 -4.5 31t-12.5 23.5t-20.5 15t-28.5 5.5q-14 0 -25 -5t-19 -14t-12 -21t-4 -26q0 -10 1 -19t4.5 -17t7.5 -14t10 -10q-2 -2 -5.5 -3l-7 -2t-8 -1.5t-8.5 -0.5q-13 0 -24 4.5t-19 12.5t-12.5 19.5t-4.5 25.5q0 21 9 39t26 31.5t40 21t51 7.5q29 0 55 -7
t45.5 -21.5t31 -37t11.5 -51.5q0 -30 -13 -56t-38 -51t-60.5 -51.5t-95.5 -67.5z" />
    <glyph glyph-name="threequarters" unicode="&#xbe;" horiz-adv-x="894" 
d="M181 296q-28 0 -53 6.5t-45 19t-31 30t-11 39.5q0 14 5 25.5t13.5 20t20 12.5t24.5 4q5 0 9 -0.5t7.5 -1.5t6.5 -2t6 -3q-5 -6 -9 -11.5t-6.5 -12t-4 -14.5t-1.5 -17q0 -17 5 -29.5t14 -20.5t21.5 -12t28.5 -4q17 0 31.5 5.5t24.5 16.5t15.5 27t5.5 37q0 23 -6 41t-18 30
t-29.5 18t-40.5 6v21q21 1 37 6t26.5 15t15.5 24.5t5 34.5q0 17 -4 30t-12.5 22t-20.5 13.5t-27 4.5t-26 -4t-19 -11.5t-12 -19t-4 -25.5q0 -9 1.5 -17t4.5 -14t7 -11t10 -9q-3 -2 -6 -3.5t-6.5 -2t-7.5 -1t-8 -0.5q-12 0 -22.5 4t-18 11.5t-12 18.5t-4.5 24q0 19 9 35
t25 28.5t39 19t50 6.5q29 0 54 -6.5t44 -19t29.5 -31t10.5 -42.5q0 -20 -8 -36t-22.5 -27.5t-33 -17.5t-38.5 -8v-1q26 -1 47.5 -9.5t37 -22.5t24 -32.5t8.5 -41.5q0 -28 -12 -50t-33.5 -36.5t-49.5 -21.5t-61 -7zM258 -10h-47l438 720h47zM696 133v205l-145 -205h145z
M796 108h-27v-42q0 -15 1.5 -23.5t4.5 -14t8.5 -10t16.5 -11.5v-7h-135v7q11 7 16.5 11.5t8.5 10t4.5 14t1.5 23.5v42h-195l-2 2l207 288h63v-265h27q14 0 21.5 1t13 4.5t10 8.5t11.5 16h7v-86h-7l-12 16.5t-9.5 8.5t-13.5 4.5t-21 1.5z" />
    <glyph glyph-name="questiondown" unicode="&#xbf;" horiz-adv-x="499" 
d="M201 492q0 14 5 26.5t14.5 22t21.5 14.5t26 5t26.5 -5t22 -14.5t14.5 -22t5 -26.5t-5 -26.5t-14.5 -22t-22 -14.5t-26.5 -5t-26 5t-21.5 14.5t-14.5 22t-5 26.5zM252 -120q29 0 51.5 8.5t37.5 24t23 36.5t8 45q0 10 -2 19.5t-5.5 18.5t-8 16.5t-9.5 13.5q3 2 6.5 3
t7.5 2.5t8.5 2t8.5 0.5q17 0 31.5 -5.5t25 -16t16 -26t5.5 -36.5q0 -28 -14.5 -54t-42 -46.5t-65.5 -32.5t-83 -12q-48 0 -86.5 14t-65.5 39t-41 58t-14 71q0 43 15.5 79t44 64t65.5 48t81 33v103h38v-181q-36 -7 -66 -20.5t-52.5 -34t-35 -47.5t-12.5 -61q0 -26 8.5 -49
t25 -40.5t41 -27t55.5 -9.5z" />
    <glyph glyph-name="Agrave" unicode="&#xc0;" horiz-adv-x="760" 
d="M355 565l-134 -293h270zM196 8v-8h-188v8q19 13 30 22.5t20.5 20t18.5 25.5t20 38l280 598h5l280 -598q11 -24 19.5 -38.5t17.5 -25.5t20 -20.5t28 -21.5v-8h-218v8q16 7 26.5 13t17 11.5t9 12t2.5 14.5q0 5 -1 9.5t-2.5 9.5t-4 10.5t-6.5 13.5l-60 129h-308l-58 -128
q-3 -7 -5.5 -13t-4 -10.5t-2 -9t-0.5 -9.5q0 -8 4 -14t11.5 -12t18.5 -12t30 -15zM224 933h120l58 -164h-19z" />
    <glyph glyph-name="Aacute" unicode="&#xc1;" horiz-adv-x="760" 
d="M355 565l-134 -293h270zM196 8v-8h-188v8q19 13 30 22.5t20.5 20t18.5 25.5t20 38l280 598h5l280 -598q11 -24 19.5 -38.5t17.5 -25.5t20 -20.5t28 -21.5v-8h-218v8q16 7 26.5 13t17 11.5t9 12t2.5 14.5q0 5 -1 9.5t-2.5 9.5t-4 10.5t-6.5 13.5l-60 129h-308l-58 -128
q-3 -7 -5.5 -13t-4 -10.5t-2 -9t-0.5 -9.5q0 -8 4 -14t11.5 -12t18.5 -12t30 -15zM418 933h120l-159 -164h-19z" />
    <glyph glyph-name="Acircumflex" unicode="&#xc2;" horiz-adv-x="760" 
d="M355 565l-134 -293h270zM196 8v-8h-188v8q19 13 30 22.5t20.5 20t18.5 25.5t20 38l280 598h5l280 -598q11 -24 19.5 -38.5t17.5 -25.5t20 -20.5t28 -21.5v-8h-218v8q16 7 26.5 13t17 11.5t9 12t2.5 14.5q0 5 -1 9.5t-2.5 9.5t-4 10.5t-6.5 13.5l-60 129h-308l-58 -128
q-3 -7 -5.5 -13t-4 -10.5t-2 -9t-0.5 -9.5q0 -8 4 -14t11.5 -12t18.5 -12t30 -15zM388 942q11 -21 28 -45t37.5 -49t42.5 -48t43 -42h-32q-20 11 -37 21t-32.5 21t-30 23t-28.5 26q-14 -14 -28.5 -26t-30 -23t-32.5 -21t-37 -21h-32q21 19 43 42t42.5 48t37.5 49t28 45h18z
" />
    <glyph glyph-name="Atilde" unicode="&#xc3;" horiz-adv-x="760" 
d="M355 565l-134 -293h270zM196 8v-8h-188v8q19 13 30 22.5t20.5 20t18.5 25.5t20 38l280 598h5l280 -598q11 -24 19.5 -38.5t17.5 -25.5t20 -20.5t28 -21.5v-8h-218v8q16 7 26.5 13t17 11.5t9 12t2.5 14.5q0 5 -1 9.5t-2.5 9.5t-4 10.5t-6.5 13.5l-60 129h-308l-58 -128
q-3 -7 -5.5 -13t-4 -10.5t-2 -9t-0.5 -9.5q0 -8 4 -14t11.5 -12t18.5 -12t30 -15zM223 776h-25q9 33 21 58.5t26 43t30 26.5t34 9t36.5 -8t43.5 -24.5t40 -24t30 -7.5t26 4.5t20 13.5t16.5 21t15.5 29h25q-9 -33 -21 -58t-26 -42.5t-30 -26.5t-34 -9t-36.5 8t-43.5 24
t-40 23.5t-30 7.5t-26 -4.5t-20 -13.5t-16.5 -21t-15.5 -29z" />
    <glyph glyph-name="Adieresis" unicode="&#xc4;" horiz-adv-x="760" 
d="M355 565l-134 -293h270zM196 8v-8h-188v8q19 13 30 22.5t20.5 20t18.5 25.5t20 38l280 598h5l280 -598q11 -24 19.5 -38.5t17.5 -25.5t20 -20.5t28 -21.5v-8h-218v8q16 7 26.5 13t17 11.5t9 12t2.5 14.5q0 5 -1 9.5t-2.5 9.5t-4 10.5t-6.5 13.5l-60 129h-308l-58 -128
q-3 -7 -5.5 -13t-4 -10.5t-2 -9t-0.5 -9.5q0 -8 4 -14t11.5 -12t18.5 -12t30 -15zM289 772q-12 0 -23 4.5t-19 13t-12.5 19.5t-4.5 23t4.5 22.5t12.5 19t19 13t23 4.5t23 -4.5t19 -13t12.5 -19t4.5 -22.5t-4.5 -23t-12.5 -19.5t-19 -13t-23 -4.5zM469 772q-12 0 -23 4.5
t-19.5 13t-13 19.5t-4.5 23t4.5 22.5t13 19t19.5 13t23 4.5t23 -4.5t19 -13t12.5 -19t4.5 -22.5t-4.5 -23t-12.5 -19.5t-19 -13t-23 -4.5z" />
    <glyph glyph-name="Aring" unicode="&#xc5;" horiz-adv-x="760" 
d="M355 565l-134 -293h270zM196 8v-8h-188v8q19 13 30 22.5t20.5 20t18.5 25.5t20 38l280 598h5l280 -598q11 -24 19.5 -38.5t17.5 -25.5t20 -20.5t28 -21.5v-8h-218v8q16 7 26.5 13t17 11.5t9 12t2.5 14.5q0 5 -1 9.5t-2.5 9.5t-4 10.5t-6.5 13.5l-60 129h-308l-58 -128
q-3 -7 -5.5 -13t-4 -10.5t-2 -9t-0.5 -9.5q0 -8 4 -14t11.5 -12t18.5 -12t30 -15zM272 844q0 21 8.5 40t23.5 34t34.5 23t40.5 8t40.5 -8t34.5 -23t23.5 -34t8.5 -40t-8.5 -40.5t-23.5 -34t-34.5 -23t-40.5 -8.5t-40.5 8.5t-34.5 23t-23.5 34t-8.5 40.5zM441 844
q0 14 -4.5 25.5t-12.5 20t-19.5 13t-25.5 4.5t-25.5 -4.5t-19.5 -13t-12.5 -20t-4.5 -25.5q0 -13 4.5 -24.5t12.5 -20t19.5 -13t25.5 -4.5t25.5 4.5t19.5 13t12.5 20t4.5 24.5z" />
    <glyph glyph-name="AE" unicode="&#xc6;" horiz-adv-x="1088" 
d="M300 304h241v349zM191 8v-8h-179v8q18 13 30.5 23t23.5 21t22.5 25.5t25.5 35.5l341 496q3 4 4.5 7.5t2.5 7t1.5 6.5t0.5 7q0 7 -4.5 14t-13 13.5t-18.5 12.5t-26 15v8h524q11 0 19.5 0.5t15.5 1.5t12.5 2t12.5 2l34 -159h-8q-32 38 -48.5 55.5t-37.5 31t-49.5 20.5
t-70.5 7h-174v-282h143q33 0 51.5 3t31 12.5t23 27.5t23.5 53h9v-231h-9q-13 35 -23.5 53.5t-23 27.5t-31 12t-51.5 3h-143v-301h197q41 0 70.5 7t52.5 22t43 39t47 64h8l-32 -171h-541v8q21 11 32 19t18 18.5t10.5 26t3.5 40.5v151h-269l-110 -159q-6 -8 -10 -14.5
t-7.5 -12.5t-5 -11.5t-1.5 -10.5q0 -7 2.5 -12t8 -10t15 -10.5t27.5 -14.5z" />
    <glyph glyph-name="Ccedilla" unicode="&#xc7;" horiz-adv-x="714" 
d="M266 -169l15 20q8 -9 17 -16t19 -11.5t20.5 -6.5t22.5 -2t22 3t17.5 8.5t11.5 14.5t4 21q0 14 -6 24.5t-18 17.5t-30 11t-42 5l33 72q-53 5 -100 24q-63 26 -109 74.5t-71 114.5t-25 145q0 77 26.5 143.5t74.5 115t113 75t139 26.5q29 0 55 -4t48 -11.5t40.5 -17.5
t34.5 -22l51 55h8v-211h-9q-22 38 -44.5 68t-49 52t-59 34.5t-70.5 12.5q-56 0 -103 -22.5t-81 -64t-52.5 -99t-18.5 -125.5q0 -71 20.5 -128t57.5 -96.5t84.5 -60t101.5 -20.5q40 0 74 9t63.5 28t54 49t44.5 73l17 -7q-12 -48 -36.5 -87t-59.5 -67t-80.5 -43t-99.5 -15h-2
l-21 -47q26 -1 48.5 -6.5t38.5 -16t25 -25.5t9 -33q0 -19 -8.5 -35t-24.5 -27t-36.5 -16.5t-44.5 -5.5q-19 0 -36 4t-31 11t-25 16.5t-17 21.5z" />
    <glyph glyph-name="Egrave" unicode="&#xc8;" horiz-adv-x="658" 
d="M176 933h120l58 -164h-19zM483 475v-231h-9q-14 35 -24 53.5t-22.5 27.5t-31 12t-51.5 3h-144v-301h198q41 0 70.5 7t52.5 22t43 39t47 64h8l-32 -171h-541v8q20 11 31 19t18.5 18.5t10.5 26t3 40.5v476q0 25 -3 40.5t-10.5 26t-18.5 18.5t-31 19v8h449q11 0 19.5 0.5
t15.5 1.5t12.5 2t12.5 2l34 -159h-8q-34 39 -49.5 56t-36.5 30.5t-49.5 20.5t-70.5 7h-175v-282h144q33 0 51 3t31 12.5t23 27.5t24 53h9z" />
    <glyph glyph-name="Eacute" unicode="&#xc9;" horiz-adv-x="658" 
d="M370 933h120l-159 -164h-19zM483 475v-231h-9q-14 35 -24 53.5t-22.5 27.5t-31 12t-51.5 3h-144v-301h198q41 0 70.5 7t52.5 22t43 39t47 64h8l-32 -171h-541v8q20 11 31 19t18.5 18.5t10.5 26t3 40.5v476q0 25 -3 40.5t-10.5 26t-18.5 18.5t-31 19v8h449q11 0 19.5 0.5
t15.5 1.5t12.5 2t12.5 2l34 -159h-8q-34 39 -49.5 56t-36.5 30.5t-49.5 20.5t-70.5 7h-175v-282h144q33 0 51 3t31 12.5t23 27.5t24 53h9z" />
    <glyph glyph-name="Ecircumflex" unicode="&#xca;" horiz-adv-x="658" 
d="M483 475v-231h-9q-14 35 -24 53.5t-22.5 27.5t-31 12t-51.5 3h-144v-301h198q41 0 70.5 7t52.5 22t43 39t47 64h8l-32 -171h-541v8q20 11 31 19t18.5 18.5t10.5 26t3 40.5v476q0 25 -3 40.5t-10.5 26t-18.5 18.5t-31 19v8h449q11 0 19.5 0.5t15.5 1.5t12.5 2t12.5 2
l34 -159h-8q-34 39 -49.5 56t-36.5 30.5t-49.5 20.5t-70.5 7h-175v-282h144q33 0 51 3t31 12.5t23 27.5t24 53h9zM341 950q11 -21 28 -45t37.5 -49t42.5 -48t43 -42h-32q-20 11 -37 21t-32.5 21t-30 23t-28.5 26q-14 -14 -28.5 -26t-30 -23t-32.5 -21t-37 -21h-32
q21 19 43 42t42.5 48t37.5 49t28 45h18z" />
    <glyph glyph-name="Edieresis" unicode="&#xcb;" horiz-adv-x="658" 
d="M242 780q-12 0 -23 4.5t-19 13t-12.5 19.5t-4.5 23t4.5 22.5t12.5 19t19 13t23 4.5t23 -4.5t19 -13t12.5 -19t4.5 -22.5t-4.5 -23t-12.5 -19.5t-19 -13t-23 -4.5zM422 780q-12 0 -23 4.5t-19.5 13t-13 19.5t-4.5 23t4.5 22.5t13 19t19.5 13t23 4.5t23 -4.5t19 -13
t12.5 -19t4.5 -22.5t-4.5 -23t-12.5 -19.5t-19 -13t-23 -4.5zM483 475v-231h-9q-14 35 -24 53.5t-22.5 27.5t-31 12t-51.5 3h-144v-301h198q41 0 70.5 7t52.5 22t43 39t47 64h8l-32 -171h-541v8q20 11 31 19t18.5 18.5t10.5 26t3 40.5v476q0 25 -3 40.5t-10.5 26t-18.5 18.5
t-31 19v8h449q11 0 19.5 0.5t15.5 1.5t12.5 2t12.5 2l34 -159h-8q-34 39 -49.5 56t-36.5 30.5t-49.5 20.5t-70.5 7h-175v-282h144q33 0 51 3t31 12.5t23 27.5t24 53h9z" />
    <glyph glyph-name="Igrave" unicode="&#xcc;" horiz-adv-x="312" 
d="M110 588q0 25 -3 40.5t-10.5 26t-18.5 18.5t-31 19v8h218v-8q-21 -11 -32 -19t-18 -18.5t-10.5 -26t-3.5 -40.5v-476q0 -25 3.5 -40.5t10.5 -26t18 -18.5t32 -19v-8h-218v8q20 11 31 19t18.5 18.5t10.5 26t3 40.5v476zM0 933h120l58 -164h-19z" />
    <glyph glyph-name="Iacute" unicode="&#xcd;" horiz-adv-x="312" 
d="M110 588q0 25 -3 40.5t-10.5 26t-18.5 18.5t-31 19v8h218v-8q-21 -11 -32 -19t-18 -18.5t-10.5 -26t-3.5 -40.5v-476q0 -25 3.5 -40.5t10.5 -26t18 -18.5t32 -19v-8h-218v8q20 11 31 19t18.5 18.5t10.5 26t3 40.5v476zM194 933h120l-159 -164h-19z" />
    <glyph glyph-name="Icircumflex" unicode="&#xce;" horiz-adv-x="312" 
d="M110 588q0 25 -3 40.5t-10.5 26t-18.5 18.5t-31 19v8h218v-8q-21 -11 -32 -19t-18 -18.5t-10.5 -26t-3.5 -40.5v-476q0 -25 3.5 -40.5t10.5 -26t18 -18.5t32 -19v-8h-218v8q20 11 31 19t18.5 18.5t10.5 26t3 40.5v476zM165 950q11 -21 28 -45t37.5 -49t42.5 -48t43 -42
h-32q-20 11 -37 21t-32.5 21t-30 23t-28.5 26q-14 -14 -28.5 -26t-30 -23t-32.5 -21t-37 -21h-32q21 19 43 42t42.5 48t37.5 49t28 45h18z" />
    <glyph glyph-name="Idieresis" unicode="&#xcf;" horiz-adv-x="312" 
d="M110 588q0 25 -3 40.5t-10.5 26t-18.5 18.5t-31 19v8h218v-8q-21 -11 -32 -19t-18 -18.5t-10.5 -26t-3.5 -40.5v-476q0 -25 3.5 -40.5t10.5 -26t18 -18.5t32 -19v-8h-218v8q20 11 31 19t18.5 18.5t10.5 26t3 40.5v476zM66 780q-12 0 -23 4.5t-19 13t-12.5 19.5t-4.5 23
t4.5 22.5t12.5 19t19 13t23 4.5t23 -4.5t19 -13t12.5 -19t4.5 -22.5t-4.5 -23t-12.5 -19.5t-19 -13t-23 -4.5zM246 780q-12 0 -23 4.5t-19.5 13t-13 19.5t-4.5 23t4.5 22.5t13 19t19.5 13t23 4.5t23 -4.5t19 -13t12.5 -19t4.5 -22.5t-4.5 -23t-12.5 -19.5t-19 -13t-23 -4.5z
" />
    <glyph glyph-name="Eth" unicode="&#xd0;" horiz-adv-x="770" 
d="M337 0h-278v8q20 11 31 19t18.5 18.5t10.5 26t3 40.5v227h-73v41h73v208q0 25 -3 40.5t-10.5 26t-18.5 18.5t-31 19v8h273q90 0 162.5 -24t123.5 -70t77.5 -110.5t26.5 -144.5q0 -81 -26.5 -146t-77 -111t-122 -70t-159.5 -24zM213 40h115q71 0 125.5 21t92 61.5t56.5 98
t19 130.5q0 71 -19 128t-57 97.5t-93.5 62t-126.5 21.5h-112v-280h177v-41h-177v-299z" />
    <glyph glyph-name="Ntilde" unicode="&#xd1;" horiz-adv-x="780" 
d="M238 786h-25q9 33 21 58.5t26 43t30 26.5t34 9t36.5 -8t43.5 -24.5t40 -24t30 -7.5t26 4.5t20 13.5t16.5 21t15.5 29h25q-9 -33 -21 -58t-26 -42.5t-30 -26.5t-34 -9t-36.5 8t-43.5 24t-40 23.5t-30 7.5t-26 -4.5t-20 -13.5t-16.5 -21t-15.5 -29zM626 182v405q0 24 -5 40
t-14 26.5t-20.5 18t-35.5 20.5v8h198v-8q-24 -13 -35 -20.5t-20 -18t-14 -26.5t-5 -40v-595h-14l-502 625v-504q0 -24 5 -40t14 -26.5t20.5 -18t35.5 -20.5v-8h-198v8q24 13 35 20.5t20 18t14 26.5t5 40v475q0 25 -3 40.5t-10.5 26t-18.5 18.5t-31 19v8h165z" />
    <glyph glyph-name="Ograve" unicode="&#xd2;" horiz-adv-x="788" 
d="M239 933h120l58 -164h-19zM47 350q0 78 25.5 144t72.5 114.5t111 75t138 26.5t138 -26.5t111 -75t72.5 -114.5t25.5 -144t-25.5 -144t-72.5 -114.5t-111 -75t-138 -26.5t-138 26.5t-111 75t-72.5 114.5t-25.5 144zM638 350q0 70 -16.5 128.5t-48.5 100t-77.5 64
t-101.5 22.5t-101.5 -22.5t-77.5 -64t-48.5 -100t-16.5 -128.5t16.5 -128.5t48.5 -100t77.5 -64t101.5 -22.5t101.5 22.5t77.5 64t48.5 100t16.5 128.5z" />
    <glyph glyph-name="Oacute" unicode="&#xd3;" horiz-adv-x="788" 
d="M433 933h120l-159 -164h-19zM47 350q0 78 25.5 144t72.5 114.5t111 75t138 26.5t138 -26.5t111 -75t72.5 -114.5t25.5 -144t-25.5 -144t-72.5 -114.5t-111 -75t-138 -26.5t-138 26.5t-111 75t-72.5 114.5t-25.5 144zM638 350q0 70 -16.5 128.5t-48.5 100t-77.5 64
t-101.5 22.5t-101.5 -22.5t-77.5 -64t-48.5 -100t-16.5 -128.5t16.5 -128.5t48.5 -100t77.5 -64t101.5 -22.5t101.5 22.5t77.5 64t48.5 100t16.5 128.5z" />
    <glyph glyph-name="Ocircumflex" unicode="&#xd4;" horiz-adv-x="788" 
d="M47 350q0 78 25.5 144t72.5 114.5t111 75t138 26.5t138 -26.5t111 -75t72.5 -114.5t25.5 -144t-25.5 -144t-72.5 -114.5t-111 -75t-138 -26.5t-138 26.5t-111 75t-72.5 114.5t-25.5 144zM638 350q0 70 -16.5 128.5t-48.5 100t-77.5 64t-101.5 22.5t-101.5 -22.5
t-77.5 -64t-48.5 -100t-16.5 -128.5t16.5 -128.5t48.5 -100t77.5 -64t101.5 -22.5t101.5 22.5t77.5 64t48.5 100t16.5 128.5zM403 950q11 -21 28 -45t37.5 -49t42.5 -48t43 -42h-32q-20 11 -37 21t-32.5 21t-30 23t-28.5 26q-14 -14 -28.5 -26t-30 -23t-32.5 -21t-37 -21
h-32q21 19 43 42t42.5 48t37.5 49t28 45h18z" />
    <glyph glyph-name="Otilde" unicode="&#xd5;" horiz-adv-x="788" 
d="M237 786h-25q9 33 21 58.5t26 43t30 26.5t34 9t36.5 -8t43.5 -24.5t40 -24t30 -7.5t26 4.5t20 13.5t16.5 21t15.5 29h25q-9 -33 -21 -58t-26 -42.5t-30 -26.5t-34 -9t-36.5 8t-43.5 24t-40 23.5t-30 7.5t-26 -4.5t-20 -13.5t-16.5 -21t-15.5 -29zM47 350q0 78 25.5 144
t72.5 114.5t111 75t138 26.5t138 -26.5t111 -75t72.5 -114.5t25.5 -144t-25.5 -144t-72.5 -114.5t-111 -75t-138 -26.5t-138 26.5t-111 75t-72.5 114.5t-25.5 144zM638 350q0 70 -16.5 128.5t-48.5 100t-77.5 64t-101.5 22.5t-101.5 -22.5t-77.5 -64t-48.5 -100
t-16.5 -128.5t16.5 -128.5t48.5 -100t77.5 -64t101.5 -22.5t101.5 22.5t77.5 64t48.5 100t16.5 128.5z" />
    <glyph glyph-name="Odieresis" unicode="&#xd6;" horiz-adv-x="788" 
d="M304 780q-12 0 -23 4.5t-19 13t-12.5 19.5t-4.5 23t4.5 22.5t12.5 19t19 13t23 4.5t23 -4.5t19 -13t12.5 -19t4.5 -22.5t-4.5 -23t-12.5 -19.5t-19 -13t-23 -4.5zM484 780q-12 0 -23 4.5t-19.5 13t-13 19.5t-4.5 23t4.5 22.5t13 19t19.5 13t23 4.5t23 -4.5t19 -13
t12.5 -19t4.5 -22.5t-4.5 -23t-12.5 -19.5t-19 -13t-23 -4.5zM47 350q0 78 25.5 144t72.5 114.5t111 75t138 26.5t138 -26.5t111 -75t72.5 -114.5t25.5 -144t-25.5 -144t-72.5 -114.5t-111 -75t-138 -26.5t-138 26.5t-111 75t-72.5 114.5t-25.5 144zM638 350
q0 70 -16.5 128.5t-48.5 100t-77.5 64t-101.5 22.5t-101.5 -22.5t-77.5 -64t-48.5 -100t-16.5 -128.5t16.5 -128.5t48.5 -100t77.5 -64t101.5 -22.5t101.5 22.5t77.5 64t48.5 100t16.5 128.5z" />
    <glyph glyph-name="multiply" unicode="&#xd7;" horiz-adv-x="514" 
d="M228 337l-148 148l33 34l146 -150l147 150l33 -34l-149 -148l149 -149l-33 -34l-147 150l-146 -150l-33 34z" />
    <glyph glyph-name="Oslash" unicode="&#xd8;" horiz-adv-x="788" 
d="M394 665q-56 0 -101.5 -22.5t-77.5 -64t-48.5 -100t-16.5 -128.5q0 -29 3.5 -55.5t9.5 -51.5t15 -47t21 -41l370 421q-15 21 -33.5 38t-40.5 28t-47.5 17t-53.5 6zM394 35q56 0 101.5 22.5t77.5 64t48.5 100t16.5 128.5q0 27 -3 53t-9 49.5t-14.5 45t-19.5 40.5
l-370 -419q15 -20 34 -36t40.5 -26.5t46 -16t51.5 -5.5zM741 350q0 -78 -25.5 -144t-72.5 -114.5t-111 -75t-138 -26.5q-32 0 -62 5t-57.5 15t-53 24t-47.5 32l-88 -99l-31 27l88 100q-23 24 -40.5 52t-30 60.5t-19 68.5t-6.5 75q0 78 25.5 144t72.5 114.5t111 75t138 26.5
q33 0 64 -5.5t59.5 -15.5t54 -24.5t47.5 -33.5l77 85l31 -27l-78 -88q22 -23 39 -51t29 -60t18 -67t6 -73z" />
    <glyph glyph-name="Ugrave" unicode="&#xd9;" horiz-adv-x="759" 
d="M234 933h120l58 -164h-19zM612 587q0 24 -5 40t-14.5 26.5t-21 18t-35.5 20.5v8h199v-8q-23 -13 -34.5 -20.5t-20.5 -18t-13.5 -26.5t-4.5 -40v-319q0 -67 -20 -119.5t-57 -87.5t-87.5 -53t-110.5 -18q-73 0 -128 19.5t-91 56t-53.5 87.5t-17.5 115v320q0 25 -3.5 40.5
t-10.5 26t-18 18.5t-32 19v8h219v-8q-21 -11 -32 -19t-18 -18.5t-10.5 -26t-3.5 -40.5v-308q0 -59 14 -103.5t40.5 -74t64.5 -44.5t86 -15q50 0 90 14t69 42.5t44.5 73.5t15.5 106v308z" />
    <glyph glyph-name="Uacute" unicode="&#xda;" horiz-adv-x="759" 
d="M428 933h120l-159 -164h-19zM612 587q0 24 -5 40t-14.5 26.5t-21 18t-35.5 20.5v8h199v-8q-23 -13 -34.5 -20.5t-20.5 -18t-13.5 -26.5t-4.5 -40v-319q0 -67 -20 -119.5t-57 -87.5t-87.5 -53t-110.5 -18q-73 0 -128 19.5t-91 56t-53.5 87.5t-17.5 115v320q0 25 -3.5 40.5
t-10.5 26t-18 18.5t-32 19v8h219v-8q-21 -11 -32 -19t-18 -18.5t-10.5 -26t-3.5 -40.5v-308q0 -59 14 -103.5t40.5 -74t64.5 -44.5t86 -15q50 0 90 14t69 42.5t44.5 73.5t15.5 106v308z" />
    <glyph glyph-name="Ucircumflex" unicode="&#xdb;" horiz-adv-x="759" 
d="M612 587q0 24 -5 40t-14.5 26.5t-21 18t-35.5 20.5v8h199v-8q-23 -13 -34.5 -20.5t-20.5 -18t-13.5 -26.5t-4.5 -40v-319q0 -67 -20 -119.5t-57 -87.5t-87.5 -53t-110.5 -18q-73 0 -128 19.5t-91 56t-53.5 87.5t-17.5 115v320q0 25 -3.5 40.5t-10.5 26t-18 18.5t-32 19v8
h219v-8q-21 -11 -32 -19t-18 -18.5t-10.5 -26t-3.5 -40.5v-308q0 -59 14 -103.5t40.5 -74t64.5 -44.5t86 -15q50 0 90 14t69 42.5t44.5 73.5t15.5 106v308zM398 950q11 -21 28 -45t37.5 -49t42.5 -48t43 -42h-32q-20 11 -37 21t-32.5 21t-30 23t-28.5 26q-14 -14 -28.5 -26
t-30 -23t-32.5 -21t-37 -21h-32q21 19 43 42t42.5 48t37.5 49t28 45h18z" />
    <glyph glyph-name="Udieresis" unicode="&#xdc;" horiz-adv-x="759" 
d="M299 780q-12 0 -23 4.5t-19 13t-12.5 19.5t-4.5 23t4.5 22.5t12.5 19t19 13t23 4.5t23 -4.5t19 -13t12.5 -19t4.5 -22.5t-4.5 -23t-12.5 -19.5t-19 -13t-23 -4.5zM479 780q-12 0 -23 4.5t-19.5 13t-13 19.5t-4.5 23t4.5 22.5t13 19t19.5 13t23 4.5t23 -4.5t19 -13
t12.5 -19t4.5 -22.5t-4.5 -23t-12.5 -19.5t-19 -13t-23 -4.5zM612 587q0 24 -5 40t-14.5 26.5t-21 18t-35.5 20.5v8h199v-8q-23 -13 -34.5 -20.5t-20.5 -18t-13.5 -26.5t-4.5 -40v-319q0 -67 -20 -119.5t-57 -87.5t-87.5 -53t-110.5 -18q-73 0 -128 19.5t-91 56t-53.5 87.5
t-17.5 115v320q0 25 -3.5 40.5t-10.5 26t-18 18.5t-32 19v8h219v-8q-21 -11 -32 -19t-18 -18.5t-10.5 -26t-3.5 -40.5v-308q0 -59 14 -103.5t40.5 -74t64.5 -44.5t86 -15q50 0 90 14t69 42.5t44.5 73.5t15.5 106v308z" />
    <glyph glyph-name="Yacute" unicode="&#xdd;" horiz-adv-x="676" 
d="M362 341l163 260q4 6 6.5 11.5t4.5 10.5t2.5 9.5t0.5 7.5q0 7 -3.5 13t-10 12t-15 12t-22.5 15v8h176v-8q-16 -12 -27.5 -22t-21.5 -21.5t-20.5 -26t-23.5 -34.5l-188 -296v-180q0 -25 3.5 -40.5t11.5 -26t21 -18.5t36 -19v-8h-234v8q23 11 36 19t21 18.5t11.5 26
t3.5 40.5v180l-188 296q-13 20 -23 34.5t-20.5 26t-22 22t-27.5 21.5v8h204v-8q-10 -6 -16 -11.5t-10 -11t-5.5 -11t-1.5 -12.5q0 -6 1 -11.5t2.5 -11t4.5 -11t7 -11.5zM385 933h120l-159 -164h-19z" />
    <glyph glyph-name="Thorn" unicode="&#xde;" horiz-adv-x="644" 
d="M201 588v-25h149q62 0 110.5 -12.5t83.5 -38t53 -63.5t18 -89t-18.5 -89.5t-53.5 -64t-83.5 -38t-109.5 -12.5h-149v-44q0 -24 5 -39.5t15.5 -26.5t25.5 -18.5t42 -19.5v-8h-242v8q20 11 31 19t18.5 18.5t10.5 26t3 40.5v476q0 25 -3 40.5t-10.5 26t-18.5 18.5t-31 19v8
h218v-8q-21 -11 -32 -19t-18 -18.5t-10.5 -26t-3.5 -40.5zM201 195h132q46 0 81 10t58.5 30.5t35 51.5t11.5 73t-11.5 73t-35 51t-58.5 30t-81 10h-132v-329z" />
    <glyph glyph-name="germandbls" unicode="&#xdf;" horiz-adv-x="661" 
d="M461 -10q-18 0 -35 3.5t-32.5 9.5t-28.5 13t-27 16l-35 -43h-8l-11 185h13q20 -36 39 -62.5t39 -44t41.5 -26.5t45.5 -9q22 0 38.5 5.5t27.5 16t16.5 25.5t5.5 33q0 20 -8.5 35.5t-24 27.5t-34.5 22t-55 28q-37 18 -61 34t-37.5 32t-19 33t-5.5 39q0 19 6.5 36.5t19 33.5
t29.5 32.5t43 38.5q15 13 25.5 26t17 25.5t9 26t2.5 29.5q0 22 -7.5 40.5t-22.5 32.5t-37 21.5t-50 7.5q-31 0 -58.5 -11.5t-48 -34.5t-32.5 -58t-12 -81v-528h-144v7q20 12 29.5 19.5t15.5 17.5t9 25t3 40v333h-70v28l70 20v23q0 59 19.5 104.5t54 75.5t77.5 44.5t90 14.5
q38 0 72 -9.5t60 -28t40.5 -44.5t14.5 -59q0 -23 -6.5 -41.5t-18 -34t-27 -28.5t-36.5 -28q-20 -14 -33 -24t-20.5 -19t-10.5 -18.5t-3 -21.5q0 -13 6 -24t19 -21.5t33 -22.5t57 -32q40 -21 63.5 -36.5t39 -32t23.5 -38t8 -51.5t-12 -57t-34 -47.5t-52 -32t-65 -11.5z" />
    <glyph glyph-name="agrave" unicode="&#xe0;" horiz-adv-x="542" 
d="M360 255l-73 -15q-38 -8 -65.5 -17t-46.5 -22.5t-28.5 -32t-9.5 -44.5q0 -20 6 -35.5t17.5 -26t28 -15.5t36.5 -5q24 0 48 10.5t44 31t31.5 51t11.5 68.5v52zM545 23v-13q-9 -3 -19 -6t-21.5 -5.5t-24 -4t-24.5 -1.5q-23 0 -40 6.5t-28.5 19.5t-18 33t-7.5 47
q-8 -23 -24.5 -43t-39.5 -35t-51 -23t-58 -8t-56.5 8t-46 23.5t-30.5 39t-11 53.5q0 38 19 65.5t51 45.5t72 29t93 21l80 14v38q0 35 -6.5 59.5t-19.5 40t-33.5 23t-50.5 7.5q-22 0 -39.5 -5t-30 -15.5t-19 -24.5t-6.5 -32q0 -8 1 -15t3.5 -13t6 -11t7.5 -10q-4 -3 -9.5 -6
t-12 -5t-13.5 -3t-14 -1q-12 0 -22.5 3.5t-18 11t-11.5 18.5t-4 25q0 24 13.5 46t39 39t61.5 27t80 10q47 0 82.5 -10.5t59 -31.5t35 -52t11.5 -72q0 -30 -0.5 -58.5t-1 -67t-1 -58.5t-0.5 -40q0 -21 6 -36t17.5 -25t30 -15t44.5 -7zM102 749h111l67 -188h-19z" />
    <glyph glyph-name="aacute" unicode="&#xe1;" horiz-adv-x="542" 
d="M360 255l-73 -15q-38 -8 -65.5 -17t-46.5 -22.5t-28.5 -32t-9.5 -44.5q0 -20 6 -35.5t17.5 -26t28 -15.5t36.5 -5q24 0 48 10.5t44 31t31.5 51t11.5 68.5v52zM545 23v-13q-9 -3 -19 -6t-21.5 -5.5t-24 -4t-24.5 -1.5q-23 0 -40 6.5t-28.5 19.5t-18 33t-7.5 47
q-8 -23 -24.5 -43t-39.5 -35t-51 -23t-58 -8t-56.5 8t-46 23.5t-30.5 39t-11 53.5q0 38 19 65.5t51 45.5t72 29t93 21l80 14v38q0 35 -6.5 59.5t-19.5 40t-33.5 23t-50.5 7.5q-22 0 -39.5 -5t-30 -15.5t-19 -24.5t-6.5 -32q0 -8 1 -15t3.5 -13t6 -11t7.5 -10q-4 -3 -9.5 -6
t-12 -5t-13.5 -3t-14 -1q-12 0 -22.5 3.5t-18 11t-11.5 18.5t-4 25q0 24 13.5 46t39 39t61.5 27t80 10q47 0 82.5 -10.5t59 -31.5t35 -52t11.5 -72q0 -30 -0.5 -58.5t-1 -67t-1 -58.5t-0.5 -40q0 -21 6 -36t17.5 -25t30 -15t44.5 -7zM312 749h111l-159 -188h-19z" />
    <glyph glyph-name="acircumflex" unicode="&#xe2;" horiz-adv-x="542" 
d="M360 255l-73 -15q-38 -8 -65.5 -17t-46.5 -22.5t-28.5 -32t-9.5 -44.5q0 -20 6 -35.5t17.5 -26t28 -15.5t36.5 -5q24 0 48 10.5t44 31t31.5 51t11.5 68.5v52zM545 23v-13q-9 -3 -19 -6t-21.5 -5.5t-24 -4t-24.5 -1.5q-23 0 -40 6.5t-28.5 19.5t-18 33t-7.5 47
q-8 -23 -24.5 -43t-39.5 -35t-51 -23t-58 -8t-56.5 8t-46 23.5t-30.5 39t-11 53.5q0 38 19 65.5t51 45.5t72 29t93 21l80 14v38q0 35 -6.5 59.5t-19.5 40t-33.5 23t-50.5 7.5q-22 0 -39.5 -5t-30 -15.5t-19 -24.5t-6.5 -32q0 -8 1 -15t3.5 -13t6 -11t7.5 -10q-4 -3 -9.5 -6
t-12 -5t-13.5 -3t-14 -1q-12 0 -22.5 3.5t-18 11t-11.5 18.5t-4 25q0 24 13.5 46t39 39t61.5 27t80 10q47 0 82.5 -10.5t59 -31.5t35 -52t11.5 -72q0 -30 -0.5 -58.5t-1 -67t-1 -58.5t-0.5 -40q0 -21 6 -36t17.5 -25t30 -15t44.5 -7zM271 756q11 -21 27.5 -48t37 -55.5
t42 -54.5t41.5 -46h-28q-18 10 -35 22.5t-32.5 25t-29 25.5t-31.5 30q-18 -17 -31.5 -30t-29 -25.5t-32.5 -25t-35 -22.5h-28q20 20 41.5 46t42 54.5t37 55.5t27.5 48h16z" />
    <glyph glyph-name="atilde" unicode="&#xe3;" horiz-adv-x="542" 
d="M360 255l-73 -15q-38 -8 -65.5 -17t-46.5 -22.5t-28.5 -32t-9.5 -44.5q0 -20 6 -35.5t17.5 -26t28 -15.5t36.5 -5q24 0 48 10.5t44 31t31.5 51t11.5 68.5v52zM545 23v-13q-9 -3 -19 -6t-21.5 -5.5t-24 -4t-24.5 -1.5q-23 0 -40 6.5t-28.5 19.5t-18 33t-7.5 47
q-8 -23 -24.5 -43t-39.5 -35t-51 -23t-58 -8t-56.5 8t-46 23.5t-30.5 39t-11 53.5q0 38 19 65.5t51 45.5t72 29t93 21l80 14v38q0 35 -6.5 59.5t-19.5 40t-33.5 23t-50.5 7.5q-22 0 -39.5 -5t-30 -15.5t-19 -24.5t-6.5 -32q0 -8 1 -15t3.5 -13t6 -11t7.5 -10q-4 -3 -9.5 -6
t-12 -5t-13.5 -3t-14 -1q-12 0 -22.5 3.5t-18 11t-11.5 18.5t-4 25q0 24 13.5 46t39 39t61.5 27t80 10q47 0 82.5 -10.5t59 -31.5t35 -52t11.5 -72q0 -30 -0.5 -58.5t-1 -67t-1 -58.5t-0.5 -40q0 -21 6 -36t17.5 -25t30 -15t44.5 -7zM112 578h-25q9 33 20.5 58t25.5 42.5
t29.5 26.5t33.5 9t35.5 -8.5t42 -24.5t39.5 -23.5t29 -7.5q15 0 26 4.5t19.5 13.5t15.5 21t15 29h25q-9 -33 -20.5 -58t-25.5 -42.5t-29.5 -26.5t-33.5 -9t-35.5 8.5t-42 24.5t-39.5 23.5t-29 7.5q-15 0 -26 -4.5t-19.5 -13.5t-15.5 -21t-15 -29z" />
    <glyph glyph-name="adieresis" unicode="&#xe4;" horiz-adv-x="542" 
d="M360 255l-73 -15q-38 -8 -65.5 -17t-46.5 -22.5t-28.5 -32t-9.5 -44.5q0 -20 6 -35.5t17.5 -26t28 -15.5t36.5 -5q24 0 48 10.5t44 31t31.5 51t11.5 68.5v52zM545 23v-13q-9 -3 -19 -6t-21.5 -5.5t-24 -4t-24.5 -1.5q-23 0 -40 6.5t-28.5 19.5t-18 33t-7.5 47
q-8 -23 -24.5 -43t-39.5 -35t-51 -23t-58 -8t-56.5 8t-46 23.5t-30.5 39t-11 53.5q0 38 19 65.5t51 45.5t72 29t93 21l80 14v38q0 35 -6.5 59.5t-19.5 40t-33.5 23t-50.5 7.5q-22 0 -39.5 -5t-30 -15.5t-19 -24.5t-6.5 -32q0 -8 1 -15t3.5 -13t6 -11t7.5 -10q-4 -3 -9.5 -6
t-12 -5t-13.5 -3t-14 -1q-12 0 -22.5 3.5t-18 11t-11.5 18.5t-4 25q0 24 13.5 46t39 39t61.5 27t80 10q47 0 82.5 -10.5t59 -31.5t35 -52t11.5 -72q0 -30 -0.5 -58.5t-1 -67t-1 -58.5t-0.5 -40q0 -21 6 -36t17.5 -25t30 -15t44.5 -7zM173 580q-12 0 -23 4.5t-19 13
t-12.5 19.5t-4.5 23t4.5 22.5t12.5 19t19 13t23 4.5t23 -4.5t19 -13t12.5 -19t4.5 -22.5t-4.5 -23t-12.5 -19.5t-19 -13t-23 -4.5zM353 580q-12 0 -23 4.5t-19.5 13t-13 19.5t-4.5 23t4.5 22.5t13 19t19.5 13t23 4.5t23 -4.5t19 -13t12.5 -19t4.5 -22.5t-4.5 -23
t-12.5 -19.5t-19 -13t-23 -4.5z" />
    <glyph glyph-name="aring" unicode="&#xe5;" horiz-adv-x="542" 
d="M360 255l-73 -15q-38 -8 -65.5 -17t-46.5 -22.5t-28.5 -32t-9.5 -44.5q0 -20 6 -35.5t17.5 -26t28 -15.5t36.5 -5q24 0 48 10.5t44 31t31.5 51t11.5 68.5v52zM545 23v-13q-9 -3 -19 -6t-21.5 -5.5t-24 -4t-24.5 -1.5q-23 0 -40 6.5t-28.5 19.5t-18 33t-7.5 47
q-8 -23 -24.5 -43t-39.5 -35t-51 -23t-58 -8t-56.5 8t-46 23.5t-30.5 39t-11 53.5q0 38 19 65.5t51 45.5t72 29t93 21l80 14v38q0 35 -6.5 59.5t-19.5 40t-33.5 23t-50.5 7.5q-22 0 -39.5 -5t-30 -15.5t-19 -24.5t-6.5 -32q0 -8 1 -15t3.5 -13t6 -11t7.5 -10q-4 -3 -9.5 -6
t-12 -5t-13.5 -3t-14 -1q-12 0 -22.5 3.5t-18 11t-11.5 18.5t-4 25q0 24 13.5 46t39 39t61.5 27t80 10q47 0 82.5 -10.5t59 -31.5t35 -52t11.5 -72q0 -30 -0.5 -58.5t-1 -67t-1 -58.5t-0.5 -40q0 -21 6 -36t17.5 -25t30 -15t44.5 -7zM156 663q0 21 8.5 40t23.5 34t34.5 23
t40.5 8t40.5 -8t34.5 -23t23.5 -34t8.5 -40q0 -22 -8.5 -41t-23.5 -34t-34.5 -23t-40.5 -8t-40.5 8t-34.5 23t-23.5 34t-8.5 41zM325 663q0 13 -4.5 24.5t-12.5 20.5t-19.5 13.5t-25.5 4.5t-25.5 -4.5t-19.5 -13.5t-12.5 -20.5t-4.5 -24.5q0 -14 4.5 -25.5t12.5 -19.5
t19.5 -12.5t25.5 -4.5t25.5 4.5t19.5 12.5t12.5 19.5t4.5 25.5z" />
    <glyph glyph-name="ae" unicode="&#xe6;" horiz-adv-x="844" 
d="M798 151q-8 -38 -25.5 -68t-44 -51t-61 -31.5t-76.5 -10.5q-33 0 -63.5 7.5t-56.5 22t-47 36t-35 49.5q-11 -22 -29 -42.5t-42.5 -37t-54 -26t-61.5 -9.5q-35 0 -64 8t-50 23.5t-32 39t-11 53.5q0 38 19.5 66t53 47.5t74.5 31t88 17.5l80 11v39q0 34 -6.5 58.5
t-19.5 40.5t-34 24t-50 8q-22 0 -39.5 -5t-30 -15.5t-19 -24.5t-6.5 -32q0 -8 1 -15t3.5 -13t6 -11t7.5 -10q-4 -3 -9.5 -6t-12 -5t-13.5 -3t-14 -1q-12 0 -22.5 3.5t-18 11t-11.5 18.5t-4 25q0 24 13.5 46t38.5 39t61 27t80 10q31 0 57 -6t46 -18t34 -29t23 -39
q14 21 31.5 38t38.5 29t45.5 18.5t51.5 6.5q51 0 91 -16.5t68 -48t42.5 -77t14.5 -102.5h-355q0 -48 11.5 -86.5t33 -66t53 -41.5t70.5 -14q29 0 53.5 7t44.5 21t36 35.5t27 50.5zM450 290h260q-1 34 -7 63.5t-20 52.5t-38 36.5t-58 13.5q-29 0 -53 -12t-41.5 -34t-28 -52.5
t-14.5 -67.5zM360 251l-73 -11q-35 -5 -62.5 -14t-47 -23t-30 -33.5t-10.5 -45.5q0 -19 6 -34.5t17 -26t25.5 -16t32.5 -5.5q30 0 55.5 10t45 30.5t30.5 51t11 69.5v48z" />
    <glyph glyph-name="ccedilla" unicode="&#xe7;" horiz-adv-x="509" 
d="M148 -169l15 20q8 -9 17 -16t19 -11.5t20.5 -6.5t22.5 -2t22 3t17.5 8.5t11.5 14.5t4 21q0 14 -6 24.5t-18 17.5t-30 11t-42 5l34 73q-29 4 -54 13q-42 17 -73.5 48.5t-49 78t-17.5 103.5q0 58 19 106t52.5 82.5t78.5 53t96 18.5q37 0 69.5 -9t56.5 -25.5t37 -39
t13 -48.5q0 -17 -5.5 -29t-15 -19t-21 -10.5t-23.5 -3.5q-4 0 -7.5 0.5t-7 1.5t-6.5 2t-5 3q6 14 7 18.5t2 10.5t1 14q0 20 -5.5 37t-17.5 30t-29.5 20t-41.5 7q-35 0 -63.5 -16t-48 -44t-30 -65.5t-10.5 -80.5q0 -47 11.5 -85.5t32.5 -65t51 -40.5t67 -14q27 0 50.5 7
t43.5 21t35.5 35.5t26.5 49.5l19 -8q-8 -38 -25.5 -67.5t-43 -50t-59 -31.5t-73.5 -11h-1l-21 -47q26 -1 48.5 -6.5t38.5 -16t25 -25.5t9 -33q0 -19 -8.5 -35t-24.5 -27t-36.5 -16.5t-44.5 -5.5q-19 0 -36 4t-31 11t-25 16.5t-17 21.5z" />
    <glyph glyph-name="egrave" unicode="&#xe8;" horiz-adv-x="530" 
d="M274 496q51 0 91.5 -16.5t68 -48t42 -77t14.5 -102.5h-355q0 -48 11.5 -86.5t33.5 -66t53.5 -41.5t70.5 -14q29 0 53.5 7t44.5 21t35.5 35.5t26.5 50.5l21 -7q-9 -38 -26.5 -68t-43.5 -51t-60.5 -31.5t-76.5 -10.5q-49 0 -92.5 16.5t-76 48.5t-50.5 78t-18 104t18 106
t50 82.5t74.5 52.5t90.5 18zM137 290h259q-1 34 -7 63.5t-20 52.5t-38 36.5t-58 13.5q-29 0 -53 -12t-41 -34t-28 -52.5t-14 -67.5zM113 749h111l67 -188h-19z" />
    <glyph glyph-name="eacute" unicode="&#xe9;" horiz-adv-x="530" 
d="M324 749h111l-159 -188h-19zM274 496q51 0 91.5 -16.5t68 -48t42 -77t14.5 -102.5h-355q0 -48 11.5 -86.5t33.5 -66t53.5 -41.5t70.5 -14q29 0 53.5 7t44.5 21t35.5 35.5t26.5 50.5l21 -7q-9 -38 -26.5 -68t-43.5 -51t-60.5 -31.5t-76.5 -10.5q-49 0 -92.5 16.5t-76 48.5
t-50.5 78t-18 104t18 106t50 82.5t74.5 52.5t90.5 18zM137 290h259q-1 34 -7 63.5t-20 52.5t-38 36.5t-58 13.5q-29 0 -53 -12t-41 -34t-28 -52.5t-14 -67.5z" />
    <glyph glyph-name="ecircumflex" unicode="&#xea;" horiz-adv-x="530" 
d="M283 756q11 -21 27.5 -48t37 -55.5t42 -54.5t41.5 -46h-28q-18 10 -35 22.5t-32.5 25t-29 25.5t-31.5 30q-18 -17 -31.5 -30t-29 -25.5t-32.5 -25t-35 -22.5h-28q20 20 41.5 46t42 54.5t37 55.5t27.5 48h16zM274 496q51 0 91.5 -16.5t68 -48t42 -77t14.5 -102.5h-355
q0 -48 11.5 -86.5t33.5 -66t53.5 -41.5t70.5 -14q29 0 53.5 7t44.5 21t35.5 35.5t26.5 50.5l21 -7q-9 -38 -26.5 -68t-43.5 -51t-60.5 -31.5t-76.5 -10.5q-49 0 -92.5 16.5t-76 48.5t-50.5 78t-18 104t18 106t50 82.5t74.5 52.5t90.5 18zM137 290h259q-1 34 -7 63.5
t-20 52.5t-38 36.5t-58 13.5q-29 0 -53 -12t-41 -34t-28 -52.5t-14 -67.5z" />
    <glyph glyph-name="edieresis" unicode="&#xeb;" horiz-adv-x="530" 
d="M185 580q-12 0 -23 4.5t-19 13t-12.5 19.5t-4.5 23t4.5 22.5t12.5 19t19 13t23 4.5t23 -4.5t19 -13t12.5 -19t4.5 -22.5t-4.5 -23t-12.5 -19.5t-19 -13t-23 -4.5zM365 580q-12 0 -23 4.5t-19.5 13t-13 19.5t-4.5 23t4.5 22.5t13 19t19.5 13t23 4.5t23 -4.5t19 -13
t12.5 -19t4.5 -22.5t-4.5 -23t-12.5 -19.5t-19 -13t-23 -4.5zM274 496q51 0 91.5 -16.5t68 -48t42 -77t14.5 -102.5h-355q0 -48 11.5 -86.5t33.5 -66t53.5 -41.5t70.5 -14q29 0 53.5 7t44.5 21t35.5 35.5t26.5 50.5l21 -7q-9 -38 -26.5 -68t-43.5 -51t-60.5 -31.5
t-76.5 -10.5q-49 0 -92.5 16.5t-76 48.5t-50.5 78t-18 104t18 106t50 82.5t74.5 52.5t90.5 18zM137 290h259q-1 34 -7 63.5t-20 52.5t-38 36.5t-58 13.5q-29 0 -53 -12t-41 -34t-28 -52.5t-14 -67.5z" />
    <glyph glyph-name="igrave" unicode="&#xec;" horiz-adv-x="281" 
d="M189 486v-377q0 -25 3 -40t9 -25t15.5 -17.5t29.5 -19.5v-7h-201v7q20 12 29.5 19.5t15.5 17.5t9 25t3 40v274q0 19 -5 33.5t-13.5 25.5t-19.5 19t-29 19v6h154zM-21 749h111l67 -188h-19z" />
    <glyph glyph-name="iacute" unicode="&#xed;" horiz-adv-x="281" 
d="M190 749h111l-159 -188h-19zM189 486v-377q0 -25 3 -40t9 -25t15.5 -17.5t29.5 -19.5v-7h-201v7q20 12 29.5 19.5t15.5 17.5t9 25t3 40v274q0 19 -5 33.5t-13.5 25.5t-19.5 19t-29 19v6h154z" />
    <glyph glyph-name="icircumflex" unicode="&#xee;" horiz-adv-x="281" 
d="M149 756q11 -21 27.5 -48t37 -55.5t42 -54.5t41.5 -46h-28q-18 10 -35 22.5t-32.5 25t-29 25.5t-31.5 30q-18 -17 -31.5 -30t-29 -25.5t-32.5 -25t-35 -22.5h-28q20 20 41.5 46t42 54.5t37 55.5t27.5 48h16zM189 486v-377q0 -25 3 -40t9 -25t15.5 -17.5t29.5 -19.5v-7
h-201v7q20 12 29.5 19.5t15.5 17.5t9 25t3 40v274q0 19 -5 33.5t-13.5 25.5t-19.5 19t-29 19v6h154z" />
    <glyph glyph-name="idieresis" unicode="&#xef;" horiz-adv-x="281" 
d="M51 580q-12 0 -23 4.5t-19 13t-12.5 19.5t-4.5 23t4.5 22.5t12.5 19t19 13t23 4.5t23 -4.5t19 -13t12.5 -19t4.5 -22.5t-4.5 -23t-12.5 -19.5t-19 -13t-23 -4.5zM231 580q-12 0 -23 4.5t-19.5 13t-13 19.5t-4.5 23t4.5 22.5t13 19t19.5 13t23 4.5t23 -4.5t19 -13
t12.5 -19t4.5 -22.5t-4.5 -23t-12.5 -19.5t-19 -13t-23 -4.5zM189 486v-377q0 -25 3 -40t9 -25t15.5 -17.5t29.5 -19.5v-7h-201v7q20 12 29.5 19.5t15.5 17.5t9 25t3 40v274q0 19 -5 33.5t-13.5 25.5t-19.5 19t-29 19v6h154z" />
    <glyph glyph-name="eth" unicode="&#xf0;" horiz-adv-x="571" 
d="M285 -10q-52 0 -96.5 18.5t-78 52.5t-51.5 80.5t-18 101.5t18 101.5t51 80.5t77.5 52.5t95.5 18.5q17 0 35.5 -3.5t36.5 -11t33.5 -19t26.5 -25.5q-3 18 -11 40.5t-21 47.5t-32 50.5t-44 49.5l-129 -64l-16 32l116 58q-17 13 -36 24.5t-40 22t-44.5 19t-49.5 14.5l4 28
q32 -4 61.5 -11.5t56.5 -18t52 -23.5t48 -29l98 49l16 -32l-82 -41q40 -33 71.5 -75t52.5 -90.5t32 -102t11 -109.5q0 -65 -18 -118.5t-51 -91t-78 -57t-97 -19.5zM432 243q0 49 -9.5 88.5t-28 67t-46 42t-63.5 14.5t-63.5 -14.5t-46 -42t-28 -67t-9.5 -88.5t9.5 -88.5
t28 -67t46 -42t63.5 -14.5t63.5 14.5t46 42t28 67t9.5 88.5z" />
    <glyph glyph-name="ntilde" unicode="&#xf1;" horiz-adv-x="613" 
d="M521 322v-213q0 -25 3 -40t9 -25t15.5 -17.5t29.5 -19.5v-7h-201v7q20 12 29.5 19.5t15.5 17.5t9 25t3 40v198q0 26 -5.5 48.5t-18 40.5t-32.5 28t-49 10q-28 0 -53.5 -11.5t-45 -34.5t-30.5 -56.5t-11 -75.5v-147q0 -25 3 -40t9 -25t15.5 -17.5t29.5 -19.5v-7h-201v7
q20 12 29.5 19.5t15.5 17.5t9 25t3 40v274q0 19 -5 33.5t-13.5 25.5t-19.5 19t-29 19v6h150l4 -121q11 31 28 55.5t39.5 41.5t50 25.5t58.5 8.5q38 0 67 -12t49 -34.5t30 -55t10 -72.5zM158 578h-25q9 33 20.5 58t25.5 42.5t29.5 26.5t33.5 9t35.5 -8.5t42 -24.5t39.5 -23.5
t29 -7.5q15 0 26 4.5t19.5 13.5t15.5 21t15 29h25q-9 -33 -20.5 -58t-25.5 -42.5t-29.5 -26.5t-33.5 -9t-35.5 8.5t-42 24.5t-39.5 23.5t-29 7.5q-15 0 -26 -4.5t-19.5 -13.5t-15.5 -21t-15 -29z" />
    <glyph glyph-name="ograve" unicode="&#xf2;" horiz-adv-x="570" 
d="M529 243q0 -55 -18 -101.5t-51.5 -80.5t-78 -52.5t-96.5 -18.5t-96.5 18.5t-78 52.5t-51.5 80.5t-18 101.5t18 101.5t51.5 80.5t78 52.5t96.5 18.5t96.5 -18.5t78 -52.5t51.5 -80.5t18 -101.5zM432 243q0 49 -9.5 88.5t-28 67t-46 42t-63.5 14.5t-63.5 -14.5t-46 -42
t-28 -67t-9.5 -88.5t9.5 -88.5t28 -67t46 -42t63.5 -14.5t63.5 14.5t46 42t28 67t9.5 88.5zM123 749h111l67 -188h-19z" />
    <glyph glyph-name="oacute" unicode="&#xf3;" horiz-adv-x="570" 
d="M334 749h111l-159 -188h-19zM529 243q0 -55 -18 -101.5t-51.5 -80.5t-78 -52.5t-96.5 -18.5t-96.5 18.5t-78 52.5t-51.5 80.5t-18 101.5t18 101.5t51.5 80.5t78 52.5t96.5 18.5t96.5 -18.5t78 -52.5t51.5 -80.5t18 -101.5zM432 243q0 49 -9.5 88.5t-28 67t-46 42
t-63.5 14.5t-63.5 -14.5t-46 -42t-28 -67t-9.5 -88.5t9.5 -88.5t28 -67t46 -42t63.5 -14.5t63.5 14.5t46 42t28 67t9.5 88.5z" />
    <glyph glyph-name="ocircumflex" unicode="&#xf4;" horiz-adv-x="570" 
d="M293 756q11 -21 27.5 -48t37 -55.5t42 -54.5t41.5 -46h-28q-18 10 -35 22.5t-32.5 25t-29 25.5t-31.5 30q-18 -17 -31.5 -30t-29 -25.5t-32.5 -25t-35 -22.5h-28q20 20 41.5 46t42 54.5t37 55.5t27.5 48h16zM529 243q0 -55 -18 -101.5t-51.5 -80.5t-78 -52.5t-96.5 -18.5
t-96.5 18.5t-78 52.5t-51.5 80.5t-18 101.5t18 101.5t51.5 80.5t78 52.5t96.5 18.5t96.5 -18.5t78 -52.5t51.5 -80.5t18 -101.5zM432 243q0 49 -9.5 88.5t-28 67t-46 42t-63.5 14.5t-63.5 -14.5t-46 -42t-28 -67t-9.5 -88.5t9.5 -88.5t28 -67t46 -42t63.5 -14.5t63.5 14.5
t46 42t28 67t9.5 88.5z" />
    <glyph glyph-name="otilde" unicode="&#xf5;" horiz-adv-x="570" 
d="M529 243q0 -55 -18 -101.5t-51.5 -80.5t-78 -52.5t-96.5 -18.5t-96.5 18.5t-78 52.5t-51.5 80.5t-18 101.5t18 101.5t51.5 80.5t78 52.5t96.5 18.5t96.5 -18.5t78 -52.5t51.5 -80.5t18 -101.5zM432 243q0 49 -9.5 88.5t-28 67t-46 42t-63.5 14.5t-63.5 -14.5t-46 -42
t-28 -67t-9.5 -88.5t9.5 -88.5t28 -67t46 -42t63.5 -14.5t63.5 14.5t46 42t28 67t9.5 88.5zM132 578h-25q9 33 20.5 58t25.5 42.5t29.5 26.5t33.5 9t35.5 -8.5t42 -24.5t39.5 -23.5t29 -7.5q15 0 26 4.5t19.5 13.5t15.5 21t15 29h25q-9 -33 -20.5 -58t-25.5 -42.5
t-29.5 -26.5t-33.5 -9t-35.5 8.5t-42 24.5t-39.5 23.5t-29 7.5q-15 0 -26 -4.5t-19.5 -13.5t-15.5 -21t-15 -29z" />
    <glyph glyph-name="odieresis" unicode="&#xf6;" horiz-adv-x="570" 
d="M195 580q-12 0 -23 4.5t-19 13t-12.5 19.5t-4.5 23t4.5 22.5t12.5 19t19 13t23 4.5t23 -4.5t19 -13t12.5 -19t4.5 -22.5t-4.5 -23t-12.5 -19.5t-19 -13t-23 -4.5zM375 580q-12 0 -23 4.5t-19.5 13t-13 19.5t-4.5 23t4.5 22.5t13 19t19.5 13t23 4.5t23 -4.5t19 -13
t12.5 -19t4.5 -22.5t-4.5 -23t-12.5 -19.5t-19 -13t-23 -4.5zM529 243q0 -55 -18 -101.5t-51.5 -80.5t-78 -52.5t-96.5 -18.5t-96.5 18.5t-78 52.5t-51.5 80.5t-18 101.5t18 101.5t51.5 80.5t78 52.5t96.5 18.5t96.5 -18.5t78 -52.5t51.5 -80.5t18 -101.5zM432 243
q0 49 -9.5 88.5t-28 67t-46 42t-63.5 14.5t-63.5 -14.5t-46 -42t-28 -67t-9.5 -88.5t9.5 -88.5t28 -67t46 -42t63.5 -14.5t63.5 14.5t46 42t28 67t9.5 88.5z" />
    <glyph glyph-name="divide" unicode="&#xf7;" horiz-adv-x="598" 
d="M255 522q0 10 3.5 18t9.5 14.5t14.5 10t17.5 3.5q10 0 18 -3.5t14.5 -10t10 -14.5t3.5 -18t-3.5 -18t-10 -14.5t-14.5 -10t-18 -3.5q-9 0 -17.5 3.5t-14.5 10t-9.5 14.5t-3.5 18zM71 316v48h456v-48h-456zM255 157q0 10 3.5 18t9.5 14.5t14.5 10t17.5 3.5q10 0 18 -3.5
t14.5 -10t10 -14.5t3.5 -18q0 -9 -3.5 -17.5t-10 -14.5t-14.5 -9.5t-18 -3.5q-9 0 -17.5 3.5t-14.5 9.5t-9.5 14.5t-3.5 17.5z" />
    <glyph glyph-name="oslash" unicode="&#xf8;" horiz-adv-x="581" 
d="M291 455q-36 0 -64 -14.5t-46.5 -42t-28 -67t-9.5 -88.5q0 -17 1.5 -33.5t4.5 -31.5t7.5 -28t10.5 -25l231 270q-9 15 -20 26t-24.5 18.5t-29 11.5t-33.5 4zM291 31q36 0 63.5 14.5t46 42t28 67t9.5 88.5q0 17 -1.5 32.5t-4 30t-6.5 27.5t-10 24l-231 -269q9 -14 20 -25
t24.5 -18t28.5 -10.5t33 -3.5zM535 243q0 -55 -18 -101.5t-51.5 -80.5t-78 -52.5t-96.5 -18.5q-21 0 -41.5 3t-39.5 9.5t-36 15.5t-33 20l-64 -73l-28 26l63 73q-15 17 -27.5 37t-21 42.5t-13 47.5t-4.5 52q0 55 18 101.5t51.5 80.5t78.5 52.5t97 18.5q22 0 42.5 -3.5
t40 -10t36.5 -16t33 -21.5l63 72l28 -26l-62 -72q15 -17 26.5 -36.5t19.5 -42t12.5 -47t4.5 -50.5z" />
    <glyph glyph-name="ugrave" unicode="&#xf9;" horiz-adv-x="598" 
d="M179 486v-306q0 -26 5.5 -49t18 -41t32.5 -28.5t48 -10.5q29 0 54 12t43.5 35t29 56.5t10.5 75.5v153q0 20 -5 34t-14 25t-20 19t-29 19v6h155v-377q0 -25 3 -40t9 -25t15.5 -17.5t29.5 -19.5v-7h-144v123q-10 -32 -26.5 -57t-38.5 -42t-49 -25.5t-59 -8.5q-37 0 -66 12
t-49 34.5t-30 54.5t-10 72v220q0 19 -5 33.5t-13.5 25.5t-19.5 19t-29 19v6h154zM132 749h111l67 -188h-19z" />
    <glyph glyph-name="uacute" unicode="&#xfa;" horiz-adv-x="598" 
d="M343 749h111l-159 -188h-19zM179 486v-306q0 -26 5.5 -49t18 -41t32.5 -28.5t48 -10.5q29 0 54 12t43.5 35t29 56.5t10.5 75.5v153q0 20 -5 34t-14 25t-20 19t-29 19v6h155v-377q0 -25 3 -40t9 -25t15.5 -17.5t29.5 -19.5v-7h-144v123q-10 -32 -26.5 -57t-38.5 -42
t-49 -25.5t-59 -8.5q-37 0 -66 12t-49 34.5t-30 54.5t-10 72v220q0 19 -5 33.5t-13.5 25.5t-19.5 19t-29 19v6h154z" />
    <glyph glyph-name="ucircumflex" unicode="&#xfb;" horiz-adv-x="598" 
d="M302 756q11 -21 27.5 -48t37 -55.5t42 -54.5t41.5 -46h-28q-18 10 -35 22.5t-32.5 25t-29 25.5t-31.5 30q-18 -17 -31.5 -30t-29 -25.5t-32.5 -25t-35 -22.5h-28q20 20 41.5 46t42 54.5t37 55.5t27.5 48h16zM179 486v-306q0 -26 5.5 -49t18 -41t32.5 -28.5t48 -10.5
q29 0 54 12t43.5 35t29 56.5t10.5 75.5v153q0 20 -5 34t-14 25t-20 19t-29 19v6h155v-377q0 -25 3 -40t9 -25t15.5 -17.5t29.5 -19.5v-7h-144v123q-10 -32 -26.5 -57t-38.5 -42t-49 -25.5t-59 -8.5q-37 0 -66 12t-49 34.5t-30 54.5t-10 72v220q0 19 -5 33.5t-13.5 25.5
t-19.5 19t-29 19v6h154z" />
    <glyph glyph-name="udieresis" unicode="&#xfc;" horiz-adv-x="598" 
d="M204 580q-12 0 -23 4.5t-19 13t-12.5 19.5t-4.5 23t4.5 22.5t12.5 19t19 13t23 4.5t23 -4.5t19 -13t12.5 -19t4.5 -22.5t-4.5 -23t-12.5 -19.5t-19 -13t-23 -4.5zM384 580q-12 0 -23 4.5t-19.5 13t-13 19.5t-4.5 23t4.5 22.5t13 19t19.5 13t23 4.5t23 -4.5t19 -13
t12.5 -19t4.5 -22.5t-4.5 -23t-12.5 -19.5t-19 -13t-23 -4.5zM179 486v-306q0 -26 5.5 -49t18 -41t32.5 -28.5t48 -10.5q29 0 54 12t43.5 35t29 56.5t10.5 75.5v153q0 20 -5 34t-14 25t-20 19t-29 19v6h155v-377q0 -25 3 -40t9 -25t15.5 -17.5t29.5 -19.5v-7h-144v123
q-10 -32 -26.5 -57t-38.5 -42t-49 -25.5t-59 -8.5q-37 0 -66 12t-49 34.5t-30 54.5t-10 72v220q0 19 -5 33.5t-13.5 25.5t-19.5 19t-29 19v6h154z" />
    <glyph glyph-name="yacute" unicode="&#xfd;" horiz-adv-x="517" 
d="M242 -2l-163 370q-10 22 -19.5 38.5t-19 29t-19.5 22.5t-24 22v6h186v-6q-10 -7 -16.5 -12t-11 -9.5t-6.5 -9t-2 -10.5t1.5 -12t3.5 -13t3 -8.5t12 -27.5l118 -280l111 276q4 11 7 18.5t4.5 13.5t2.5 11.5t1 11.5q0 7 -3.5 13t-10.5 12t-16 12t-23 14v6h162v-6
q-13 -12 -23 -22t-19 -22.5t-18 -29t-19 -38.5l-194 -457q-14 -35 -26.5 -58.5t-27.5 -41t-35.5 -27t-48.5 -9.5q-17 0 -32 5.5t-26 15t-17 22.5t-6 29q0 12 5 23t13.5 20t19.5 14.5t23 7.5q-1 -2 -1.5 -5.5t-1 -6.5t-1 -6.5t-0.5 -5.5q0 -10 3 -18.5t9 -15t14 -10t18 -3.5
q13 0 24 5.5t20.5 16.5t18 26.5t18.5 37.5zM328 749h111l-159 -188h-19z" />
    <glyph glyph-name="thorn" unicode="&#xfe;" horiz-adv-x="616" 
d="M179 261v-66q0 -38 13 -67.5t34 -49t47 -29t52 -9.5q34 0 63 14t49.5 41.5t31.5 67t11 88.5q0 43 -10.5 78t-30.5 60.5t-48 39t-63 13.5q-33 0 -60.5 -14.5t-47.5 -40t-30.5 -58t-10.5 -68.5zM179 87v-193q0 -25 3 -40t9 -25t15.5 -17.5t29.5 -19.5v-7h-202v7
q20 12 29.5 19.5t15.5 17.5t9 25t3 40v751q0 20 -5 34.5t-14 25t-19.5 18t-29.5 19.5v7h156v-383q9 27 25 51t39 41.5t52.5 27.5t63.5 10q46 0 85.5 -16.5t69 -48t45.5 -77.5t16 -103q0 -58 -18 -107t-49.5 -83t-72.5 -52.5t-87 -18.5q-33 0 -60 7.5t-48.5 21t-36.5 31
t-24 37.5z" />
    <glyph glyph-name="ydieresis" unicode="&#xff;" horiz-adv-x="517" 
d="M242 -2l-163 370q-10 22 -19.5 38.5t-19 29t-19.5 22.5t-24 22v6h186v-6q-10 -7 -16.5 -12t-11 -9.5t-6.5 -9t-2 -10.5t1.5 -12t3.5 -13t3 -8.5t12 -27.5l118 -280l111 276q4 11 7 18.5t4.5 13.5t2.5 11.5t1 11.5q0 7 -3.5 13t-10.5 12t-16 12t-23 14v6h162v-6
q-13 -12 -23 -22t-19 -22.5t-18 -29t-19 -38.5l-194 -457q-14 -35 -26.5 -58.5t-27.5 -41t-35.5 -27t-48.5 -9.5q-17 0 -32 5.5t-26 15t-17 22.5t-6 29q0 12 5 23t13.5 20t19.5 14.5t23 7.5q-1 -2 -1.5 -5.5t-1 -6.5t-1 -6.5t-0.5 -5.5q0 -10 3 -18.5t9 -15t14 -10t18 -3.5
q13 0 24 5.5t20.5 16.5t18 26.5t18.5 37.5zM190 580q-12 0 -23 4.5t-19 13t-12.5 19.5t-4.5 23t4.5 22.5t12.5 19t19 13t23 4.5t23 -4.5t19 -13t12.5 -19t4.5 -22.5t-4.5 -23t-12.5 -19.5t-19 -13t-23 -4.5zM370 580q-12 0 -23 4.5t-19.5 13t-13 19.5t-4.5 23t4.5 22.5
t13 19t19.5 13t23 4.5t23 -4.5t19 -13t12.5 -19t4.5 -22.5t-4.5 -23t-12.5 -19.5t-19 -13t-23 -4.5z" />
    <glyph glyph-name="Amacron" unicode="&#x100;" horiz-adv-x="760" 
d="M355 565l-134 -293h270zM196 8v-8h-188v8q19 13 30 22.5t20.5 20t18.5 25.5t20 38l280 598h5l280 -598q11 -24 19.5 -38.5t17.5 -25.5t20 -20.5t28 -21.5v-8h-218v8q16 7 26.5 13t17 11.5t9 12t2.5 14.5q0 5 -1 9.5t-2.5 9.5t-4 10.5t-6.5 13.5l-60 129h-308l-58 -128
q-3 -7 -5.5 -13t-4 -10.5t-2 -9t-0.5 -9.5q0 -8 4 -14t11.5 -12t18.5 -12t30 -15zM517 782h-276v55h276v-55z" />
    <glyph glyph-name="amacron" unicode="&#x101;" horiz-adv-x="542" 
d="M360 255l-73 -15q-38 -8 -65.5 -17t-46.5 -22.5t-28.5 -32t-9.5 -44.5q0 -20 6 -35.5t17.5 -26t28 -15.5t36.5 -5q24 0 48 10.5t44 31t31.5 51t11.5 68.5v52zM545 23v-13q-9 -3 -19 -6t-21.5 -5.5t-24 -4t-24.5 -1.5q-23 0 -40 6.5t-28.5 19.5t-18 33t-7.5 47
q-8 -23 -24.5 -43t-39.5 -35t-51 -23t-58 -8t-56.5 8t-46 23.5t-30.5 39t-11 53.5q0 38 19 65.5t51 45.5t72 29t93 21l80 14v38q0 35 -6.5 59.5t-19.5 40t-33.5 23t-50.5 7.5q-22 0 -39.5 -5t-30 -15.5t-19 -24.5t-6.5 -32q0 -8 1 -15t3.5 -13t6 -11t7.5 -10q-4 -3 -9.5 -6
t-12 -5t-13.5 -3t-14 -1q-12 0 -22.5 3.5t-18 11t-11.5 18.5t-4 25q0 24 13.5 46t39 39t61.5 27t80 10q47 0 82.5 -10.5t59 -31.5t35 -52t11.5 -72q0 -30 -0.5 -58.5t-1 -67t-1 -58.5t-0.5 -40q0 -21 6 -36t17.5 -25t30 -15t44.5 -7zM401 590h-276v55h276v-55z" />
    <glyph glyph-name="Abreve" unicode="&#x102;" horiz-adv-x="760" 
d="M355 565l-134 -293h270zM196 8v-8h-188v8q19 13 30 22.5t20.5 20t18.5 25.5t20 38l280 598h5l280 -598q11 -24 19.5 -38.5t17.5 -25.5t20 -20.5t28 -21.5v-8h-218v8q16 7 26.5 13t17 11.5t9 12t2.5 14.5q0 5 -1 9.5t-2.5 9.5t-4 10.5t-6.5 13.5l-60 129h-308l-58 -128
q-3 -7 -5.5 -13t-4 -10.5t-2 -9t-0.5 -9.5q0 -8 4 -14t11.5 -12t18.5 -12t30 -15zM263 934q2 -23 12 -41.5t26 -30.5t36 -18t42 -6t42 6t36 18t26 30.5t12 41.5h26q0 -37 -11 -67.5t-30 -52.5t-45 -34t-56 -12t-56 12t-45 34t-30 52.5t-11 67.5h26z" />
    <glyph glyph-name="abreve" unicode="&#x103;" horiz-adv-x="542" 
d="M360 255l-73 -15q-38 -8 -65.5 -17t-46.5 -22.5t-28.5 -32t-9.5 -44.5q0 -20 6 -35.5t17.5 -26t28 -15.5t36.5 -5q24 0 48 10.5t44 31t31.5 51t11.5 68.5v52zM545 23v-13q-9 -3 -19 -6t-21.5 -5.5t-24 -4t-24.5 -1.5q-23 0 -40 6.5t-28.5 19.5t-18 33t-7.5 47
q-8 -23 -24.5 -43t-39.5 -35t-51 -23t-58 -8t-56.5 8t-46 23.5t-30.5 39t-11 53.5q0 38 19 65.5t51 45.5t72 29t93 21l80 14v38q0 35 -6.5 59.5t-19.5 40t-33.5 23t-50.5 7.5q-22 0 -39.5 -5t-30 -15.5t-19 -24.5t-6.5 -32q0 -8 1 -15t3.5 -13t6 -11t7.5 -10q-4 -3 -9.5 -6
t-12 -5t-13.5 -3t-14 -1q-12 0 -22.5 3.5t-18 11t-11.5 18.5t-4 25q0 24 13.5 46t39 39t61.5 27t80 10q47 0 82.5 -10.5t59 -31.5t35 -52t11.5 -72q0 -30 -0.5 -58.5t-1 -67t-1 -58.5t-0.5 -40q0 -21 6 -36t17.5 -25t30 -15t44.5 -7zM147 742q2 -26 12 -45.5t26 -32.5
t36 -19.5t42 -6.5t42 6.5t36 19.5t26 32.5t12 45.5h26q0 -39 -11 -71.5t-30 -55.5t-45 -35t-56 -12t-56 12t-45 35t-30 55.5t-11 71.5h26z" />
    <glyph glyph-name="Aogonek" unicode="&#x104;" horiz-adv-x="760" 
d="M623 -144q-9 -19 -22.5 -35.5t-31 -29.5t-39.5 -20.5t-48 -7.5q-18 0 -35 6t-30 17t-20.5 27.5t-7.5 36.5q0 26 11 48t30.5 41t44.5 35.5t56 33.5q16 9 24.5 14t15 11t10 12t3.5 14q0 5 -1 9.5t-2.5 9.5t-4 10.5t-6.5 13.5l-60 129h-308l-58 -128q-3 -7 -5.5 -13
t-4 -10.5t-2 -9t-0.5 -9.5q0 -8 4 -14t11.5 -12t18.5 -12t30 -15v-8h-188v8q19 13 30 22.5t20.5 20t18.5 25.5t20 38l280 598h5l280 -598q11 -24 19.5 -38.5t17.5 -25.5t20 -20.5t28 -21.5v-8h-188q-26 -19 -44.5 -34.5t-31.5 -31t-19.5 -31.5t-6.5 -33q0 -15 4.5 -25.5
t12 -17.5t17.5 -10.5t22 -3.5q14 0 26.5 4t24.5 11t23.5 17t21.5 23zM355 565l-134 -293h270z" />
    <glyph glyph-name="aogonek" unicode="&#x105;" horiz-adv-x="542" 
d="M425 -237q-18 0 -35 6t-30 17t-20.5 27.5t-7.5 36.5q0 22 9 42t24.5 37t36 32.5t47.5 31.5q-21 1 -37 8t-26.5 20t-16.5 32.5t-7 45.5q-8 -23 -24.5 -43t-39.5 -35t-51 -23t-58 -8t-56.5 8t-46 23.5t-30.5 39t-11 53.5q0 38 19 65.5t51 45.5t72 29t93 21l80 14v38
q0 35 -6.5 59.5t-19.5 40t-33.5 23t-50.5 7.5q-22 0 -39.5 -5t-30 -15.5t-19 -24.5t-6.5 -32q0 -8 1 -15t3.5 -13t6 -11t7.5 -10q-4 -3 -9.5 -6t-12 -5t-13.5 -3t-14 -1q-12 0 -22.5 3.5t-18 11t-11.5 18.5t-4 25q0 24 13.5 46t39 39t61.5 27t80 10q47 0 82.5 -10.5
t59 -31.5t35 -52t11.5 -72q0 -30 -0.5 -58.5t-1 -67t-1 -58.5t-0.5 -40q0 -21 6 -36t17.5 -25t30 -15t44.5 -7v-13q-31 -10 -57.5 -25t-46 -34t-30 -39.5t-10.5 -41.5q0 -15 4 -25.5t12 -17.5t17.5 -10.5t21.5 -3.5q14 0 27 4t25 11t23 17t21 23l14 -12q-9 -19 -22.5 -35.5
t-31 -29.5t-39.5 -20.5t-48 -7.5zM360 255l-73 -15q-38 -8 -65.5 -17t-46.5 -22.5t-28.5 -32t-9.5 -44.5q0 -20 6 -35.5t17.5 -26t28 -15.5t36.5 -5q24 0 48 10.5t44 31t31.5 51t11.5 68.5v52z" />
    <glyph glyph-name="Cacute" unicode="&#x106;" horiz-adv-x="714" 
d="M405 666q-56 0 -103 -22.5t-81 -64t-52.5 -99t-18.5 -125.5q0 -71 20.5 -128t57.5 -96.5t84.5 -60t101.5 -20.5q40 0 74 9t63.5 28t54 49t44.5 73l17 -7q-12 -48 -36.5 -87t-59.5 -67t-80.5 -43t-99.5 -15q-75 0 -138.5 26t-109.5 74.5t-71 114.5t-25 145
q0 77 26.5 143.5t74.5 115t113 75t139 26.5q29 0 55 -4t48 -11.5t40.5 -17.5t34.5 -22l51 55h8v-211h-9q-22 38 -44.5 68t-49 52t-59 34.5t-70.5 12.5zM439 933h120l-159 -164h-19z" />
    <glyph glyph-name="cacute" unicode="&#x107;" horiz-adv-x="509" 
d="M335 749h111l-159 -188h-19zM288 456q-35 0 -63.5 -16t-48 -44t-30 -65.5t-10.5 -80.5q0 -47 11.5 -85.5t32.5 -65t51 -40.5t67 -14q27 0 50.5 7t43.5 21t35.5 35.5t26.5 49.5l19 -8q-8 -38 -25.5 -67.5t-43 -50t-59 -31.5t-73.5 -11q-49 0 -91 16.5t-73.5 48t-49 78
t-17.5 103.5q0 58 19 106t52.5 82.5t78.5 53t96 18.5q37 0 69.5 -9t56.5 -25.5t37 -39t13 -48.5q0 -17 -5.5 -29t-15 -19t-21 -10.5t-23.5 -3.5q-4 0 -7.5 0.5t-7 1.5t-6.5 2t-5 3q6 14 7 18.5t2 10.5t1 14q0 20 -5.5 37t-17.5 30t-29.5 20t-41.5 7z" />
    <glyph glyph-name="Ccircumflex" unicode="&#x108;" horiz-adv-x="714" 
d="M405 666q-56 0 -103 -22.5t-81 -64t-52.5 -99t-18.5 -125.5q0 -71 20.5 -128t57.5 -96.5t84.5 -60t101.5 -20.5q40 0 74 9t63.5 28t54 49t44.5 73l17 -7q-12 -48 -36.5 -87t-59.5 -67t-80.5 -43t-99.5 -15q-75 0 -138.5 26t-109.5 74.5t-71 114.5t-25 145
q0 77 26.5 143.5t74.5 115t113 75t139 26.5q29 0 55 -4t48 -11.5t40.5 -17.5t34.5 -22l51 55h8v-211h-9q-22 38 -44.5 68t-49 52t-59 34.5t-70.5 12.5zM409 950q11 -21 28 -45t37.5 -49t42.5 -48t43 -42h-32q-20 11 -37 21t-32.5 21t-30 23t-28.5 26q-14 -14 -28.5 -26
t-30 -23t-32.5 -21t-37 -21h-32q21 19 43 42t42.5 48t37.5 49t28 45h18z" />
    <glyph glyph-name="ccircumflex" unicode="&#x109;" horiz-adv-x="509" 
d="M294 756q11 -21 27.5 -48t37 -55.5t42 -54.5t41.5 -46h-28q-18 10 -35 22.5t-32.5 25t-29 25.5t-31.5 30q-18 -17 -31.5 -30t-29 -25.5t-32.5 -25t-35 -22.5h-28q20 20 41.5 46t42 54.5t37 55.5t27.5 48h16zM288 456q-35 0 -63.5 -16t-48 -44t-30 -65.5t-10.5 -80.5
q0 -47 11.5 -85.5t32.5 -65t51 -40.5t67 -14q27 0 50.5 7t43.5 21t35.5 35.5t26.5 49.5l19 -8q-8 -38 -25.5 -67.5t-43 -50t-59 -31.5t-73.5 -11q-49 0 -91 16.5t-73.5 48t-49 78t-17.5 103.5q0 58 19 106t52.5 82.5t78.5 53t96 18.5q37 0 69.5 -9t56.5 -25.5t37 -39
t13 -48.5q0 -17 -5.5 -29t-15 -19t-21 -10.5t-23.5 -3.5q-4 0 -7.5 0.5t-7 1.5t-6.5 2t-5 3q6 14 7 18.5t2 10.5t1 14q0 20 -5.5 37t-17.5 30t-29.5 20t-41.5 7z" />
    <glyph glyph-name="Cdotaccent" unicode="&#x10a;" horiz-adv-x="714" 
d="M401 786q-13 0 -24.5 5t-20 13.5t-13.5 19.5t-5 24t5 24.5t13.5 20t20 13.5t24.5 5t24.5 -5t20 -13.5t13.5 -20t5 -24.5t-5 -24t-13.5 -19.5t-20 -13.5t-24.5 -5zM405 666q-56 0 -103 -22.5t-81 -64t-52.5 -99t-18.5 -125.5q0 -71 20.5 -128t57.5 -96.5t84.5 -60
t101.5 -20.5q40 0 74 9t63.5 28t54 49t44.5 73l17 -7q-12 -48 -36.5 -87t-59.5 -67t-80.5 -43t-99.5 -15q-75 0 -138.5 26t-109.5 74.5t-71 114.5t-25 145q0 77 26.5 143.5t74.5 115t113 75t139 26.5q29 0 55 -4t48 -11.5t40.5 -17.5t34.5 -22l51 55h8v-211h-9
q-22 38 -44.5 68t-49 52t-59 34.5t-70.5 12.5z" />
    <glyph glyph-name="cdotaccent" unicode="&#x10b;" horiz-adv-x="509" 
d="M288 456q-35 0 -63.5 -16t-48 -44t-30 -65.5t-10.5 -80.5q0 -47 11.5 -85.5t32.5 -65t51 -40.5t67 -14q27 0 50.5 7t43.5 21t35.5 35.5t26.5 49.5l19 -8q-8 -38 -25.5 -67.5t-43 -50t-59 -31.5t-73.5 -11q-49 0 -91 16.5t-73.5 48t-49 78t-17.5 103.5q0 58 19 106
t52.5 82.5t78.5 53t96 18.5q37 0 69.5 -9t56.5 -25.5t37 -39t13 -48.5q0 -17 -5.5 -29t-15 -19t-21 -10.5t-23.5 -3.5q-4 0 -7.5 0.5t-7 1.5t-6.5 2t-5 3q6 14 7 18.5t2 10.5t1 14q0 20 -5.5 37t-17.5 30t-29.5 20t-41.5 7zM286 594q-13 0 -24.5 5t-20 13.5t-13.5 19.5
t-5 24t5 24.5t13.5 20t20 13.5t24.5 5t24.5 -5t20 -13.5t13.5 -20t5 -24.5t-5 -24t-13.5 -19.5t-20 -13.5t-24.5 -5z" />
    <glyph glyph-name="Ccaron" unicode="&#x10c;" horiz-adv-x="714" 
d="M405 666q-56 0 -103 -22.5t-81 -64t-52.5 -99t-18.5 -125.5q0 -71 20.5 -128t57.5 -96.5t84.5 -60t101.5 -20.5q40 0 74 9t63.5 28t54 49t44.5 73l17 -7q-12 -48 -36.5 -87t-59.5 -67t-80.5 -43t-99.5 -15q-75 0 -138.5 26t-109.5 74.5t-71 114.5t-25 145
q0 77 26.5 143.5t74.5 115t113 75t139 26.5q29 0 55 -4t48 -11.5t40.5 -17.5t34.5 -22l51 55h8v-211h-9q-22 38 -44.5 68t-49 52t-59 34.5t-70.5 12.5zM560 946q-21 -19 -43 -42t-42.5 -48t-37.5 -49t-28 -45h-18q-11 21 -28 45t-37.5 49t-42.5 48t-43 42h32q20 -11 37 -21
t32.5 -21t30 -23t28.5 -26q14 14 28.5 26t30 23t32.5 21t37 21h32z" />
    <glyph glyph-name="ccaron" unicode="&#x10d;" horiz-adv-x="509" 
d="M442 756q-20 -20 -41.5 -46t-42 -54t-37 -55t-27.5 -48h-16q-11 21 -27.5 48t-37 55t-42 54t-41.5 46h28q18 -10 35 -22t32.5 -25t29.5 -26t31 -29q17 16 31 29t29.5 26t32.5 25t35 22h28zM288 456q-35 0 -63.5 -16t-48 -44t-30 -65.5t-10.5 -80.5q0 -47 11.5 -85.5
t32.5 -65t51 -40.5t67 -14q27 0 50.5 7t43.5 21t35.5 35.5t26.5 49.5l19 -8q-8 -38 -25.5 -67.5t-43 -50t-59 -31.5t-73.5 -11q-49 0 -91 16.5t-73.5 48t-49 78t-17.5 103.5q0 58 19 106t52.5 82.5t78.5 53t96 18.5q37 0 69.5 -9t56.5 -25.5t37 -39t13 -48.5q0 -17 -5.5 -29
t-15 -19t-21 -10.5t-23.5 -3.5q-4 0 -7.5 0.5t-7 1.5t-6.5 2t-5 3q6 14 7 18.5t2 10.5t1 14q0 20 -5.5 37t-17.5 30t-29.5 20t-41.5 7z" />
    <glyph glyph-name="Dcaron" unicode="&#x10e;" horiz-adv-x="757" 
d="M513 946q-21 -19 -43 -42t-42.5 -48t-37.5 -49t-28 -45h-18q-11 21 -28 45t-37.5 49t-42.5 48t-43 42h32q20 -11 37 -21t32.5 -21t30 -23t28.5 -26q14 14 28.5 26t30 23t32.5 21t37 21h32zM47 0v8q20 11 31 19t18.5 18.5t10.5 26t3 40.5v476q0 25 -3 40.5t-10.5 26
t-18.5 18.5t-31 19v8h273q90 0 162.5 -24t123.5 -70t77.5 -110.5t26.5 -144.5q0 -81 -26.5 -146t-77 -111t-122 -70t-159.5 -24h-278zM609 351q0 71 -19 128t-57 97.5t-93.5 62t-126.5 21.5h-112v-620h115q71 0 125.5 21t92 61.5t56.5 98t19 130.5z" />
    <glyph glyph-name="dcaron" unicode="&#x10f;" horiz-adv-x="618" 
d="M733 749l-97 -205h-18l18 205h97zM437 225v66q0 38 -13 68t-34.5 49.5t-47.5 29t-52 9.5q-34 0 -62.5 -14t-49 -41.5t-31.5 -66.5t-11 -88q0 -44 10.5 -79.5t30 -61t48 -39t63.5 -13.5q33 0 60.5 14.5t47.5 40t30.5 58t10.5 68.5zM440 0l-3 120q-9 -27 -25 -50.5
t-39 -41.5t-52.5 -28t-63.5 -10q-46 0 -85.5 16.5t-69 48.5t-45.5 78t-16 104t18 106t49.5 82.5t72.5 52.5t86 18q33 0 60.5 -7.5t49 -21t36.5 -31t24 -37.5v246q0 20 -5 34.5t-14 25t-19.5 18t-29.5 19.5v7h156v-640q0 -25 2.5 -40t9 -25t16 -17.5t28.5 -19.5v-7h-141z" />
    <glyph glyph-name="Dcroat" unicode="&#x110;" horiz-adv-x="770" 
d="M337 0h-278v8q20 11 31 19t18.5 18.5t10.5 26t3 40.5v227h-73v41h73v208q0 25 -3 40.5t-10.5 26t-18.5 18.5t-31 19v8h273q90 0 162.5 -24t123.5 -70t77.5 -110.5t26.5 -144.5q0 -81 -26.5 -146t-77 -111t-122 -70t-159.5 -24zM213 40h115q71 0 125.5 21t92 61.5t56.5 98
t19 130.5q0 71 -19 128t-57 97.5t-93.5 62t-126.5 21.5h-112v-280h177v-41h-177v-299z" />
    <glyph glyph-name="dcroat" unicode="&#x111;" horiz-adv-x="629" 
d="M443 225v66q0 38 -13 68t-34.5 49.5t-47.5 29t-52 9.5q-34 0 -62.5 -14t-49 -41.5t-31.5 -66.5t-11 -88q0 -44 10.5 -79.5t30 -61t48 -39t63.5 -13.5q33 0 60.5 14.5t47.5 40t30.5 58t10.5 68.5zM443 120q-9 -27 -25 -50.5t-39 -41.5t-52.5 -28t-63.5 -10
q-46 0 -85.5 16.5t-69 48.5t-45.5 78t-16 104t18 106t49.5 82.5t72.5 52.5t86 18q33 0 60.5 -7.5t49 -21t36.5 -31t24 -37.5v167h-138v36h138v43q0 20 -5 34.5t-14 25t-19.5 18t-29.5 19.5v7h156v-147h72v-36h-72v-457q0 -25 2.5 -40t9 -25t16 -17.5t28.5 -19.5v-7h-141z
" />
    <glyph glyph-name="Emacron" unicode="&#x112;" horiz-adv-x="658" 
d="M470 790h-276v55h276v-55zM483 475v-231h-9q-14 35 -24 53.5t-22.5 27.5t-31 12t-51.5 3h-144v-301h198q41 0 70.5 7t52.5 22t43 39t47 64h8l-32 -171h-541v8q20 11 31 19t18.5 18.5t10.5 26t3 40.5v476q0 25 -3 40.5t-10.5 26t-18.5 18.5t-31 19v8h449q11 0 19.5 0.5
t15.5 1.5t12.5 2t12.5 2l34 -159h-8q-34 39 -49.5 56t-36.5 30.5t-49.5 20.5t-70.5 7h-175v-282h144q33 0 51 3t31 12.5t23 27.5t24 53h9z" />
    <glyph glyph-name="emacron" unicode="&#x113;" horiz-adv-x="530" 
d="M274 496q51 0 91.5 -16.5t68 -48t42 -77t14.5 -102.5h-355q0 -48 11.5 -86.5t33.5 -66t53.5 -41.5t70.5 -14q29 0 53.5 7t44.5 21t35.5 35.5t26.5 50.5l21 -7q-9 -38 -26.5 -68t-43.5 -51t-60.5 -31.5t-76.5 -10.5q-49 0 -92.5 16.5t-76 48.5t-50.5 78t-18 104t18 106
t50 82.5t74.5 52.5t90.5 18zM137 290h259q-1 34 -7 63.5t-20 52.5t-38 36.5t-58 13.5q-29 0 -53 -12t-41 -34t-28 -52.5t-14 -67.5zM413 590h-276v55h276v-55z" />
    <glyph glyph-name="Ebreve" unicode="&#x114;" horiz-adv-x="658" 
d="M216 942q2 -23 12 -41.5t26 -30.5t36 -18t42 -6t42 6t36 18t26 30.5t12 41.5h26q0 -37 -11 -67.5t-30 -52.5t-45 -34t-56 -12t-56 12t-45 34t-30 52.5t-11 67.5h26zM483 475v-231h-9q-14 35 -24 53.5t-22.5 27.5t-31 12t-51.5 3h-144v-301h198q41 0 70.5 7t52.5 22t43 39
t47 64h8l-32 -171h-541v8q20 11 31 19t18.5 18.5t10.5 26t3 40.5v476q0 25 -3 40.5t-10.5 26t-18.5 18.5t-31 19v8h449q11 0 19.5 0.5t15.5 1.5t12.5 2t12.5 2l34 -159h-8q-34 39 -49.5 56t-36.5 30.5t-49.5 20.5t-70.5 7h-175v-282h144q33 0 51 3t31 12.5t23 27.5t24 53h9z
" />
    <glyph glyph-name="ebreve" unicode="&#x115;" horiz-adv-x="530" 
d="M274 496q51 0 91.5 -16.5t68 -48t42 -77t14.5 -102.5h-355q0 -48 11.5 -86.5t33.5 -66t53.5 -41.5t70.5 -14q29 0 53.5 7t44.5 21t35.5 35.5t26.5 50.5l21 -7q-9 -38 -26.5 -68t-43.5 -51t-60.5 -31.5t-76.5 -10.5q-49 0 -92.5 16.5t-76 48.5t-50.5 78t-18 104t18 106
t50 82.5t74.5 52.5t90.5 18zM137 290h259q-1 34 -7 63.5t-20 52.5t-38 36.5t-58 13.5q-29 0 -53 -12t-41 -34t-28 -52.5t-14 -67.5zM159 742q2 -26 12 -45.5t26 -32.5t36 -19.5t42 -6.5t42 6.5t36 19.5t26 32.5t12 45.5h26q0 -39 -11 -71.5t-30 -55.5t-45 -35t-56 -12
t-56 12t-45 35t-30 55.5t-11 71.5h26z" />
    <glyph glyph-name="Edotaccent" unicode="&#x116;" horiz-adv-x="658" 
d="M332 786q-13 0 -24.5 5t-20 13.5t-13.5 19.5t-5 24t5 24.5t13.5 20t20 13.5t24.5 5t24.5 -5t20 -13.5t13.5 -20t5 -24.5t-5 -24t-13.5 -19.5t-20 -13.5t-24.5 -5zM483 475v-231h-9q-14 35 -24 53.5t-22.5 27.5t-31 12t-51.5 3h-144v-301h198q41 0 70.5 7t52.5 22t43 39
t47 64h8l-32 -171h-541v8q20 11 31 19t18.5 18.5t10.5 26t3 40.5v476q0 25 -3 40.5t-10.5 26t-18.5 18.5t-31 19v8h449q11 0 19.5 0.5t15.5 1.5t12.5 2t12.5 2l34 -159h-8q-34 39 -49.5 56t-36.5 30.5t-49.5 20.5t-70.5 7h-175v-282h144q33 0 51 3t31 12.5t23 27.5t24 53h9z
" />
    <glyph glyph-name="edotaccent" unicode="&#x117;" horiz-adv-x="530" 
d="M274 496q51 0 91.5 -16.5t68 -48t42 -77t14.5 -102.5h-355q0 -48 11.5 -86.5t33.5 -66t53.5 -41.5t70.5 -14q29 0 53.5 7t44.5 21t35.5 35.5t26.5 50.5l21 -7q-9 -38 -26.5 -68t-43.5 -51t-60.5 -31.5t-76.5 -10.5q-49 0 -92.5 16.5t-76 48.5t-50.5 78t-18 104t18 106
t50 82.5t74.5 52.5t90.5 18zM137 290h259q-1 34 -7 63.5t-20 52.5t-38 36.5t-58 13.5q-29 0 -53 -12t-41 -34t-28 -52.5t-14 -67.5zM275 594q-13 0 -24.5 5t-20 13.5t-13.5 19.5t-5 24t5 24.5t13.5 20t20 13.5t24.5 5t24.5 -5t20 -13.5t13.5 -20t5 -24.5t-5 -24t-13.5 -19.5
t-20 -13.5t-24.5 -5z" />
    <glyph glyph-name="Eogonek" unicode="&#x118;" horiz-adv-x="658" 
d="M329 -150q0 28 13.5 51.5t36 43.5t48.5 37q13 8 30 18h-410v8q20 11 31 19t18.5 18.5t10.5 26t3 40.5v476q0 25 -3 40.5t-10.5 26t-18.5 18.5t-31 19v8h449q11 0 19.5 0.5t15.5 1.5t12.5 2t12.5 2l34 -159h-8q-34 39 -49.5 56t-36.5 30.5t-49.5 20.5t-70.5 7h-175v-282
h144q33 0 51 3t31 12.5t23 27.5t24 53h9v-231h-9q-14 35 -24 53.5t-22.5 27.5t-31 12t-51.5 3h-144v-301h198q41 0 70.5 7t52.5 22t43 39t47 64h8l-32 -171h-90q-24 -17 -41 -32q-19 -17 -32 -32.5t-20 -32t-7 -33.5q0 -15 4 -25.5t12 -17.5t17.5 -10.5t21.5 -3.5q14 0 27 4
t25 11t23 17t21 23l14 -12q-9 -19 -22.5 -35.5t-31 -29.5t-39.5 -20.5t-48 -7.5q-18 0 -35 6t-30 17t-20.5 27.5t-7.5 36.5z" />
    <glyph glyph-name="eogonek" unicode="&#x119;" horiz-adv-x="530" 
d="M292 -237q-18 0 -35 6t-30 17t-20.5 27.5t-7.5 36.5q0 21 8.5 40.5t23.5 37t34 33t44 31.5q-5 -1 -8.5 -1t-7 -0.5t-7.5 -0.5h-8q-49 0 -92.5 16.5t-76 48.5t-50.5 78t-18 104t18 106t50 82.5t74.5 52.5t90.5 18q51 0 91.5 -16.5t68 -48t42 -77t14.5 -102.5h-355
q0 -48 11.5 -86.5t33.5 -66t53.5 -41.5t70.5 -14q29 0 53.5 7t44.5 21t35.5 35.5t26.5 50.5l21 -7q-6 -25 -16.5 -46t-24.5 -38.5t-31 -32t-38 -27.5q-25 -15 -45 -32t-34 -34.5t-21.5 -35.5t-7.5 -35q0 -15 4.5 -25.5t12 -17.5t17.5 -10.5t22 -3.5q14 0 26.5 4t24.5 11
t23.5 17t21.5 23l14 -12q-10 -19 -23 -35.5t-30.5 -29.5t-39.5 -20.5t-48 -7.5zM137 290h259q-1 34 -7 63.5t-20 52.5t-38 36.5t-58 13.5q-29 0 -53 -12t-41 -34t-28 -52.5t-14 -67.5z" />
    <glyph glyph-name="Ecaron" unicode="&#x11a;" horiz-adv-x="658" 
d="M492 946q-21 -19 -43 -42t-42.5 -48t-37.5 -49t-28 -45h-18q-11 21 -28 45t-37.5 49t-42.5 48t-43 42h32q20 -11 37 -21t32.5 -21t30 -23t28.5 -26q14 14 28.5 26t30 23t32.5 21t37 21h32zM483 475v-231h-9q-14 35 -24 53.5t-22.5 27.5t-31 12t-51.5 3h-144v-301h198
q41 0 70.5 7t52.5 22t43 39t47 64h8l-32 -171h-541v8q20 11 31 19t18.5 18.5t10.5 26t3 40.5v476q0 25 -3 40.5t-10.5 26t-18.5 18.5t-31 19v8h449q11 0 19.5 0.5t15.5 1.5t12.5 2t12.5 2l34 -159h-8q-34 39 -49.5 56t-36.5 30.5t-49.5 20.5t-70.5 7h-175v-282h144
q33 0 51 3t31 12.5t23 27.5t24 53h9z" />
    <glyph glyph-name="ecaron" unicode="&#x11b;" horiz-adv-x="530" 
d="M431 756q-20 -20 -41.5 -46t-42 -54t-37 -55t-27.5 -48h-16q-11 21 -27.5 48t-37 55t-42 54t-41.5 46h28q18 -10 35 -22t32.5 -25t29.5 -26t31 -29q17 16 31 29t29.5 26t32.5 25t35 22h28zM274 496q51 0 91.5 -16.5t68 -48t42 -77t14.5 -102.5h-355q0 -48 11.5 -86.5
t33.5 -66t53.5 -41.5t70.5 -14q29 0 53.5 7t44.5 21t35.5 35.5t26.5 50.5l21 -7q-9 -38 -26.5 -68t-43.5 -51t-60.5 -31.5t-76.5 -10.5q-49 0 -92.5 16.5t-76 48.5t-50.5 78t-18 104t18 106t50 82.5t74.5 52.5t90.5 18zM137 290h259q-1 34 -7 63.5t-20 52.5t-38 36.5
t-58 13.5q-29 0 -53 -12t-41 -34t-28 -52.5t-14 -67.5z" />
    <glyph glyph-name="Gcircumflex" unicode="&#x11c;" horiz-adv-x="779" 
d="M600 128v94q0 25 -3.5 40.5t-10.5 25.5t-18 18t-32 20v8h219v-8q-21 -12 -32 -20t-18.5 -18t-11 -25.5t-3.5 -40.5v-231h-23l-53 100q-15 -22 -37 -40.5t-50 -32t-61 -21t-69 -7.5q-75 0 -139.5 25.5t-111.5 73.5t-73 113.5t-26 143.5q0 79 27 146t76.5 116t116.5 75.5
t145 26.5q29 0 56 -4t50.5 -12t43 -17.5t35.5 -21.5l54 55h7v-209h-8q-23 38 -46.5 67.5t-51.5 51.5t-61.5 34.5t-73.5 12.5q-59 0 -108 -23t-84.5 -65.5t-54.5 -101t-19 -128.5q0 -69 19.5 -125.5t55 -97t85.5 -62t110 -21.5q28 0 53 5t47.5 15t42.5 26.5t36 38.5zM416 950
q11 -21 28 -45t37.5 -49t42.5 -48t43 -42h-32q-20 11 -37 21t-32.5 21t-30 23t-28.5 26q-14 -14 -28.5 -26t-30 -23t-32.5 -21t-37 -21h-32q21 19 43 42t42.5 48t37.5 49t28 45h18z" />
    <glyph glyph-name="gcircumflex" unicode="&#x11d;" horiz-adv-x="572" 
d="M300 756q11 -21 27.5 -48t37 -55.5t42 -54.5t41.5 -46h-28q-18 10 -35 22.5t-32.5 25t-29 25.5t-31.5 30q-18 -17 -31.5 -30t-29 -25.5t-32.5 -25t-35 -22.5h-28q20 20 41.5 46t42 54.5t37 55.5t27.5 48h16zM364 335q0 30 -7 53.5t-20 39t-31.5 23.5t-41.5 8t-41.5 -8
t-31.5 -23.5t-20 -39t-7 -53.5t7 -53.5t20 -39t31.5 -23.5t41.5 -8t41.5 8t31.5 23.5t20 39t7 53.5zM528 -49q0 -43 -21.5 -76t-58.5 -55.5t-85.5 -33.5t-101.5 -11q-48 0 -91 8t-76.5 24.5t-52.5 42t-19 59.5q0 20 9 37.5t26.5 31.5t42.5 23.5t56 13.5q-21 4 -38.5 11
t-30.5 17.5t-20.5 26t-7.5 35.5q0 18 6.5 33.5t18 28.5t26.5 22.5t32 16.5q-17 11 -30 25t-21.5 30.5t-13 35t-4.5 38.5q0 34 12.5 63t37 51t60.5 34.5t81 12.5q22 0 42 -3t37 -8.5t32 -13.5t27 -18q11 14 22.5 26.5t24.5 22.5t28 15.5t30 5.5q14 0 25.5 -4t19.5 -12
t12.5 -18.5t4.5 -23.5q0 -11 -4.5 -21t-12.5 -17.5t-18 -11.5t-21 -4q0 10 -2.5 19t-7.5 16t-12.5 10.5t-17.5 3.5q-7 0 -13.5 -2t-13 -5.5t-12.5 -8.5t-12 -12q9 -10 15 -21t10.5 -23.5t6.5 -25.5t2 -27q0 -34 -12.5 -63t-37.5 -51t-61 -34.5t-81 -12.5q-15 0 -28.5 1.5
t-26 4t-24 6t-21.5 8.5q-9 -5 -17 -10.5t-14 -12t-9 -14.5t-3 -17q0 -14 5 -23.5t14.5 -15.5t24.5 -8.5t35 -2.5h139q44 0 79 -8.5t59.5 -26t37.5 -44t13 -60.5zM334 8h-105q-31 -1 -55 -7.5t-39.5 -18.5t-23.5 -28.5t-8 -38.5q0 -25 12 -44.5t34 -31.5t50.5 -18t61.5 -6
q41 0 75.5 7.5t60 22t39.5 35.5t14 47q0 19 -6.5 34t-20.5 25.5t-36 16t-53 5.5z" />
    <glyph glyph-name="Gbreve" unicode="&#x11e;" horiz-adv-x="779" 
d="M291 942q2 -23 12 -41.5t26 -30.5t36 -18t42 -6t42 6t36 18t26 30.5t12 41.5h26q0 -37 -11 -67.5t-30 -52.5t-45 -34t-56 -12t-56 12t-45 34t-30 52.5t-11 67.5h26zM600 128v94q0 25 -3.5 40.5t-10.5 25.5t-18 18t-32 20v8h219v-8q-21 -12 -32 -20t-18.5 -18t-11 -25.5
t-3.5 -40.5v-231h-23l-53 100q-15 -22 -37 -40.5t-50 -32t-61 -21t-69 -7.5q-75 0 -139.5 25.5t-111.5 73.5t-73 113.5t-26 143.5q0 79 27 146t76.5 116t116.5 75.5t145 26.5q29 0 56 -4t50.5 -12t43 -17.5t35.5 -21.5l54 55h7v-209h-8q-23 38 -46.5 67.5t-51.5 51.5
t-61.5 34.5t-73.5 12.5q-59 0 -108 -23t-84.5 -65.5t-54.5 -101t-19 -128.5q0 -69 19.5 -125.5t55 -97t85.5 -62t110 -21.5q28 0 53 5t47.5 15t42.5 26.5t36 38.5z" />
    <glyph glyph-name="gbreve" unicode="&#x11f;" horiz-adv-x="572" 
d="M364 335q0 30 -7 53.5t-20 39t-31.5 23.5t-41.5 8t-41.5 -8t-31.5 -23.5t-20 -39t-7 -53.5t7 -53.5t20 -39t31.5 -23.5t41.5 -8t41.5 8t31.5 23.5t20 39t7 53.5zM528 -49q0 -43 -21.5 -76t-58.5 -55.5t-85.5 -33.5t-101.5 -11q-48 0 -91 8t-76.5 24.5t-52.5 42t-19 59.5
q0 20 9 37.5t26.5 31.5t42.5 23.5t56 13.5q-21 4 -38.5 11t-30.5 17.5t-20.5 26t-7.5 35.5q0 18 6.5 33.5t18 28.5t26.5 22.5t32 16.5q-17 11 -30 25t-21.5 30.5t-13 35t-4.5 38.5q0 34 12.5 63t37 51t60.5 34.5t81 12.5q22 0 42 -3t37 -8.5t32 -13.5t27 -18
q11 14 22.5 26.5t24.5 22.5t28 15.5t30 5.5q14 0 25.5 -4t19.5 -12t12.5 -18.5t4.5 -23.5q0 -11 -4.5 -21t-12.5 -17.5t-18 -11.5t-21 -4q0 10 -2.5 19t-7.5 16t-12.5 10.5t-17.5 3.5q-7 0 -13.5 -2t-13 -5.5t-12.5 -8.5t-12 -12q9 -10 15 -21t10.5 -23.5t6.5 -25.5t2 -27
q0 -34 -12.5 -63t-37.5 -51t-61 -34.5t-81 -12.5q-15 0 -28.5 1.5t-26 4t-24 6t-21.5 8.5q-9 -5 -17 -10.5t-14 -12t-9 -14.5t-3 -17q0 -14 5 -23.5t14.5 -15.5t24.5 -8.5t35 -2.5h139q44 0 79 -8.5t59.5 -26t37.5 -44t13 -60.5zM334 8h-105q-31 -1 -55 -7.5t-39.5 -18.5
t-23.5 -28.5t-8 -38.5q0 -25 12 -44.5t34 -31.5t50.5 -18t61.5 -6q41 0 75.5 7.5t60 22t39.5 35.5t14 47q0 19 -6.5 34t-20.5 25.5t-36 16t-53 5.5zM176 742q2 -26 12 -45.5t26 -32.5t36 -19.5t42 -6.5t42 6.5t36 19.5t26 32.5t12 45.5h26q0 -39 -11 -71.5t-30 -55.5
t-45 -35t-56 -12t-56 12t-45 35t-30 55.5t-11 71.5h26z" />
    <glyph glyph-name="Gdotaccent" unicode="&#x120;" horiz-adv-x="779" 
d="M407 786q-13 0 -24.5 5t-20 13.5t-13.5 19.5t-5 24t5 24.5t13.5 20t20 13.5t24.5 5t24.5 -5t20 -13.5t13.5 -20t5 -24.5t-5 -24t-13.5 -19.5t-20 -13.5t-24.5 -5zM600 128v94q0 25 -3.5 40.5t-10.5 25.5t-18 18t-32 20v8h219v-8q-21 -12 -32 -20t-18.5 -18t-11 -25.5
t-3.5 -40.5v-231h-23l-53 100q-15 -22 -37 -40.5t-50 -32t-61 -21t-69 -7.5q-75 0 -139.5 25.5t-111.5 73.5t-73 113.5t-26 143.5q0 79 27 146t76.5 116t116.5 75.5t145 26.5q29 0 56 -4t50.5 -12t43 -17.5t35.5 -21.5l54 55h7v-209h-8q-23 38 -46.5 67.5t-51.5 51.5
t-61.5 34.5t-73.5 12.5q-59 0 -108 -23t-84.5 -65.5t-54.5 -101t-19 -128.5q0 -69 19.5 -125.5t55 -97t85.5 -62t110 -21.5q28 0 53 5t47.5 15t42.5 26.5t36 38.5z" />
    <glyph glyph-name="gdotaccent" unicode="&#x121;" horiz-adv-x="572" 
d="M364 335q0 30 -7 53.5t-20 39t-31.5 23.5t-41.5 8t-41.5 -8t-31.5 -23.5t-20 -39t-7 -53.5t7 -53.5t20 -39t31.5 -23.5t41.5 -8t41.5 8t31.5 23.5t20 39t7 53.5zM528 -49q0 -43 -21.5 -76t-58.5 -55.5t-85.5 -33.5t-101.5 -11q-48 0 -91 8t-76.5 24.5t-52.5 42t-19 59.5
q0 20 9 37.5t26.5 31.5t42.5 23.5t56 13.5q-21 4 -38.5 11t-30.5 17.5t-20.5 26t-7.5 35.5q0 18 6.5 33.5t18 28.5t26.5 22.5t32 16.5q-17 11 -30 25t-21.5 30.5t-13 35t-4.5 38.5q0 34 12.5 63t37 51t60.5 34.5t81 12.5q22 0 42 -3t37 -8.5t32 -13.5t27 -18
q11 14 22.5 26.5t24.5 22.5t28 15.5t30 5.5q14 0 25.5 -4t19.5 -12t12.5 -18.5t4.5 -23.5q0 -11 -4.5 -21t-12.5 -17.5t-18 -11.5t-21 -4q0 10 -2.5 19t-7.5 16t-12.5 10.5t-17.5 3.5q-7 0 -13.5 -2t-13 -5.5t-12.5 -8.5t-12 -12q9 -10 15 -21t10.5 -23.5t6.5 -25.5t2 -27
q0 -34 -12.5 -63t-37.5 -51t-61 -34.5t-81 -12.5q-15 0 -28.5 1.5t-26 4t-24 6t-21.5 8.5q-9 -5 -17 -10.5t-14 -12t-9 -14.5t-3 -17q0 -14 5 -23.5t14.5 -15.5t24.5 -8.5t35 -2.5h139q44 0 79 -8.5t59.5 -26t37.5 -44t13 -60.5zM334 8h-105q-31 -1 -55 -7.5t-39.5 -18.5
t-23.5 -28.5t-8 -38.5q0 -25 12 -44.5t34 -31.5t50.5 -18t61.5 -6q41 0 75.5 7.5t60 22t39.5 35.5t14 47q0 19 -6.5 34t-20.5 25.5t-36 16t-53 5.5zM292 594q-13 0 -24.5 5t-20 13.5t-13.5 19.5t-5 24t5 24.5t13.5 20t20 13.5t24.5 5t24.5 -5t20 -13.5t13.5 -20t5 -24.5
t-5 -24t-13.5 -19.5t-20 -13.5t-24.5 -5z" />
    <glyph glyph-name="Gcommaaccent" unicode="&#x122;" horiz-adv-x="779" 
d="M430 -151q-3 -3 -7 -4.5l-8 -3t-8.5 -2t-9.5 -0.5q-11 0 -20 4t-16 11t-11 15.5t-4 18.5q0 12 4 22t12 17.5t18.5 11.5t23.5 4q16 0 29 -6t23 -17t15.5 -26.5t5.5 -34.5q0 -22 -9 -41.5t-26.5 -35.5t-44 -25.5t-60.5 -10.5v26q20 2 36.5 7.5t29.5 14.5t20 23t7 32z
M600 128v94q0 25 -3.5 40.5t-10.5 25.5t-18 18t-32 20v8h219v-8q-21 -12 -32 -20t-18.5 -18t-11 -25.5t-3.5 -40.5v-231h-23l-53 100q-15 -22 -37 -40.5t-50 -32t-61 -21t-69 -7.5q-75 0 -139.5 25.5t-111.5 73.5t-73 113.5t-26 143.5q0 79 27 146t76.5 116t116.5 75.5
t145 26.5q29 0 56 -4t50.5 -12t43 -17.5t35.5 -21.5l54 55h7v-209h-8q-23 38 -46.5 67.5t-51.5 51.5t-61.5 34.5t-73.5 12.5q-59 0 -108 -23t-84.5 -65.5t-54.5 -101t-19 -128.5q0 -69 19.5 -125.5t55 -97t85.5 -62t110 -21.5q28 0 53 5t47.5 15t42.5 26.5t36 38.5z" />
    <glyph glyph-name="gcommaaccent" unicode="&#x123;" horiz-adv-x="572" 
d="M269 659q3 3 7 4.5l8 3t8.5 2t9.5 0.5q11 0 20 -4t16 -11t11 -15.5t4 -18.5q0 -12 -4 -22t-12 -17.5t-18.5 -11.5t-23.5 -4q-16 0 -29 6t-23 17t-15.5 26.5t-5.5 34.5q0 22 9 41.5t26.5 35.5t44 25.5t60.5 10.5v-26q-20 -2 -36.5 -7.5t-29.5 -14.5t-20 -23t-7 -32z
M364 335q0 30 -7 53.5t-20 39t-31.5 23.5t-41.5 8t-41.5 -8t-31.5 -23.5t-20 -39t-7 -53.5t7 -53.5t20 -39t31.5 -23.5t41.5 -8t41.5 8t31.5 23.5t20 39t7 53.5zM528 -49q0 -43 -21.5 -76t-58.5 -55.5t-85.5 -33.5t-101.5 -11q-48 0 -91 8t-76.5 24.5t-52.5 42t-19 59.5
q0 20 9 37.5t26.5 31.5t42.5 23.5t56 13.5q-21 4 -38.5 11t-30.5 17.5t-20.5 26t-7.5 35.5q0 18 6.5 33.5t18 28.5t26.5 22.5t32 16.5q-17 11 -30 25t-21.5 30.5t-13 35t-4.5 38.5q0 34 12.5 63t37 51t60.5 34.5t81 12.5q22 0 42 -3t37 -8.5t32 -13.5t27 -18
q11 14 22.5 26.5t24.5 22.5t28 15.5t30 5.5q14 0 25.5 -4t19.5 -12t12.5 -18.5t4.5 -23.5q0 -11 -4.5 -21t-12.5 -17.5t-18 -11.5t-21 -4q0 10 -2.5 19t-7.5 16t-12.5 10.5t-17.5 3.5q-7 0 -13.5 -2t-13 -5.5t-12.5 -8.5t-12 -12q9 -10 15 -21t10.5 -23.5t6.5 -25.5t2 -27
q0 -34 -12.5 -63t-37.5 -51t-61 -34.5t-81 -12.5q-15 0 -28.5 1.5t-26 4t-24 6t-21.5 8.5q-9 -5 -17 -10.5t-14 -12t-9 -14.5t-3 -17q0 -14 5 -23.5t14.5 -15.5t24.5 -8.5t35 -2.5h139q44 0 79 -8.5t59.5 -26t37.5 -44t13 -60.5zM334 8h-105q-31 -1 -55 -7.5t-39.5 -18.5
t-23.5 -28.5t-8 -38.5q0 -25 12 -44.5t34 -31.5t50.5 -18t61.5 -6q41 0 75.5 7.5t60 22t39.5 35.5t14 47q0 19 -6.5 34t-20.5 25.5t-36 16t-53 5.5z" />
    <glyph glyph-name="Hcircumflex" unicode="&#x124;" horiz-adv-x="822" 
d="M47 0v8q20 11 31 19t18.5 18.5t10.5 26t3 40.5v476q0 25 -3 40.5t-10.5 26t-18.5 18.5t-31 19v8h218v-8q-21 -11 -32 -19t-18 -18.5t-10.5 -26t-3.5 -40.5v-208h419v208q0 25 -3 40.5t-10.5 26t-18.5 18.5t-31 19v8h218v-8q-21 -11 -32 -19t-18 -18.5t-10.5 -26
t-3.5 -40.5v-476q0 -25 3.5 -40.5t10.5 -26t18 -18.5t32 -19v-8h-218v8q20 11 31 19t18.5 18.5t10.5 26t3 40.5v227h-419v-227q0 -25 3.5 -40.5t10.5 -26t18 -18.5t32 -19v-8h-218zM419 950q11 -21 28 -45t37.5 -49t42.5 -48t43 -42h-32q-20 11 -37 21t-32.5 21t-30 23
t-28.5 26q-14 -14 -28.5 -26t-30 -23t-32.5 -21t-37 -21h-32q21 19 43 42t42.5 48t37.5 49t28 45h18z" />
    <glyph glyph-name="hcircumflex" unicode="&#x125;" horiz-adv-x="608" 
d="M516 322v-213q0 -25 3 -40t9 -25t15.5 -17.5t29.5 -19.5v-7h-201v7q20 12 29.5 19.5t15.5 17.5t9 25t3 40v198q0 26 -5.5 48.5t-18 40.5t-32.5 28t-49 10q-28 0 -53.5 -11.5t-45 -34.5t-30.5 -56.5t-11 -75.5v-147q0 -25 3 -40t9 -25t15.5 -17.5t29.5 -19.5v-7h-201v7
q20 12 29.5 19.5t15.5 17.5t9 25t3 40v536q0 20 -5 34.5t-14 25t-19.5 18t-29.5 19.5v7h155v-384q11 31 28 55.5t39.5 41.5t50 25.5t58.5 8.5q38 0 67 -12t49 -34.5t30 -55t10 -72.5zM310 984q11 -21 28 -45t37.5 -49t42.5 -48t43 -42h-32q-20 11 -37 21t-32.5 21t-30 23
t-28.5 26q-14 -14 -28.5 -26t-30 -23t-32.5 -21t-37 -21h-32q21 19 43 42t42.5 48t37.5 49t28 45h18z" />
    <glyph glyph-name="Hbar" unicode="&#x126;" horiz-adv-x="846" 
d="M633 465h-419v-137h419v137zM59 0v8q21 11 32 19t18 18.5t10.5 26t3.5 40.5v353h-74v41h74v82q0 25 -3.5 40.5t-10.5 26t-18 18.5t-32 19v8h218v-8q-20 -11 -31 -19t-18.5 -18.5t-10.5 -26t-3 -40.5v-82h419v82q0 25 -3.5 40.5t-10.5 26t-18 18.5t-32 19v8h218v-8
q-20 -11 -31 -19t-18.5 -18.5t-10.5 -26t-3 -40.5v-82h73v-41h-73v-353q0 -25 3 -40.5t10.5 -26t18.5 -18.5t31 -19v-8h-218v8q21 11 32 19t18 18.5t10.5 26t3.5 40.5v175h-419v-175q0 -25 3 -40.5t10.5 -26t18.5 -18.5t31 -19v-8h-218z" />
    <glyph glyph-name="hbar" unicode="&#x127;" horiz-adv-x="610" 
d="M243 7v-7h-201v7q20 12 29.5 19.5t15.5 17.5t9 25t3 40v457h-73v36h73v43q0 20 -5 34.5t-14 25t-19.5 18t-29.5 19.5v7h155v-147h138v-36h-138v-201q11 31 28 55.5t39.5 41.5t50 25.5t58.5 8.5q38 0 67 -12t49 -34.5t30 -55t10 -72.5v-213q0 -25 3 -40t9 -25t15.5 -17.5
t29.5 -19.5v-7h-201v7q20 12 29.5 19.5t15.5 17.5t9 25t3 40v198q0 26 -5.5 48.5t-18 40.5t-32.5 28t-49 10q-28 0 -53.5 -11.5t-45 -34.5t-30.5 -56.5t-11 -75.5v-147q0 -25 3 -40t9 -25t15.5 -17.5t29.5 -19.5z" />
    <glyph glyph-name="Itilde" unicode="&#x128;" horiz-adv-x="312" 
d="M110 588q0 25 -3 40.5t-10.5 26t-18.5 18.5t-31 19v8h218v-8q-21 -11 -32 -19t-18 -18.5t-10.5 -26t-3.5 -40.5v-476q0 -25 3.5 -40.5t10.5 -26t18 -18.5t32 -19v-8h-218v8q20 11 31 19t18.5 18.5t10.5 26t3 40.5v476zM-1 786h-25q9 33 21 58.5t26 43t30 26.5t34 9
t36.5 -8t43.5 -24.5t40 -24t30 -7.5t26 4.5t20 13.5t16.5 21t15.5 29h25q-9 -33 -21 -58t-26 -42.5t-30 -26.5t-34 -9t-36.5 8t-43.5 24t-40 23.5t-30 7.5t-26 -4.5t-20 -13.5t-16.5 -21t-15.5 -29z" />
    <glyph glyph-name="itilde" unicode="&#x129;" horiz-adv-x="281" 
d="M8 578h-25q9 34 19.5 59t22.5 42t26.5 26t32.5 9t32.5 -8.5t33 -24.5t30 -23.5t25.5 -7.5q12 0 21.5 4.5t17.5 13.5t15 21t15 29h25q-10 -34 -20 -59t-22.5 -42t-27 -26t-32.5 -9q-17 0 -31.5 8t-33 24t-30.5 23.5t-26 7.5q-12 0 -21.5 -4.5t-17 -13t-14.5 -20.5t-15 -29
zM189 486v-377q0 -25 3 -40t9 -25t15.5 -17.5t29.5 -19.5v-7h-201v7q20 12 29.5 19.5t15.5 17.5t9 25t3 40v274q0 19 -5 33.5t-13.5 25.5t-19.5 19t-29 19v6h154z" />
    <glyph glyph-name="Imacron" unicode="&#x12a;" horiz-adv-x="312" 
d="M110 588q0 25 -3 40.5t-10.5 26t-18.5 18.5t-31 19v8h218v-8q-21 -11 -32 -19t-18 -18.5t-10.5 -26t-3.5 -40.5v-476q0 -25 3.5 -40.5t10.5 -26t18 -18.5t32 -19v-8h-218v8q20 11 31 19t18.5 18.5t10.5 26t3 40.5v476zM294 790h-276v55h276v-55z" />
    <glyph glyph-name="imacron" unicode="&#x12b;" horiz-adv-x="281" 
d="M263 590h-244v55h244v-55zM189 486v-377q0 -25 3 -40t9 -25t15.5 -17.5t29.5 -19.5v-7h-201v7q20 12 29.5 19.5t15.5 17.5t9 25t3 40v274q0 19 -5 33.5t-13.5 25.5t-19.5 19t-29 19v6h154z" />
    <glyph glyph-name="Ibreve" unicode="&#x12c;" horiz-adv-x="312" 
d="M110 588q0 25 -3 40.5t-10.5 26t-18.5 18.5t-31 19v8h218v-8q-21 -11 -32 -19t-18 -18.5t-10.5 -26t-3.5 -40.5v-476q0 -25 3.5 -40.5t10.5 -26t18 -18.5t32 -19v-8h-218v8q20 11 31 19t18.5 18.5t10.5 26t3 40.5v476zM40 942q2 -23 12 -41.5t26 -30.5t36 -18t42 -6t42 6
t36 18t26 30.5t12 41.5h26q0 -37 -11 -67.5t-30 -52.5t-45 -34t-56 -12t-56 12t-45 34t-30 52.5t-11 67.5h26z" />
    <glyph glyph-name="ibreve" unicode="&#x12d;" horiz-adv-x="281" 
d="M189 486v-377q0 -25 3 -40t9 -25t15.5 -17.5t29.5 -19.5v-7h-201v7q20 12 29.5 19.5t15.5 17.5t9 25t3 40v274q0 19 -5 33.5t-13.5 25.5t-19.5 19t-29 19v6h154zM25 742q2 -26 12 -45.5t26 -32.5t36 -19.5t42 -6.5t42 6.5t36 19.5t26 32.5t12 45.5h26q0 -39 -11 -71.5
t-30 -55.5t-45 -35t-56 -12t-56 12t-45 35t-30 55.5t-11 71.5h26z" />
    <glyph glyph-name="Iogonek" unicode="&#x12e;" horiz-adv-x="312" 
d="M39 -150q0 28 13.5 51.5t36 43.5t48.5 37q13 8 30 18h-120v8q20 11 31 19t18.5 18.5t10.5 26t3 40.5v476q0 25 -3 40.5t-10.5 26t-18.5 18.5t-31 19v8h218v-8q-21 -11 -32 -19t-18 -18.5t-10.5 -26t-3.5 -40.5v-476q0 -25 3.5 -40.5t10.5 -26t18 -18.5t32 -19v-8h-57
q-24 -17 -41 -32q-19 -17 -32 -32.5t-20 -32t-7 -33.5q0 -15 4 -25.5t12 -17.5t17.5 -10.5t21.5 -3.5q14 0 27 4t25 11t23 17t21 23l14 -12q-9 -19 -22.5 -35.5t-31 -29.5t-39.5 -20.5t-48 -7.5q-18 0 -35 6t-30 17t-20.5 27.5t-7.5 36.5z" />
    <glyph glyph-name="iogonek" unicode="&#x12f;" horiz-adv-x="281" 
d="M23 -150q0 28 13.5 51.5t36 43.5t48.5 37q13 8 30 18h-106v7q20 12 29.5 19.5t15.5 17.5t9 25t3 40v274q0 19 -5 33.5t-13.5 25.5t-19.5 19t-29 19v6h154v-377q0 -25 3 -40t9 -25t15.5 -17.5t29.5 -19.5v-7h-54q-24 -17 -41 -32q-19 -17 -32 -32.5t-20 -32t-7 -33.5
q0 -15 4 -25.5t12 -17.5t17.5 -10.5t21.5 -3.5q14 0 27 4t25 11t23 17t21 23l14 -12q-9 -19 -22.5 -35.5t-31 -29.5t-39.5 -20.5t-48 -7.5q-18 0 -35 6t-30 17t-20.5 27.5t-7.5 36.5zM77 656q0 13 4.5 24.5t13.5 20t20.5 13.5t24.5 5t24.5 -5t20 -13.5t13.5 -20t5 -24.5
t-5 -24t-13.5 -19.5t-20 -13.5t-24.5 -5t-24.5 5t-20.5 13.5t-13.5 19.5t-4.5 24z" />
    <glyph glyph-name="Idotaccent" unicode="&#x130;" horiz-adv-x="312" 
d="M110 588q0 25 -3 40.5t-10.5 26t-18.5 18.5t-31 19v8h218v-8q-21 -11 -32 -19t-18 -18.5t-10.5 -26t-3.5 -40.5v-476q0 -25 3.5 -40.5t10.5 -26t18 -18.5t32 -19v-8h-218v8q20 11 31 19t18.5 18.5t10.5 26t3 40.5v476zM156 786q-13 0 -24.5 5t-20 13.5t-13.5 19.5t-5 24
t5 24.5t13.5 20t20 13.5t24.5 5t24.5 -5t20 -13.5t13.5 -20t5 -24.5t-5 -24t-13.5 -19.5t-20 -13.5t-24.5 -5z" />
    <glyph glyph-name="dotlessi" unicode="&#x131;" horiz-adv-x="281" 
d="M189 486v-377q0 -25 3 -40t9 -25t15.5 -17.5t29.5 -19.5v-7h-201v7q20 12 29.5 19.5t15.5 17.5t9 25t3 40v274q0 19 -5 33.5t-13.5 25.5t-19.5 19t-29 19v6h154z" />
    <glyph glyph-name="Jcircumflex" unicode="&#x134;" horiz-adv-x="576" 
d="M388 216v372q0 25 -3.5 40.5t-10.5 26t-18 18.5t-32 19v8h218v-8q-20 -11 -31 -19t-18.5 -18.5t-10.5 -26t-3 -40.5v-377q0 -51 -17 -92.5t-48 -70t-73 -43.5t-92 -15q-47 0 -88 13.5t-71 37.5t-46 56t-16 69q0 22 7 40.5t20 31.5t30.5 20t36.5 7q8 0 15 -1t13 -3
t11.5 -5t9.5 -7q-12 -8 -21 -16.5t-15.5 -20.5t-10 -26.5t-3.5 -33.5q0 -27 9 -49.5t26.5 -39t41 -25.5t51.5 -9q36 0 62.5 13t43.5 37.5t25 59t8 77.5zM440 950q11 -21 28 -45t37.5 -49t42.5 -48t43 -42h-32q-20 11 -37 21t-32.5 21t-30 23t-28.5 26q-14 -14 -28.5 -26
t-30 -23t-32.5 -21t-37 -21h-32q21 19 43 42t42.5 48t37.5 49t28 45h18z" />
    <glyph glyph-name="jcircumflex" unicode="&#x135;" horiz-adv-x="269" 
d="M146 756q11 -21 27.5 -48t37 -55.5t42 -54.5t41.5 -46h-28q-18 10 -35 22.5t-32.5 25t-29 25.5t-31.5 30q-18 -17 -31.5 -30t-29 -25.5t-32.5 -25t-35 -22.5h-28q20 20 41.5 46t42 54.5t37 55.5t27.5 48h16zM97 -60v443q0 20 -5 34t-14 25t-20 19t-29 19v6h155v-520
q0 -45 -11 -80.5t-32.5 -60t-53 -37.5t-71.5 -13q-29 0 -53 6t-41 18t-26.5 28t-9.5 36q0 14 5 25t14 18t20.5 10.5t25.5 3.5q3 0 6.5 -0.5l7 -1t6.5 -1t5 -1.5q-2 -5 -4 -10.5t-3 -11.5t-1.5 -12t-0.5 -12q0 -13 4 -24t11.5 -19.5t18 -13t23.5 -4.5q20 0 34 9.5t22.5 26.5
t12.5 41t4 54z" />
    <glyph glyph-name="Kcommaaccent" unicode="&#x136;" horiz-adv-x="733" 
d="M385 -151q-3 -3 -7 -4.5l-8 -3t-8.5 -2t-9.5 -0.5q-11 0 -20 4t-16 11t-11 15.5t-4 18.5q0 12 4 22t12 17.5t18.5 11.5t23.5 4q16 0 29 -6t23 -17t15.5 -26.5t5.5 -34.5q0 -22 -9 -41.5t-26.5 -35.5t-44 -25.5t-60.5 -10.5v26q20 2 36.5 7.5t29.5 14.5t20 23t7 32zM265 0
h-218v8q20 11 31 19t18.5 18.5t10.5 26t3 40.5v476q0 25 -3 40.5t-10.5 26t-18.5 18.5t-31 19v8h218v-8q-21 -11 -32 -19t-18 -18.5t-10.5 -26t-3.5 -40.5v-259l305 284q5 5 9 10t6.5 9.5t3.5 8.5t1 9q0 6 -3 11t-8.5 10t-12.5 9.5t-19 11.5v8h207v-8q-25 -12 -45 -23.5
t-38 -23.5t-35 -26t-35 -31l-192 -178l252 -298q17 -19 32.5 -35t30.5 -29t30.5 -23t31.5 -17v-8h-222v8q9 5 13.5 8t8.5 7t6.5 8.5t2.5 9.5t-1.5 9.5t-4 9.5t-6.5 10.5t-12 15.5l-227 266l-79 -71v-169q0 -25 3.5 -40.5t10.5 -26t18 -18.5t32 -19v-8z" />
    <glyph glyph-name="kcommaaccent" unicode="&#x137;" horiz-adv-x="581" 
d="M331 -151q-3 -3 -7 -4.5l-8 -3t-8.5 -2t-9.5 -0.5q-11 0 -20 4t-16 11t-11 15.5t-4 18.5q0 12 4 22t12 17.5t18.5 11.5t23.5 4q16 0 29 -6t23 -17t15.5 -26.5t5.5 -34.5q0 -22 -9 -41.5t-26.5 -35.5t-44 -25.5t-60.5 -10.5v26q20 2 36.5 7.5t29.5 14.5t20 23t7 32zM241 7
v-7h-201v7q20 12 29.5 19.5t15.5 17.5t9 25t3 40v536q0 20 -5 34.5t-14 25t-19.5 18t-29.5 19.5v7h155v-463h24q10 0 17.5 1t13.5 3t11.5 5.5t10.5 8.5l118 110l9 9t6 7.5t3 6.5t1 7q0 5 -2 9.5t-6 8.5t-9 8.5t-13 9.5v6h190v-6q-20 -7 -37 -14t-33.5 -16.5t-33 -22
t-34.5 -28.5l-111 -105l160 -203q12 -16 25.5 -28t27.5 -21.5t29 -17t35 -16.5v-8h-172q-2 10 -5 18.5t-7 16.5t-10 16.5t-14 18.5l-124 159q-5 6 -9 10t-8 6.5t-9 3.5t-12 1h-32v-141q0 -25 3 -40t9 -25t15.5 -17.5t29.5 -19.5z" />
    <glyph glyph-name="kgreenlandic" unicode="&#x138;" horiz-adv-x="581" 
d="M241 7v-7h-201v7q20 12 29.5 19.5t15.5 17.5t9 25t3 40v274q0 19 -5 33.5t-14 25t-20 18.5t-29 20v6h155v-200h24q10 0 17.5 1t13.5 3t11.5 5.5t10.5 8.5l118 110l9 9t6 7.5t3 6.5t1 7q0 5 -2 9.5t-6 8.5t-9 8.5t-13 9.5v6h190v-6q-20 -7 -37 -14t-33.5 -16.5t-33 -22
t-34.5 -28.5l-111 -105l160 -203q12 -16 25.5 -28t27.5 -21.5t29 -17t35 -16.5v-8h-172q-2 10 -5 18.5t-7 16.5t-10 16.5t-14 18.5l-124 159q-5 6 -9 10t-8 6.5t-9 3.5t-12 1h-32v-141q0 -25 3 -40t9 -25t15.5 -17.5t29.5 -19.5z" />
    <glyph glyph-name="Lacute" unicode="&#x139;" horiz-adv-x="630" 
d="M207 933h120l-159 -164h-19zM201 588v-549h173q42 0 71 8t52 25.5t44.5 45.5t52.5 76h8l-37 -194h-518v8q20 11 31 19t18.5 18.5t10.5 26t3 40.5v476q0 25 -3 40.5t-10.5 26t-18.5 18.5t-31 19v8h218v-8q-21 -11 -32 -19t-18 -18.5t-10.5 -26t-3.5 -40.5z" />
    <glyph glyph-name="lacute" unicode="&#x13a;" horiz-adv-x="278" 
d="M173 967h120l-159 -164h-19zM184 749v-640q0 -25 3 -40t9 -25t15.5 -17.5t29.5 -19.5v-7h-201v7q20 12 29.5 19.5t15.5 17.5t9 25t3 40v536q0 20 -5 34.5t-14 25t-19.5 18t-29.5 19.5v7h155z" />
    <glyph glyph-name="Lcommaaccent" unicode="&#x13b;" horiz-adv-x="630" 
d="M350 -151q-3 -3 -7 -4.5l-8 -3t-8.5 -2t-9.5 -0.5q-11 0 -20 4t-16 11t-11 15.5t-4 18.5q0 12 4 22t12 17.5t18.5 11.5t23.5 4q16 0 29 -6t23 -17t15.5 -26.5t5.5 -34.5q0 -22 -9 -41.5t-26.5 -35.5t-44 -25.5t-60.5 -10.5v26q20 2 36.5 7.5t29.5 14.5t20 23t7 32z
M201 588v-549h173q42 0 71 8t52 25.5t44.5 45.5t52.5 76h8l-37 -194h-518v8q20 11 31 19t18.5 18.5t10.5 26t3 40.5v476q0 25 -3 40.5t-10.5 26t-18.5 18.5t-31 19v8h218v-8q-21 -11 -32 -19t-18 -18.5t-10.5 -26t-3.5 -40.5z" />
    <glyph glyph-name="lcommaaccent" unicode="&#x13c;" horiz-adv-x="278" 
d="M158 -151q-3 -3 -7 -4.5l-8 -3t-8.5 -2t-9.5 -0.5q-11 0 -20 4t-16 11t-11 15.5t-4 18.5q0 12 4 22t12 17.5t18.5 11.5t23.5 4q16 0 29 -6t23 -17t15.5 -26.5t5.5 -34.5q0 -22 -9 -41.5t-26.5 -35.5t-44 -25.5t-60.5 -10.5v26q20 2 36.5 7.5t29.5 14.5t20 23t7 32z
M184 749v-640q0 -25 3 -40t9 -25t15.5 -17.5t29.5 -19.5v-7h-201v7q20 12 29.5 19.5t15.5 17.5t9 25t3 40v536q0 20 -5 34.5t-14 25t-19.5 18t-29.5 19.5v7h155z" />
    <glyph glyph-name="Lcaron" unicode="&#x13d;" horiz-adv-x="630" 
d="M542 700l-97 -205h-18l18 205h97zM201 588v-549h173q42 0 71 8t52 25.5t44.5 45.5t52.5 76h8l-37 -194h-518v8q20 11 31 19t18.5 18.5t10.5 26t3 40.5v476q0 25 -3 40.5t-10.5 26t-18.5 18.5t-31 19v8h218v-8q-21 -11 -32 -19t-18 -18.5t-10.5 -26t-3.5 -40.5z" />
    <glyph glyph-name="lcaron" unicode="&#x13e;" horiz-adv-x="278" 
d="M394 749l-97 -205h-18l18 205h97zM184 749v-640q0 -25 3 -40t9 -25t15.5 -17.5t29.5 -19.5v-7h-201v7q20 12 29.5 19.5t15.5 17.5t9 25t3 40v536q0 20 -5 34.5t-14 25t-19.5 18t-29.5 19.5v7h155z" />
    <glyph glyph-name="Ldot" unicode="&#x13f;" horiz-adv-x="630" 
d="M201 588v-549h173q42 0 71 8t52 25.5t44.5 45.5t52.5 76h8l-37 -194h-518v8q20 11 31 19t18.5 18.5t10.5 26t3 40.5v476q0 25 -3 40.5t-10.5 26t-18.5 18.5t-31 19v8h218v-8q-21 -11 -32 -19t-18 -18.5t-10.5 -26t-3.5 -40.5zM516 336q-13 0 -24.5 5t-20 13.5t-13.5 19.5
t-5 24t5 24.5t13.5 20t20 13.5t24.5 5t24.5 -5t20 -13.5t13.5 -20t5 -24.5t-5 -24t-13.5 -19.5t-20 -13.5t-24.5 -5z" />
    <glyph glyph-name="ldot" unicode="&#x140;" horiz-adv-x="405" 
d="M184 749v-640q0 -25 3 -40t9 -25t15.5 -17.5t29.5 -19.5v-7h-201v7q20 12 29.5 19.5t15.5 17.5t9 25t3 40v536q0 20 -5 34.5t-14 25t-19.5 18t-29.5 19.5v7h155zM342 312q-13 0 -24.5 5t-20 13.5t-13.5 19.5t-5 24t5 24.5t13.5 20t20 13.5t24.5 5t24.5 -5t20 -13.5
t13.5 -20t5 -24.5t-5 -24t-13.5 -19.5t-20 -13.5t-24.5 -5z" />
    <glyph glyph-name="Lslash" unicode="&#x141;" horiz-adv-x="631" 
d="M49 0v8q20 11 31 19t18.5 18.5t10.5 26t3 40.5v161l-73 -32v43l73 32v272q0 25 -3 40.5t-10.5 26t-18.5 18.5t-31 19v8h218v-8q-21 -11 -32 -19t-18 -18.5t-10.5 -26t-3.5 -40.5v-232l191 83v-44l-191 -84v-272h173q42 0 71 8t52 25.5t44.5 45.5t52.5 76h8l-37 -194h-518
z" />
    <glyph glyph-name="lslash" unicode="&#x142;" horiz-adv-x="324" 
d="M264 0h-201v7q20 12 29.5 19.5t15.5 17.5t9 25t3 40v269l-97 -44v41l97 45v225q0 20 -5 34.5t-14 25t-19.5 18t-29.5 19.5v7h155v-292l94 43v-41l-94 -44v-306q0 -25 3 -40t9 -25t15.5 -17.5t29.5 -19.5v-7z" />
    <glyph glyph-name="Nacute" unicode="&#x143;" horiz-adv-x="780" 
d="M433 933h120l-159 -164h-19zM626 182v405q0 24 -5 40t-14 26.5t-20.5 18t-35.5 20.5v8h198v-8q-24 -13 -35 -20.5t-20 -18t-14 -26.5t-5 -40v-595h-14l-502 625v-504q0 -24 5 -40t14 -26.5t20.5 -18t35.5 -20.5v-8h-198v8q24 13 35 20.5t20 18t14 26.5t5 40v475
q0 25 -3 40.5t-10.5 26t-18.5 18.5t-31 19v8h165z" />
    <glyph glyph-name="nacute" unicode="&#x144;" horiz-adv-x="613" 
d="M360 749h111l-159 -188h-19zM521 322v-213q0 -25 3 -40t9 -25t15.5 -17.5t29.5 -19.5v-7h-201v7q20 12 29.5 19.5t15.5 17.5t9 25t3 40v198q0 26 -5.5 48.5t-18 40.5t-32.5 28t-49 10q-28 0 -53.5 -11.5t-45 -34.5t-30.5 -56.5t-11 -75.5v-147q0 -25 3 -40t9 -25
t15.5 -17.5t29.5 -19.5v-7h-201v7q20 12 29.5 19.5t15.5 17.5t9 25t3 40v274q0 19 -5 33.5t-13.5 25.5t-19.5 19t-29 19v6h150l4 -121q11 31 28 55.5t39.5 41.5t50 25.5t58.5 8.5q38 0 67 -12t49 -34.5t30 -55t10 -72.5z" />
    <glyph glyph-name="Ncommaaccent" unicode="&#x145;" horiz-adv-x="780" 
d="M418 -151q-3 -3 -7 -4.5l-8 -3t-8.5 -2t-9.5 -0.5q-11 0 -20 4t-16 11t-11 15.5t-4 18.5q0 12 4 22t12 17.5t18.5 11.5t23.5 4q16 0 29 -6t23 -17t15.5 -26.5t5.5 -34.5q0 -22 -9 -41.5t-26.5 -35.5t-44 -25.5t-60.5 -10.5v26q20 2 36.5 7.5t29.5 14.5t20 23t7 32z
M626 182v405q0 24 -5 40t-14 26.5t-20.5 18t-35.5 20.5v8h198v-8q-24 -13 -35 -20.5t-20 -18t-14 -26.5t-5 -40v-595h-14l-502 625v-504q0 -24 5 -40t14 -26.5t20.5 -18t35.5 -20.5v-8h-198v8q24 13 35 20.5t20 18t14 26.5t5 40v475q0 25 -3 40.5t-10.5 26t-18.5 18.5
t-31 19v8h165z" />
    <glyph glyph-name="ncommaaccent" unicode="&#x146;" horiz-adv-x="613" 
d="M334 -151q-3 -3 -7 -4.5l-8 -3t-8.5 -2t-9.5 -0.5q-11 0 -20 4t-16 11t-11 15.5t-4 18.5q0 12 4 22t12 17.5t18.5 11.5t23.5 4q16 0 29 -6t23 -17t15.5 -26.5t5.5 -34.5q0 -22 -9 -41.5t-26.5 -35.5t-44 -25.5t-60.5 -10.5v26q20 2 36.5 7.5t29.5 14.5t20 23t7 32z
M521 322v-213q0 -25 3 -40t9 -25t15.5 -17.5t29.5 -19.5v-7h-201v7q20 12 29.5 19.5t15.5 17.5t9 25t3 40v198q0 26 -5.5 48.5t-18 40.5t-32.5 28t-49 10q-28 0 -53.5 -11.5t-45 -34.5t-30.5 -56.5t-11 -75.5v-147q0 -25 3 -40t9 -25t15.5 -17.5t29.5 -19.5v-7h-201v7
q20 12 29.5 19.5t15.5 17.5t9 25t3 40v274q0 19 -5 33.5t-13.5 25.5t-19.5 19t-29 19v6h150l4 -121q11 31 28 55.5t39.5 41.5t50 25.5t58.5 8.5q38 0 67 -12t49 -34.5t30 -55t10 -72.5z" />
    <glyph glyph-name="Ncaron" unicode="&#x147;" horiz-adv-x="780" 
d="M555 946q-21 -19 -43 -42t-42.5 -48t-37.5 -49t-28 -45h-18q-11 21 -28 45t-37.5 49t-42.5 48t-43 42h32q20 -11 37 -21t32.5 -21t30 -23t28.5 -26q14 14 28.5 26t30 23t32.5 21t37 21h32zM626 182v405q0 24 -5 40t-14 26.5t-20.5 18t-35.5 20.5v8h198v-8
q-24 -13 -35 -20.5t-20 -18t-14 -26.5t-5 -40v-595h-14l-502 625v-504q0 -24 5 -40t14 -26.5t20.5 -18t35.5 -20.5v-8h-198v8q24 13 35 20.5t20 18t14 26.5t5 40v475q0 25 -3 40.5t-10.5 26t-18.5 18.5t-31 19v8h165z" />
    <glyph glyph-name="ncaron" unicode="&#x148;" horiz-adv-x="613" 
d="M467 756q-20 -20 -41.5 -46t-42 -54t-37 -55t-27.5 -48h-16q-11 21 -27.5 48t-37 55t-42 54t-41.5 46h28q18 -10 35 -22t32.5 -25t29.5 -26t31 -29q17 16 31 29t29.5 26t32.5 25t35 22h28zM521 322v-213q0 -25 3 -40t9 -25t15.5 -17.5t29.5 -19.5v-7h-201v7
q20 12 29.5 19.5t15.5 17.5t9 25t3 40v198q0 26 -5.5 48.5t-18 40.5t-32.5 28t-49 10q-28 0 -53.5 -11.5t-45 -34.5t-30.5 -56.5t-11 -75.5v-147q0 -25 3 -40t9 -25t15.5 -17.5t29.5 -19.5v-7h-201v7q20 12 29.5 19.5t15.5 17.5t9 25t3 40v274q0 19 -5 33.5t-13.5 25.5
t-19.5 19t-29 19v6h150l4 -121q11 31 28 55.5t39.5 41.5t50 25.5t58.5 8.5q38 0 67 -12t49 -34.5t30 -55t10 -72.5z" />
    <glyph glyph-name="Eng" unicode="&#x14a;" horiz-adv-x="780" 
d="M626 -48v70l-467 595v-505q0 -24 4.5 -40t13 -26.5t20 -17.5t34.5 -20v-8h-192v8q23 13 34 20t19.5 17.5t13 26.5t4.5 40v476q0 25 -3 40.5t-10.5 26t-18.5 18.5t-31 19v8h165l414 -526v414q0 24 -4.5 40t-13 26.5t-20 17.5t-34.5 20v8h192v-8q-23 -13 -34 -20
t-19.5 -17.5t-13 -26.5t-4.5 -40v-624q0 -44 -10 -79t-29.5 -59.5t-49 -37.5t-67.5 -13q-28 0 -52.5 7t-43 20t-29 30t-10.5 37q0 14 5 25t13.5 18t20 10.5t25.5 3.5q3 0 7 -0.5t7.5 -1t6.5 -1t5 -1.5q-3 -5 -4.5 -10t-3 -11t-2 -12t-0.5 -13q0 -13 4 -25t12.5 -21t21.5 -14
t29 -5q21 0 38.5 9.5t30.5 28t19.5 45t6.5 58.5z" />
    <glyph glyph-name="eng" unicode="&#x14b;" horiz-adv-x="606" 
d="M353 -217q-29 0 -52.5 6t-41 18t-26.5 28t-9 36q0 14 5 25t13.5 18t20 10.5t25.5 3.5q3 0 6.5 -0.5l7 -1t6.5 -1t6 -1.5q-3 -5 -4.5 -10.5t-3 -11.5t-2 -12t-0.5 -12q0 -13 4 -24t11.5 -19.5t18 -13t23.5 -4.5q20 0 34 9.5t22.5 26.5t12.5 41t4 54v359q0 26 -5.5 48.5
t-18 40.5t-32.5 28t-49 10q-28 0 -53.5 -11.5t-45 -34.5t-30.5 -56.5t-11 -75.5v-147q0 -25 3 -40t9 -25t15.5 -17.5t29.5 -19.5v-7h-201v7q20 12 29.5 19.5t15.5 17.5t9 25t3 40v274q0 19 -5 33.5t-13.5 25.5t-19.5 19t-29 19v6h150l4 -121q11 31 28 55.5t39.5 41.5
t50 25.5t58.5 8.5q38 0 67 -12t49 -34.5t30 -55t10 -72.5v-348q0 -45 -11 -80.5t-32.5 -60t-53 -37.5t-71.5 -13z" />
    <glyph glyph-name="Omacron" unicode="&#x14c;" horiz-adv-x="788" 
d="M532 790h-276v55h276v-55zM47 350q0 78 25.5 144t72.5 114.5t111 75t138 26.5t138 -26.5t111 -75t72.5 -114.5t25.5 -144t-25.5 -144t-72.5 -114.5t-111 -75t-138 -26.5t-138 26.5t-111 75t-72.5 114.5t-25.5 144zM638 350q0 70 -16.5 128.5t-48.5 100t-77.5 64
t-101.5 22.5t-101.5 -22.5t-77.5 -64t-48.5 -100t-16.5 -128.5t16.5 -128.5t48.5 -100t77.5 -64t101.5 -22.5t101.5 22.5t77.5 64t48.5 100t16.5 128.5z" />
    <glyph glyph-name="omacron" unicode="&#x14d;" horiz-adv-x="570" 
d="M423 590h-276v55h276v-55zM529 243q0 -55 -18 -101.5t-51.5 -80.5t-78 -52.5t-96.5 -18.5t-96.5 18.5t-78 52.5t-51.5 80.5t-18 101.5t18 101.5t51.5 80.5t78 52.5t96.5 18.5t96.5 -18.5t78 -52.5t51.5 -80.5t18 -101.5zM432 243q0 49 -9.5 88.5t-28 67t-46 42
t-63.5 14.5t-63.5 -14.5t-46 -42t-28 -67t-9.5 -88.5t9.5 -88.5t28 -67t46 -42t63.5 -14.5t63.5 14.5t46 42t28 67t9.5 88.5z" />
    <glyph glyph-name="Obreve" unicode="&#x14e;" horiz-adv-x="788" 
d="M278 942q2 -23 12 -41.5t26 -30.5t36 -18t42 -6t42 6t36 18t26 30.5t12 41.5h26q0 -37 -11 -67.5t-30 -52.5t-45 -34t-56 -12t-56 12t-45 34t-30 52.5t-11 67.5h26zM47 350q0 78 25.5 144t72.5 114.5t111 75t138 26.5t138 -26.5t111 -75t72.5 -114.5t25.5 -144
t-25.5 -144t-72.5 -114.5t-111 -75t-138 -26.5t-138 26.5t-111 75t-72.5 114.5t-25.5 144zM638 350q0 70 -16.5 128.5t-48.5 100t-77.5 64t-101.5 22.5t-101.5 -22.5t-77.5 -64t-48.5 -100t-16.5 -128.5t16.5 -128.5t48.5 -100t77.5 -64t101.5 -22.5t101.5 22.5t77.5 64
t48.5 100t16.5 128.5z" />
    <glyph glyph-name="obreve" unicode="&#x14f;" horiz-adv-x="570" 
d="M529 243q0 -55 -18 -101.5t-51.5 -80.5t-78 -52.5t-96.5 -18.5t-96.5 18.5t-78 52.5t-51.5 80.5t-18 101.5t18 101.5t51.5 80.5t78 52.5t96.5 18.5t96.5 -18.5t78 -52.5t51.5 -80.5t18 -101.5zM432 243q0 49 -9.5 88.5t-28 67t-46 42t-63.5 14.5t-63.5 -14.5t-46 -42
t-28 -67t-9.5 -88.5t9.5 -88.5t28 -67t46 -42t63.5 -14.5t63.5 14.5t46 42t28 67t9.5 88.5zM169 742q2 -26 12 -45.5t26 -32.5t36 -19.5t42 -6.5t42 6.5t36 19.5t26 32.5t12 45.5h26q0 -39 -11 -71.5t-30 -55.5t-45 -35t-56 -12t-56 12t-45 35t-30 55.5t-11 71.5h26z" />
    <glyph glyph-name="Ohungarumlaut" unicode="&#x150;" horiz-adv-x="788" 
d="M47 350q0 78 25.5 144t72.5 114.5t111 75t138 26.5t138 -26.5t111 -75t72.5 -114.5t25.5 -144t-25.5 -144t-72.5 -114.5t-111 -75t-138 -26.5t-138 26.5t-111 75t-72.5 114.5t-25.5 144zM638 350q0 70 -16.5 128.5t-48.5 100t-77.5 64t-101.5 22.5t-101.5 -22.5
t-77.5 -64t-48.5 -100t-16.5 -128.5t16.5 -128.5t48.5 -100t77.5 -64t101.5 -22.5t101.5 22.5t77.5 64t48.5 100t16.5 128.5zM354 933h111l-155 -164h-20zM513 933h111l-156 -164h-19z" />
    <glyph glyph-name="ohungarumlaut" unicode="&#x151;" horiz-adv-x="570" 
d="M245 749h110l-155 -188h-20zM404 749h110l-156 -188h-19zM529 243q0 -55 -18 -101.5t-51.5 -80.5t-78 -52.5t-96.5 -18.5t-96.5 18.5t-78 52.5t-51.5 80.5t-18 101.5t18 101.5t51.5 80.5t78 52.5t96.5 18.5t96.5 -18.5t78 -52.5t51.5 -80.5t18 -101.5zM432 243
q0 49 -9.5 88.5t-28 67t-46 42t-63.5 14.5t-63.5 -14.5t-46 -42t-28 -67t-9.5 -88.5t9.5 -88.5t28 -67t46 -42t63.5 -14.5t63.5 14.5t46 42t28 67t9.5 88.5z" />
    <glyph glyph-name="OE" unicode="&#x152;" horiz-adv-x="1084" 
d="M148 351q0 -73 19.5 -130.5t57.5 -98t93 -61.5t125 -21h94v620h-91q-71 0 -127 -21.5t-94 -62t-57.5 -98t-19.5 -127.5zM435 0q-88 0 -159.5 24t-122.5 70t-78.5 111t-27.5 146q0 80 27 144.5t78.5 110.5t124 70t162.5 24h483q11 0 19.5 0.5t15.5 1.5t12.5 2t12.5 2
l34 -159h-8q-32 38 -48.5 55.5t-37.5 31t-49.5 20.5t-70.5 7h-174v-282h143q33 0 51.5 3t31 12.5t23 27.5t23.5 53h9v-231h-9q-13 35 -23.5 53.5t-23 27.5t-31 12t-51.5 3h-143v-301h197q41 0 70.5 7t52.5 22t43 39t47 64h8l-32 -171h-579z" />
    <glyph glyph-name="oe" unicode="&#x153;" horiz-adv-x="912" 
d="M870 151q-8 -38 -25.5 -68t-44 -51t-61 -31.5t-76.5 -10.5q-29 0 -56 7t-51 20t-44.5 32.5t-36.5 43.5q-16 -23 -36.5 -42t-45 -33t-52 -21t-56.5 -7q-52 0 -96.5 18.5t-78 52.5t-51.5 80.5t-18 101.5t18 101.5t51.5 80.5t78 52.5t96.5 18.5q30 0 58 -7.5t52.5 -21
t45 -33.5t36.5 -44q16 25 36 44.5t43.5 33.5t49.5 21t54 7q51 0 91 -16.5t68 -48t42.5 -77t14.5 -102.5h-355q0 -48 11.5 -86.5t33 -66t53 -41.5t70.5 -14q29 0 53.5 7t44.5 21t36 35.5t27 50.5zM522 290h260q-1 34 -7 63.5t-20 52.5t-38 36.5t-58 13.5q-29 0 -53 -12
t-41.5 -34t-28 -52.5t-14.5 -67.5zM432 243q0 49 -9.5 88.5t-28 67t-46 42t-63.5 14.5t-63.5 -14.5t-46 -42t-28 -67t-9.5 -88.5t9.5 -88.5t28 -67t46 -42t63.5 -14.5t63.5 14.5t46 42t28 67t9.5 88.5z" />
    <glyph glyph-name="Racute" unicode="&#x154;" horiz-adv-x="721" 
d="M201 661v-302h147q38 0 70 8t56 26t38 48t14 73q0 39 -12.5 67t-36.5 45.5t-56.5 26t-72.5 8.5h-147zM201 319v-207q0 -25 3.5 -40.5t10.5 -26t18 -18.5t32 -19v-8h-218v8q20 11 31 19t18.5 18.5t10.5 26t3 40.5v476q0 25 -3 40.5t-10.5 26t-18.5 18.5t-31 19v8h317
q56 0 103 -10t82.5 -32t55.5 -58t20 -85q0 -45 -17 -78.5t-46.5 -55t-66 -32t-77.5 -10.5v-3q33 -4 58 -14t44 -25.5t32 -37.5t22 -50l29 -84q9 -26 19.5 -44.5t24 -31t30 -22t40.5 -19.5v-8h-159q-7 15 -12.5 27t-10 23.5l-9 23t-12.5 34.5l-33 96q-11 32 -22 52.5
t-27.5 34.5t-40.5 21t-59 7h-131zM383 933h120l-159 -164h-19z" />
    <glyph glyph-name="racute" unicode="&#x155;" horiz-adv-x="450" 
d="M281 749h111l-159 -188h-19zM189 227v-125q0 -22 5 -36t15.5 -23.5t28 -16.5t48.5 -17v-9h-241v7q20 12 29.5 19.5t15.5 17.5t9 25t3 40v274q0 19 -5 33.5t-13.5 25.5t-19.5 19t-29 19v6h150l4 -139q10 31 24.5 57.5t34 47t44.5 32.5t56 12q19 0 34.5 -5t26 -14.5t16 -23
t5.5 -29.5q0 -15 -5 -27t-14 -20.5t-20.5 -13t-23.5 -4.5q1 15 -2 26.5t-10 20t-17.5 13t-25.5 4.5q-25 0 -47.5 -15.5t-39.5 -42.5t-26.5 -63t-9.5 -75z" />
    <glyph glyph-name="Rcommaaccent" unicode="&#x156;" horiz-adv-x="721" 
d="M367 -151q-3 -3 -7 -4.5l-8 -3t-8.5 -2t-9.5 -0.5q-11 0 -20 4t-16 11t-11 15.5t-4 18.5q0 12 4 22t12 17.5t18.5 11.5t23.5 4q16 0 29 -6t23 -17t15.5 -26.5t5.5 -34.5q0 -22 -9 -41.5t-26.5 -35.5t-44 -25.5t-60.5 -10.5v26q20 2 36.5 7.5t29.5 14.5t20 23t7 32z
M201 661v-302h147q38 0 70 8t56 26t38 48t14 73q0 39 -12.5 67t-36.5 45.5t-56.5 26t-72.5 8.5h-147zM201 319v-207q0 -25 3.5 -40.5t10.5 -26t18 -18.5t32 -19v-8h-218v8q20 11 31 19t18.5 18.5t10.5 26t3 40.5v476q0 25 -3 40.5t-10.5 26t-18.5 18.5t-31 19v8h317
q56 0 103 -10t82.5 -32t55.5 -58t20 -85q0 -45 -17 -78.5t-46.5 -55t-66 -32t-77.5 -10.5v-3q33 -4 58 -14t44 -25.5t32 -37.5t22 -50l29 -84q9 -26 19.5 -44.5t24 -31t30 -22t40.5 -19.5v-8h-159q-7 15 -12.5 27t-10 23.5l-9 23t-12.5 34.5l-33 96q-11 32 -22 52.5
t-27.5 34.5t-40.5 21t-59 7h-131z" />
    <glyph glyph-name="rcommaaccent" unicode="&#x157;" horiz-adv-x="450" 
d="M175 -151q-3 -3 -7 -4.5l-8 -3t-8.5 -2t-9.5 -0.5q-11 0 -20 4t-16 11t-11 15.5t-4 18.5q0 12 4 22t12 17.5t18.5 11.5t23.5 4q16 0 29 -6t23 -17t15.5 -26.5t5.5 -34.5q0 -22 -9 -41.5t-26.5 -35.5t-44 -25.5t-60.5 -10.5v26q20 2 36.5 7.5t29.5 14.5t20 23t7 32z
M189 227v-125q0 -22 5 -36t15.5 -23.5t28 -16.5t48.5 -17v-9h-241v7q20 12 29.5 19.5t15.5 17.5t9 25t3 40v274q0 19 -5 33.5t-13.5 25.5t-19.5 19t-29 19v6h150l4 -139q10 31 24.5 57.5t34 47t44.5 32.5t56 12q19 0 34.5 -5t26 -14.5t16 -23t5.5 -29.5q0 -15 -5 -27
t-14 -20.5t-20.5 -13t-23.5 -4.5q1 15 -2 26.5t-10 20t-17.5 13t-25.5 4.5q-25 0 -47.5 -15.5t-39.5 -42.5t-26.5 -63t-9.5 -75z" />
    <glyph glyph-name="Rcaron" unicode="&#x158;" horiz-adv-x="721" 
d="M504 946q-21 -19 -43 -42t-42.5 -48t-37.5 -49t-28 -45h-18q-11 21 -28 45t-37.5 49t-42.5 48t-43 42h32q20 -11 37 -21t32.5 -21t30 -23t28.5 -26q14 14 28.5 26t30 23t32.5 21t37 21h32zM201 661v-302h147q38 0 70 8t56 26t38 48t14 73q0 39 -12.5 67t-36.5 45.5
t-56.5 26t-72.5 8.5h-147zM201 319v-207q0 -25 3.5 -40.5t10.5 -26t18 -18.5t32 -19v-8h-218v8q20 11 31 19t18.5 18.5t10.5 26t3 40.5v476q0 25 -3 40.5t-10.5 26t-18.5 18.5t-31 19v8h317q56 0 103 -10t82.5 -32t55.5 -58t20 -85q0 -45 -17 -78.5t-46.5 -55t-66 -32
t-77.5 -10.5v-3q33 -4 58 -14t44 -25.5t32 -37.5t22 -50l29 -84q9 -26 19.5 -44.5t24 -31t30 -22t40.5 -19.5v-8h-159q-7 15 -12.5 27t-10 23.5l-9 23t-12.5 34.5l-33 96q-11 32 -22 52.5t-27.5 34.5t-40.5 21t-59 7h-131z" />
    <glyph glyph-name="rcaron" unicode="&#x159;" horiz-adv-x="450" 
d="M388 756q-20 -20 -41.5 -46t-42 -54t-37 -55t-27.5 -48h-16q-11 21 -27.5 48t-37 55t-42 54t-41.5 46h28q18 -10 35 -22t32.5 -25t29.5 -26t31 -29q17 16 31 29t29.5 26t32.5 25t35 22h28zM189 227v-125q0 -22 5 -36t15.5 -23.5t28 -16.5t48.5 -17v-9h-241v7
q20 12 29.5 19.5t15.5 17.5t9 25t3 40v274q0 19 -5 33.5t-13.5 25.5t-19.5 19t-29 19v6h150l4 -139q10 31 24.5 57.5t34 47t44.5 32.5t56 12q19 0 34.5 -5t26 -14.5t16 -23t5.5 -29.5q0 -15 -5 -27t-14 -20.5t-20.5 -13t-23.5 -4.5q1 15 -2 26.5t-10 20t-17.5 13t-25.5 4.5
q-25 0 -47.5 -15.5t-39.5 -42.5t-26.5 -63t-9.5 -75z" />
    <glyph glyph-name="Sacute" unicode="&#x15a;" horiz-adv-x="603" 
d="M291 669q-30 0 -55.5 -8t-45 -24t-30 -38t-10.5 -50t9 -49.5t26 -37.5t42 -27t58 -20l86 -23q43 -12 74.5 -28t53.5 -39t33.5 -55.5t11.5 -75.5q0 -49 -19.5 -87.5t-53.5 -64.5t-77.5 -39t-92.5 -13q-28 0 -55.5 5t-52 13.5t-43.5 18.5t-33 20l-45 -57h-9l-12 221h13
q23 -44 47.5 -77t53.5 -55t63 -33.5t73 -11.5q37 0 66.5 9.5t50 27.5t31.5 44.5t11 59.5q0 25 -7.5 46t-22.5 37t-37 27.5t-51 19.5l-92 25q-45 12 -79 28.5t-57.5 39t-35.5 53.5t-12 71q0 42 16 76.5t46.5 59.5t72 38.5t90.5 13.5q26 0 50.5 -4.5t45 -11t36.5 -14t34 -16.5
l44 46h8l1 -200h-10q-25 42 -45.5 70t-44 48t-53 30.5t-66.5 10.5zM336 933h120l-159 -164h-19z" />
    <glyph glyph-name="sacute" unicode="&#x15b;" horiz-adv-x="489" 
d="M293 749h111l-159 -188h-19zM231 455q-22 0 -39.5 -5.5t-29.5 -15t-18 -23.5t-6 -30q0 -18 6.5 -31.5t21 -24t37 -18t55.5 -14.5q49 -9 83 -22.5t55 -31t31 -41.5t10 -55q0 -34 -14 -62.5t-39 -48.5t-59 -31t-73 -11q-23 0 -44 3.5t-39.5 10t-34 14t-29.5 15.5l-35 -43
h-8l-11 185h14q19 -36 40 -62.5t44 -44.5t49 -27t54 -9q23 0 43 5.5t34.5 16t22.5 27t8 38.5q0 21 -8 35.5t-24 24.5t-39.5 16.5t-57.5 13.5q-47 9 -78.5 22t-51 30.5t-28.5 40.5t-9 53q0 31 12.5 57t35 45t53 29t65.5 10q21 0 40 -3t35.5 -8.5t31 -12.5t28.5 -16l38 40h7
v-165h-11q-18 28 -36 50t-38.5 39t-44 26t-49.5 9z" />
    <glyph glyph-name="Scircumflex" unicode="&#x15c;" horiz-adv-x="603" 
d="M291 669q-30 0 -55.5 -8t-45 -24t-30 -38t-10.5 -50t9 -49.5t26 -37.5t42 -27t58 -20l86 -23q43 -12 74.5 -28t53.5 -39t33.5 -55.5t11.5 -75.5q0 -49 -19.5 -87.5t-53.5 -64.5t-77.5 -39t-92.5 -13q-28 0 -55.5 5t-52 13.5t-43.5 18.5t-33 20l-45 -57h-9l-12 221h13
q23 -44 47.5 -77t53.5 -55t63 -33.5t73 -11.5q37 0 66.5 9.5t50 27.5t31.5 44.5t11 59.5q0 25 -7.5 46t-22.5 37t-37 27.5t-51 19.5l-92 25q-45 12 -79 28.5t-57.5 39t-35.5 53.5t-12 71q0 42 16 76.5t46.5 59.5t72 38.5t90.5 13.5q26 0 50.5 -4.5t45 -11t36.5 -14t34 -16.5
l44 46h8l1 -200h-10q-25 42 -45.5 70t-44 48t-53 30.5t-66.5 10.5zM307 950q11 -21 28 -45t37.5 -49t42.5 -48t43 -42h-32q-20 11 -37 21t-32.5 21t-30 23t-28.5 26q-14 -14 -28.5 -26t-30 -23t-32.5 -21t-37 -21h-32q21 19 43 42t42.5 48t37.5 49t28 45h18z" />
    <glyph glyph-name="scircumflex" unicode="&#x15d;" horiz-adv-x="489" 
d="M252 756q11 -21 27.5 -48t37 -55.5t42 -54.5t41.5 -46h-28q-18 10 -35 22.5t-32.5 25t-29 25.5t-31.5 30q-18 -17 -31.5 -30t-29 -25.5t-32.5 -25t-35 -22.5h-28q20 20 41.5 46t42 54.5t37 55.5t27.5 48h16zM231 455q-22 0 -39.5 -5.5t-29.5 -15t-18 -23.5t-6 -30
q0 -18 6.5 -31.5t21 -24t37 -18t55.5 -14.5q49 -9 83 -22.5t55 -31t31 -41.5t10 -55q0 -34 -14 -62.5t-39 -48.5t-59 -31t-73 -11q-23 0 -44 3.5t-39.5 10t-34 14t-29.5 15.5l-35 -43h-8l-11 185h14q19 -36 40 -62.5t44 -44.5t49 -27t54 -9q23 0 43 5.5t34.5 16t22.5 27
t8 38.5q0 21 -8 35.5t-24 24.5t-39.5 16.5t-57.5 13.5q-47 9 -78.5 22t-51 30.5t-28.5 40.5t-9 53q0 31 12.5 57t35 45t53 29t65.5 10q21 0 40 -3t35.5 -8.5t31 -12.5t28.5 -16l38 40h7v-165h-11q-18 28 -36 50t-38.5 39t-44 26t-49.5 9z" />
    <glyph glyph-name="Scedilla" unicode="&#x15e;" horiz-adv-x="603" 
d="M163 -169l15 20q8 -9 17 -16t19 -11.5t20.5 -6.5t22.5 -2t22 3t17.5 8.5t11.5 14.5t4 21q0 14 -6 24.5t-18 17.5t-30 11t-42 5l35 74q-3 1 -6 1q-27 5 -51.5 13.5t-43.5 18.5t-33 20l-45 -57h-9l-12 221h13q23 -44 47.5 -77t53.5 -55t63 -33.5t73 -11.5q37 0 66.5 9.5
t50 27.5t31.5 44.5t11 59.5q0 25 -7.5 46t-22.5 37t-37 27.5t-51 19.5l-92 25q-45 12 -79 28.5t-57.5 39t-35.5 53.5t-12 71q0 42 16 76.5t46.5 59.5t72 38.5t90.5 13.5q26 0 50.5 -4.5t45 -11t36.5 -14t34 -16.5l44 46h8l1 -200h-10q-25 42 -45.5 70t-44 48t-53 30.5
t-66.5 10.5q-30 0 -55.5 -8t-45 -24t-30 -38t-10.5 -50t9 -49.5t26 -37.5t42 -27t58 -20l86 -23q43 -12 74.5 -28t53.5 -39t33.5 -55.5t11.5 -75.5q0 -49 -19.5 -87.5t-53.5 -64.5t-77.5 -39t-92.5 -13h-15l-21 -47q26 -1 48.5 -6.5t38.5 -16t25 -25.5t9 -33q0 -19 -8.5 -35
t-24.5 -27t-36.5 -16.5t-44.5 -5.5q-19 0 -36 4t-31 11t-25 16.5t-17 21.5z" />
    <glyph glyph-name="scedilla" unicode="&#x15f;" horiz-adv-x="489" 
d="M109 -169l15 20q8 -9 17 -16t19 -11.5t20.5 -6.5t22.5 -2t22 3t17.5 8.5t11.5 14.5t4 21q0 14 -6 24.5t-18 17.5t-30 11t-42 5l35 76q-15 3 -29 7q-18 7 -33.5 14.5t-29.5 15.5l-35 -43h-8l-11 185h14q19 -36 40 -62.5t44 -44.5t49 -27t54 -9q23 0 43 5.5t34.5 16
t22.5 27t8 38.5q0 21 -8 35.5t-24 24.5t-39.5 16.5t-57.5 13.5q-47 9 -78.5 22t-51 30.5t-28.5 40.5t-9 53q0 31 12.5 57t35 45t53 29t65.5 10q21 0 40 -3t35.5 -8.5t31 -12.5t28.5 -16l38 40h7v-165h-11q-18 28 -36 50t-38.5 39t-44 26t-49.5 9q-22 0 -39.5 -5.5t-29.5 -15
t-18 -23.5t-6 -30q0 -18 6.5 -31.5t21 -24t37 -18t55.5 -14.5q49 -9 83 -22.5t55 -31t31 -41.5t10 -55q0 -34 -14 -62.5t-39 -48.5t-59 -31t-73 -11q-10 0 -20 1l-21 -48q26 -1 48.5 -6.5t38.5 -16t25 -25.5t9 -33q0 -19 -8.5 -35t-24.5 -27t-36.5 -16.5t-44.5 -5.5
q-19 0 -36 4t-31 11t-25 16.5t-17 21.5z" />
    <glyph glyph-name="Scaron" unicode="&#x160;" horiz-adv-x="603" 
d="M291 669q-30 0 -55.5 -8t-45 -24t-30 -38t-10.5 -50t9 -49.5t26 -37.5t42 -27t58 -20l86 -23q43 -12 74.5 -28t53.5 -39t33.5 -55.5t11.5 -75.5q0 -49 -19.5 -87.5t-53.5 -64.5t-77.5 -39t-92.5 -13q-28 0 -55.5 5t-52 13.5t-43.5 18.5t-33 20l-45 -57h-9l-12 221h13
q23 -44 47.5 -77t53.5 -55t63 -33.5t73 -11.5q37 0 66.5 9.5t50 27.5t31.5 44.5t11 59.5q0 25 -7.5 46t-22.5 37t-37 27.5t-51 19.5l-92 25q-45 12 -79 28.5t-57.5 39t-35.5 53.5t-12 71q0 42 16 76.5t46.5 59.5t72 38.5t90.5 13.5q26 0 50.5 -4.5t45 -11t36.5 -14t34 -16.5
l44 46h8l1 -200h-10q-25 42 -45.5 70t-44 48t-53 30.5t-66.5 10.5zM458 946q-21 -19 -43 -42t-42.5 -48t-37.5 -49t-28 -45h-18q-11 21 -28 45t-37.5 49t-42.5 48t-43 42h32q20 -11 37 -21t32.5 -21t30 -23t28.5 -26q14 14 28.5 26t30 23t32.5 21t37 21h32z" />
    <glyph glyph-name="scaron" unicode="&#x161;" horiz-adv-x="489" 
d="M400 756q-20 -20 -41.5 -46t-42 -54t-37 -55t-27.5 -48h-16q-11 21 -27.5 48t-37 55t-42 54t-41.5 46h28q18 -10 35 -22t32.5 -25t29.5 -26t31 -29q17 16 31 29t29.5 26t32.5 25t35 22h28zM231 455q-22 0 -39.5 -5.5t-29.5 -15t-18 -23.5t-6 -30q0 -18 6.5 -31.5t21 -24
t37 -18t55.5 -14.5q49 -9 83 -22.5t55 -31t31 -41.5t10 -55q0 -34 -14 -62.5t-39 -48.5t-59 -31t-73 -11q-23 0 -44 3.5t-39.5 10t-34 14t-29.5 15.5l-35 -43h-8l-11 185h14q19 -36 40 -62.5t44 -44.5t49 -27t54 -9q23 0 43 5.5t34.5 16t22.5 27t8 38.5q0 21 -8 35.5
t-24 24.5t-39.5 16.5t-57.5 13.5q-47 9 -78.5 22t-51 30.5t-28.5 40.5t-9 53q0 31 12.5 57t35 45t53 29t65.5 10q21 0 40 -3t35.5 -8.5t31 -12.5t28.5 -16l38 40h7v-165h-11q-18 28 -36 50t-38.5 39t-44 26t-49.5 9z" />
    <glyph glyph-name="Tcommaaccent" unicode="&#x162;" horiz-adv-x="733" 
d="M248 -169l15 20q8 -9 17 -16t19 -11.5t20.5 -6.5t22.5 -2t22 3t17.5 8.5t11.5 14.5t4 21q0 14 -6 24.5t-18 17.5t-30 11t-42 5l37 80h-89v8q23 11 36 19t21 18.5t11.5 26.5t3.5 41v550h-98q-34 0 -59.5 -10t-45 -28.5t-34 -38.5t-46.5 -68h-9l33 188q8 -1 13 -2t12 -2
t15.5 -1.5t19.5 -0.5h489q11 0 19.5 0.5t15.5 1.5t12.5 2t12.5 2l33 -188h-9q-32 48 -46.5 68t-34 38.5t-44.5 28.5t-59 10h-99v-550q0 -25 3.5 -40.5t12 -26.5t21.5 -19t36 -19v-8h-109l-26 -57q26 -1 48.5 -6.5t38.5 -16t25 -25.5t9 -33q0 -19 -8.5 -35t-24.5 -27
t-36.5 -16.5t-44.5 -5.5q-19 0 -36 4t-31 11t-25 16.5t-17 21.5z" />
    <glyph glyph-name="tcommaaccent" unicode="&#x163;" horiz-adv-x="415" 
d="M118 -169l15 20q8 -9 17 -16t19 -11.5t20.5 -6.5t22.5 -2t22 3t17.5 8.5t11.5 14.5t4 21q0 14 -6 24.5t-18 17.5t-30 11t-42 5l34 73q-12 2 -23 6q-25 9 -43.5 26.5t-28.5 43t-10 57.5l1 317h-79v26q31 6 54.5 21t40 38t27.5 53.5t17 68.5h28v-166h173l-5 -41h-168v-306
q0 -22 5 -38.5t15 -28t24.5 -17t33.5 -5.5q20 0 36 6.5t28.5 19.5t21.5 33.5t14 47.5l20 -4q-3 -36 -13.5 -65.5t-29.5 -51t-46 -33.5q-25 -10 -57 -11l-21 -47q26 -1 48.5 -6.5t38.5 -16t25 -25.5t9 -33q0 -19 -8.5 -35t-24.5 -27t-36.5 -16.5t-44.5 -5.5q-19 0 -36 4
t-31 11t-25 16.5t-17 21.5z" />
    <glyph glyph-name="Tcaron" unicode="&#x164;" horiz-adv-x="733" 
d="M527 946q-21 -19 -43 -42t-42.5 -48t-37.5 -49t-28 -45h-18q-11 21 -28 45t-37.5 49t-42.5 48t-43 42h32q20 -11 37 -21t32.5 -21t30 -23t28.5 -26q14 14 28.5 26t30 23t32.5 21t37 21h32zM122 700h489q11 0 19.5 0.5t15.5 1.5t12.5 2t12.5 2l33 -188h-9q-32 48 -46.5 68
t-34 38.5t-44.5 28.5t-59 10h-99v-550q0 -25 3.5 -40.5t12 -26.5t21.5 -19t36 -19v-8h-236v8q23 11 36 19t21 18.5t11.5 26.5t3.5 41v550h-98q-34 0 -59.5 -10t-45 -28.5t-34 -38.5t-46.5 -68h-9l33 188q8 -1 13 -2t12 -2t15.5 -1.5t19.5 -0.5z" />
    <glyph glyph-name="tcaron" unicode="&#x165;" horiz-adv-x="415" 
d="M378 777l-97 -205h-18l18 205h97zM22 443v26q31 6 54.5 21t40 38t27.5 53.5t17 68.5h28v-166h173l-5 -41h-168v-306q0 -22 5 -38.5t15 -28t24.5 -17t33.5 -5.5q20 0 36 6.5t28.5 19.5t21.5 33.5t14 47.5l20 -4q-3 -36 -13.5 -65.5t-29.5 -51t-45.5 -33t-59.5 -11.5
q-31 0 -56.5 9t-44 26.5t-28.5 43t-10 57.5l1 317h-79z" />
    <glyph glyph-name="Tbar" unicode="&#x166;" horiz-adv-x="733" 
d="M249 0v8q23 11 36 19t21 18.5t11.5 26.5t3.5 41v232h-138v41h138v277h-98q-34 0 -59.5 -10t-45 -28.5t-34 -38.5t-46.5 -68h-9l33 188q8 -1 13 -2t12 -2t15.5 -1.5t19.5 -0.5h489q11 0 19.5 0.5t15.5 1.5t12.5 2t12.5 2l33 -188h-9q-32 48 -46.5 68t-34 38.5t-44.5 28.5
t-59 10h-99v-277h138v-41h-138v-232q0 -25 3.5 -40.5t12 -26.5t21.5 -19t36 -19v-8h-236z" />
    <glyph glyph-name="tbar" unicode="&#x167;" horiz-adv-x="435" 
d="M405 151q-3 -36 -13.5 -65.5t-29.5 -51t-45.5 -33t-59.5 -11.5q-31 0 -56.5 9t-44 26.5t-28.5 43t-10 57.5v151h-87v41h88v125h-79v26q31 6 54.5 21t40 38t27.5 53.5t17 68.5h28v-166h173l-5 -41h-168v-125h156v-41h-156v-140q0 -22 5 -38.5t15 -28t24.5 -17t33.5 -5.5
q20 0 36 6.5t28.5 19.5t21.5 33.5t14 47.5z" />
    <glyph glyph-name="Utilde" unicode="&#x168;" horiz-adv-x="759" 
d="M232 786h-25q9 33 21 58.5t26 43t30 26.5t34 9t36.5 -8t43.5 -24.5t40 -24t30 -7.5t26 4.5t20 13.5t16.5 21t15.5 29h25q-9 -33 -21 -58t-26 -42.5t-30 -26.5t-34 -9t-36.5 8t-43.5 24t-40 23.5t-30 7.5t-26 -4.5t-20 -13.5t-16.5 -21t-15.5 -29zM612 587q0 24 -5 40
t-14.5 26.5t-21 18t-35.5 20.5v8h199v-8q-23 -13 -34.5 -20.5t-20.5 -18t-13.5 -26.5t-4.5 -40v-319q0 -67 -20 -119.5t-57 -87.5t-87.5 -53t-110.5 -18q-73 0 -128 19.5t-91 56t-53.5 87.5t-17.5 115v320q0 25 -3.5 40.5t-10.5 26t-18 18.5t-32 19v8h219v-8
q-21 -11 -32 -19t-18 -18.5t-10.5 -26t-3.5 -40.5v-308q0 -59 14 -103.5t40.5 -74t64.5 -44.5t86 -15q50 0 90 14t69 42.5t44.5 73.5t15.5 106v308z" />
    <glyph glyph-name="utilde" unicode="&#x169;" horiz-adv-x="598" 
d="M179 486v-306q0 -26 5.5 -49t18 -41t32.5 -28.5t48 -10.5q29 0 54 12t43.5 35t29 56.5t10.5 75.5v153q0 20 -5 34t-14 25t-20 19t-29 19v6h155v-377q0 -25 3 -40t9 -25t15.5 -17.5t29.5 -19.5v-7h-144v123q-10 -32 -26.5 -57t-38.5 -42t-49 -25.5t-59 -8.5q-37 0 -66 12
t-49 34.5t-30 54.5t-10 72v220q0 19 -5 33.5t-13.5 25.5t-19.5 19t-29 19v6h154zM141 578h-25q9 33 20.5 58t25.5 42.5t29.5 26.5t33.5 9t35.5 -8.5t42 -24.5t39.5 -23.5t29 -7.5q15 0 26 4.5t19.5 13.5t15.5 21t15 29h25q-9 -33 -20.5 -58t-25.5 -42.5t-29.5 -26.5
t-33.5 -9t-35.5 8.5t-42 24.5t-39.5 23.5t-29 7.5q-15 0 -26 -4.5t-19.5 -13.5t-15.5 -21t-15 -29z" />
    <glyph glyph-name="Umacron" unicode="&#x16a;" horiz-adv-x="759" 
d="M527 790h-276v55h276v-55zM612 587q0 24 -5 40t-14.5 26.5t-21 18t-35.5 20.5v8h199v-8q-23 -13 -34.5 -20.5t-20.5 -18t-13.5 -26.5t-4.5 -40v-319q0 -67 -20 -119.5t-57 -87.5t-87.5 -53t-110.5 -18q-73 0 -128 19.5t-91 56t-53.5 87.5t-17.5 115v320q0 25 -3.5 40.5
t-10.5 26t-18 18.5t-32 19v8h219v-8q-21 -11 -32 -19t-18 -18.5t-10.5 -26t-3.5 -40.5v-308q0 -59 14 -103.5t40.5 -74t64.5 -44.5t86 -15q50 0 90 14t69 42.5t44.5 73.5t15.5 106v308z" />
    <glyph glyph-name="umacron" unicode="&#x16b;" horiz-adv-x="598" 
d="M179 486v-306q0 -26 5.5 -49t18 -41t32.5 -28.5t48 -10.5q29 0 54 12t43.5 35t29 56.5t10.5 75.5v153q0 20 -5 34t-14 25t-20 19t-29 19v6h155v-377q0 -25 3 -40t9 -25t15.5 -17.5t29.5 -19.5v-7h-144v123q-10 -32 -26.5 -57t-38.5 -42t-49 -25.5t-59 -8.5q-37 0 -66 12
t-49 34.5t-30 54.5t-10 72v220q0 19 -5 33.5t-13.5 25.5t-19.5 19t-29 19v6h154zM432 590h-276v55h276v-55z" />
    <glyph glyph-name="Ubreve" unicode="&#x16c;" horiz-adv-x="759" 
d="M273 942q2 -23 12 -41.5t26 -30.5t36 -18t42 -6t42 6t36 18t26 30.5t12 41.5h26q0 -37 -11 -67.5t-30 -52.5t-45 -34t-56 -12t-56 12t-45 34t-30 52.5t-11 67.5h26zM612 587q0 24 -5 40t-14.5 26.5t-21 18t-35.5 20.5v8h199v-8q-23 -13 -34.5 -20.5t-20.5 -18
t-13.5 -26.5t-4.5 -40v-319q0 -67 -20 -119.5t-57 -87.5t-87.5 -53t-110.5 -18q-73 0 -128 19.5t-91 56t-53.5 87.5t-17.5 115v320q0 25 -3.5 40.5t-10.5 26t-18 18.5t-32 19v8h219v-8q-21 -11 -32 -19t-18 -18.5t-10.5 -26t-3.5 -40.5v-308q0 -59 14 -103.5t40.5 -74
t64.5 -44.5t86 -15q50 0 90 14t69 42.5t44.5 73.5t15.5 106v308z" />
    <glyph glyph-name="ubreve" unicode="&#x16d;" horiz-adv-x="598" 
d="M179 486v-306q0 -26 5.5 -49t18 -41t32.5 -28.5t48 -10.5q29 0 54 12t43.5 35t29 56.5t10.5 75.5v153q0 20 -5 34t-14 25t-20 19t-29 19v6h155v-377q0 -25 3 -40t9 -25t15.5 -17.5t29.5 -19.5v-7h-144v123q-10 -32 -26.5 -57t-38.5 -42t-49 -25.5t-59 -8.5q-37 0 -66 12
t-49 34.5t-30 54.5t-10 72v220q0 19 -5 33.5t-13.5 25.5t-19.5 19t-29 19v6h154zM178 742q2 -26 12 -45.5t26 -32.5t36 -19.5t42 -6.5t42 6.5t36 19.5t26 32.5t12 45.5h26q0 -39 -11 -71.5t-30 -55.5t-45 -35t-56 -12t-56 12t-45 35t-30 55.5t-11 71.5h26z" />
    <glyph glyph-name="Uring" unicode="&#x16e;" horiz-adv-x="759" 
d="M612 587q0 24 -5 40t-14.5 26.5t-21 18t-35.5 20.5v8h199v-8q-23 -13 -34.5 -20.5t-20.5 -18t-13.5 -26.5t-4.5 -40v-319q0 -67 -20 -119.5t-57 -87.5t-87.5 -53t-110.5 -18q-73 0 -128 19.5t-91 56t-53.5 87.5t-17.5 115v320q0 25 -3.5 40.5t-10.5 26t-18 18.5t-32 19v8
h219v-8q-21 -11 -32 -19t-18 -18.5t-10.5 -26t-3.5 -40.5v-308q0 -59 14 -103.5t40.5 -74t64.5 -44.5t86 -15q50 0 90 14t69 42.5t44.5 73.5t15.5 106v308zM282 852q0 21 8.5 40t23.5 34t34.5 23t40.5 8t40.5 -8t34.5 -23t23.5 -34t8.5 -40t-8.5 -40.5t-23.5 -34t-34.5 -23
t-40.5 -8.5t-40.5 8.5t-34.5 23t-23.5 34t-8.5 40.5zM451 852q0 14 -4.5 25.5t-12.5 20t-19.5 13t-25.5 4.5t-25.5 -4.5t-19.5 -13t-12.5 -20t-4.5 -25.5q0 -13 4.5 -24.5t12.5 -20t19.5 -13t25.5 -4.5t25.5 4.5t19.5 13t12.5 20t4.5 24.5z" />
    <glyph glyph-name="uring" unicode="&#x16f;" horiz-adv-x="598" 
d="M187 663q0 21 8.5 40t23.5 34t34.5 23t40.5 8t40.5 -8t34.5 -23t23.5 -34t8.5 -40q0 -22 -8.5 -41t-23.5 -34t-34.5 -23t-40.5 -8t-40.5 8t-34.5 23t-23.5 34t-8.5 41zM356 663q0 13 -4.5 24.5t-12.5 20.5t-19.5 13.5t-25.5 4.5t-25.5 -4.5t-19.5 -13.5t-12.5 -20.5
t-4.5 -24.5q0 -14 4.5 -25.5t12.5 -19.5t19.5 -12.5t25.5 -4.5t25.5 4.5t19.5 12.5t12.5 19.5t4.5 25.5zM179 486v-306q0 -26 5.5 -49t18 -41t32.5 -28.5t48 -10.5q29 0 54 12t43.5 35t29 56.5t10.5 75.5v153q0 20 -5 34t-14 25t-20 19t-29 19v6h155v-377q0 -25 3 -40t9 -25
t15.5 -17.5t29.5 -19.5v-7h-144v123q-10 -32 -26.5 -57t-38.5 -42t-49 -25.5t-59 -8.5q-37 0 -66 12t-49 34.5t-30 54.5t-10 72v220q0 19 -5 33.5t-13.5 25.5t-19.5 19t-29 19v6h154z" />
    <glyph glyph-name="Uhungarumlaut" unicode="&#x170;" horiz-adv-x="759" 
d="M612 587q0 24 -5 40t-14.5 26.5t-21 18t-35.5 20.5v8h199v-8q-23 -13 -34.5 -20.5t-20.5 -18t-13.5 -26.5t-4.5 -40v-319q0 -67 -20 -119.5t-57 -87.5t-87.5 -53t-110.5 -18q-73 0 -128 19.5t-91 56t-53.5 87.5t-17.5 115v320q0 25 -3.5 40.5t-10.5 26t-18 18.5t-32 19v8
h219v-8q-21 -11 -32 -19t-18 -18.5t-10.5 -26t-3.5 -40.5v-308q0 -59 14 -103.5t40.5 -74t64.5 -44.5t86 -15q50 0 90 14t69 42.5t44.5 73.5t15.5 106v308zM349 933h111l-155 -164h-20zM508 933h111l-156 -164h-19z" />
    <glyph glyph-name="uhungarumlaut" unicode="&#x171;" horiz-adv-x="598" 
d="M179 486v-306q0 -26 5.5 -49t18 -41t32.5 -28.5t48 -10.5q29 0 54 12t43.5 35t29 56.5t10.5 75.5v153q0 20 -5 34t-14 25t-20 19t-29 19v6h155v-377q0 -25 3 -40t9 -25t15.5 -17.5t29.5 -19.5v-7h-144v123q-10 -32 -26.5 -57t-38.5 -42t-49 -25.5t-59 -8.5q-37 0 -66 12
t-49 34.5t-30 54.5t-10 72v220q0 19 -5 33.5t-13.5 25.5t-19.5 19t-29 19v6h154zM253 749h110l-155 -188h-20zM412 749h110l-156 -188h-19z" />
    <glyph glyph-name="Uogonek" unicode="&#x172;" horiz-adv-x="759" 
d="M398 -237q-18 0 -35 6t-30 17t-20.5 27.5t-7.5 36.5q0 22 8.5 41.5t24 36.5t35.5 32.5t46 31.5q-4 0 -8 -0.5l-8 -1t-8 -0.5h-8q-73 0 -128 19.5t-91 56t-53.5 87.5t-17.5 115v320q0 25 -3.5 40.5t-10.5 26t-18 18.5t-32 19v8h219v-8q-21 -11 -32 -19t-18 -18.5
t-10.5 -26t-3.5 -40.5v-308q0 -59 14 -103.5t40.5 -74t64.5 -44.5t86 -15q50 0 90 14t69 42.5t44.5 73.5t15.5 106v308q0 24 -5 40t-14.5 26.5t-21 18t-35.5 20.5v8h199v-8q-23 -13 -34.5 -20.5t-20.5 -18t-13.5 -26.5t-4.5 -40v-319q0 -53 -13.5 -95.5t-38 -75.5
t-57.5 -57.5t-75 -43.5q-24 -11 -43 -25.5t-33 -31t-21 -34t-7 -35.5q0 -15 4 -25.5t12 -17.5t17.5 -10.5t21.5 -3.5q14 0 27 4t25 11t23 17t21 23l14 -12q-9 -19 -22.5 -35.5t-31 -29.5t-39.5 -20.5t-48 -7.5z" />
    <glyph glyph-name="uogonek" unicode="&#x173;" horiz-adv-x="598" 
d="M524 -144q-9 -19 -22 -35.5t-31 -29.5t-40 -20.5t-48 -7.5q-18 0 -35 6t-30 17t-20.5 27.5t-7.5 36.5q0 24 10 45t28 39t40 33.5t52 32.5v123q-10 -32 -26.5 -57t-38.5 -42t-49 -25.5t-59 -8.5q-37 0 -66 12t-49 34.5t-30 54.5t-10 72v220q0 19 -5 33.5t-13.5 25.5
t-19.5 19t-29 19v6h154v-306q0 -26 5.5 -49t18 -41t32.5 -28.5t48 -10.5q29 0 54 12t43.5 35t29 56.5t10.5 75.5v153q0 20 -5 34t-14 25t-20 19t-29 19v6h155v-377q0 -25 3 -40t9 -25t15.5 -17.5t29.5 -19.5v-7h-104q-26 -19 -44.5 -34.5t-31 -31t-19 -31.5t-6.5 -33
q0 -15 4 -25.5t12 -17.5t17.5 -10.5t21.5 -3.5q14 0 27 4t25 11t23 17t22 23z" />
    <glyph glyph-name="Wcircumflex" unicode="&#x174;" horiz-adv-x="996" 
d="M685 -10l-189 547l-181 -547h-9l-211 596q-8 22 -16 37t-17 26t-20 20t-30 23v8h213v-8q-16 -7 -26 -13t-16 -11.5t-9 -12t-3 -14.5q0 -5 1 -9.5t2 -10t8 -25.5l150 -429l140 438q-6 16 -13 28t-15 21.5t-18.5 18t-25.5 19.5v8h212v-8q-16 -7 -26.5 -13t-17 -11.5
t-10 -12t-3.5 -14.5q0 -5 0.5 -10t2 -10.5t3.5 -11.5t4 -13l144 -435l144 433q2 7 3.5 12t2.5 9.5t1.5 8.5t0.5 9q0 8 -4 15t-12 13.5t-18.5 13t-29.5 17.5v8h189v-8q-20 -14 -31.5 -23t-21 -20.5t-18 -26.5t-15.5 -36l-206 -596h-9zM516 950q11 -21 28 -45t37.5 -49
t42.5 -48t43 -42h-32q-20 11 -37 21t-32.5 21t-30 23t-28.5 26q-14 -14 -28.5 -26t-30 -23t-32.5 -21t-37 -21h-32q21 19 43 42t42.5 48t37.5 49t28 45h18z" />
    <glyph glyph-name="wcircumflex" unicode="&#x175;" horiz-adv-x="729" 
d="M382 756q11 -21 27.5 -48t37 -55.5t42 -54.5t41.5 -46h-28q-18 10 -35 22.5t-32.5 25t-29 25.5t-31.5 30q-18 -17 -31.5 -30t-29 -25.5t-32.5 -25t-35 -22.5h-28q20 20 41.5 46t42 54.5t37 55.5t27.5 48h16zM495 -10l-131 366l-138 -366h-5l-146 378q-10 25 -18.5 41.5
t-17 28t-18 20.5t-24.5 22v6h181v-6q-10 -7 -16 -11.5t-10 -9t-5.5 -9t-1.5 -10.5t1 -12.5t3 -13.5t4 -13t8 -23l88 -234l95 268q-5 12 -11 21t-13 17t-15.5 15t-20.5 15v6h176v-6q-10 -6 -16 -11t-10 -9.5t-5.5 -9.5t-1.5 -10q0 -6 1 -12.5t3 -13.5t4 -13t8 -23l79 -237
l91 234q9 26 10.5 31t2.5 9.5t1 9.5q0 7 -3.5 13.5t-10 13t-17 13t-25.5 15.5v6h161v-6q-14 -12 -23.5 -21t-18 -21t-17 -28.5t-18.5 -41.5l-155 -378h-5z" />
    <glyph glyph-name="Ycircumflex" unicode="&#x176;" horiz-adv-x="676" 
d="M362 341l163 260q4 6 6.5 11.5t4.5 10.5t2.5 9.5t0.5 7.5q0 7 -3.5 13t-10 12t-15 12t-22.5 15v8h176v-8q-16 -12 -27.5 -22t-21.5 -21.5t-20.5 -26t-23.5 -34.5l-188 -296v-180q0 -25 3.5 -40.5t11.5 -26t21 -18.5t36 -19v-8h-234v8q23 11 36 19t21 18.5t11.5 26
t3.5 40.5v180l-188 296q-13 20 -23 34.5t-20.5 26t-22 22t-27.5 21.5v8h204v-8q-10 -6 -16 -11.5t-10 -11t-5.5 -11t-1.5 -12.5q0 -6 1 -11.5t2.5 -11t4.5 -11t7 -11.5zM355 950q11 -21 28 -45t37.5 -49t42.5 -48t43 -42h-32q-20 11 -37 21t-32.5 21t-30 23t-28.5 26
q-14 -14 -28.5 -26t-30 -23t-32.5 -21t-37 -21h-32q21 19 43 42t42.5 48t37.5 49t28 45h18z" />
    <glyph glyph-name="ycircumflex" unicode="&#x177;" horiz-adv-x="517" 
d="M242 -2l-163 370q-10 22 -19.5 38.5t-19 29t-19.5 22.5t-24 22v6h186v-6q-10 -7 -16.5 -12t-11 -9.5t-6.5 -9t-2 -10.5t1.5 -12t3.5 -13t3 -8.5t12 -27.5l118 -280l111 276q4 11 7 18.5t4.5 13.5t2.5 11.5t1 11.5q0 7 -3.5 13t-10.5 12t-16 12t-23 14v6h162v-6
q-13 -12 -23 -22t-19 -22.5t-18 -29t-19 -38.5l-194 -457q-14 -35 -26.5 -58.5t-27.5 -41t-35.5 -27t-48.5 -9.5q-17 0 -32 5.5t-26 15t-17 22.5t-6 29q0 12 5 23t13.5 20t19.5 14.5t23 7.5q-1 -2 -1.5 -5.5t-1 -6.5t-1 -6.5t-0.5 -5.5q0 -10 3 -18.5t9 -15t14 -10t18 -3.5
q13 0 24 5.5t20.5 16.5t18 26.5t18.5 37.5zM288 756q11 -21 27.5 -48t37 -55.5t42 -54.5t41.5 -46h-28q-18 10 -35 22.5t-32.5 25t-29 25.5t-31.5 30q-18 -17 -31.5 -30t-29 -25.5t-32.5 -25t-35 -22.5h-28q20 20 41.5 46t42 54.5t37 55.5t27.5 48h16z" />
    <glyph glyph-name="Ydieresis" unicode="&#x178;" horiz-adv-x="676" 
d="M362 341l163 260q4 6 6.5 11.5t4.5 10.5t2.5 9.5t0.5 7.5q0 7 -3.5 13t-10 12t-15 12t-22.5 15v8h176v-8q-16 -12 -27.5 -22t-21.5 -21.5t-20.5 -26t-23.5 -34.5l-188 -296v-180q0 -25 3.5 -40.5t11.5 -26t21 -18.5t36 -19v-8h-234v8q23 11 36 19t21 18.5t11.5 26
t3.5 40.5v180l-188 296q-13 20 -23 34.5t-20.5 26t-22 22t-27.5 21.5v8h204v-8q-10 -6 -16 -11.5t-10 -11t-5.5 -11t-1.5 -12.5q0 -6 1 -11.5t2.5 -11t4.5 -11t7 -11.5zM256 780q-12 0 -23 4.5t-19 13t-12.5 19.5t-4.5 23t4.5 22.5t12.5 19t19 13t23 4.5t23 -4.5t19 -13
t12.5 -19t4.5 -22.5t-4.5 -23t-12.5 -19.5t-19 -13t-23 -4.5zM436 780q-12 0 -23 4.5t-19.5 13t-13 19.5t-4.5 23t4.5 22.5t13 19t19.5 13t23 4.5t23 -4.5t19 -13t12.5 -19t4.5 -22.5t-4.5 -23t-12.5 -19.5t-19 -13t-23 -4.5z" />
    <glyph glyph-name="Zacute" unicode="&#x179;" horiz-adv-x="698" 
d="M619 0h-573v4l461 656h-228q-41 0 -69 -8.5t-47.5 -24.5t-34 -36t-45.5 -67h-11l24 182q8 -1 13 -2t12 -2t15.5 -1.5t19.5 -0.5h481v-4l-459 -656h247q41 0 70 7t52 23t44 41t50 67h10zM390 933h120l-159 -164h-19z" />
    <glyph glyph-name="zacute" unicode="&#x17a;" horiz-adv-x="521" 
d="M321 749h111l-159 -188h-19zM40 5l307 443h-124q-28 0 -47 -5.5t-34.5 -18.5t-30.5 -35t-38 -63h-10l15 170q6 -3 13 -4.5t15.5 -3t19 -2t23.5 -0.5h320v-4l-305 -444h144q28 0 47.5 5.5t36 19t34 37t41.5 64.5h12l-29 -164h-410v5z" />
    <glyph glyph-name="Zdotaccent" unicode="&#x17b;" horiz-adv-x="698" 
d="M352 786q-13 0 -24.5 5t-20 13.5t-13.5 19.5t-5 24t5 24.5t13.5 20t20 13.5t24.5 5t24.5 -5t20 -13.5t13.5 -20t5 -24.5t-5 -24t-13.5 -19.5t-20 -13.5t-24.5 -5zM619 0h-573v4l461 656h-228q-41 0 -69 -8.5t-47.5 -24.5t-34 -36t-45.5 -67h-11l24 182q8 -1 13 -2t12 -2
t15.5 -1.5t19.5 -0.5h481v-4l-459 -656h247q41 0 70 7t52 23t44 41t50 67h10z" />
    <glyph glyph-name="zdotaccent" unicode="&#x17c;" horiz-adv-x="521" 
d="M40 5l307 443h-124q-28 0 -47 -5.5t-34.5 -18.5t-30.5 -35t-38 -63h-10l15 170q6 -3 13 -4.5t15.5 -3t19 -2t23.5 -0.5h320v-4l-305 -444h144q28 0 47.5 5.5t36 19t34 37t41.5 64.5h12l-29 -164h-410v5zM272 594q-13 0 -24.5 5t-20 13.5t-13.5 19.5t-5 24t5 24.5t13.5 20
t20 13.5t24.5 5t24.5 -5t20 -13.5t13.5 -20t5 -24.5t-5 -24t-13.5 -19.5t-20 -13.5t-24.5 -5z" />
    <glyph glyph-name="Zcaron" unicode="&#x17d;" horiz-adv-x="698" 
d="M511 946q-21 -19 -43 -42t-42.5 -48t-37.5 -49t-28 -45h-18q-11 21 -28 45t-37.5 49t-42.5 48t-43 42h32q20 -11 37 -21t32.5 -21t30 -23t28.5 -26q14 14 28.5 26t30 23t32.5 21t37 21h32zM619 0h-573v4l461 656h-228q-41 0 -69 -8.5t-47.5 -24.5t-34 -36t-45.5 -67h-11
l24 182q8 -1 13 -2t12 -2t15.5 -1.5t19.5 -0.5h481v-4l-459 -656h247q41 0 70 7t52 23t44 41t50 67h10z" />
    <glyph glyph-name="zcaron" unicode="&#x17e;" horiz-adv-x="521" 
d="M428 756q-20 -20 -41.5 -46t-42 -54t-37 -55t-27.5 -48h-16q-11 21 -27.5 48t-37 55t-42 54t-41.5 46h28q18 -10 35 -22t32.5 -25t29.5 -26t31 -29q17 16 31 29t29.5 26t32.5 25t35 22h28zM40 5l307 443h-124q-28 0 -47 -5.5t-34.5 -18.5t-30.5 -35t-38 -63h-10l15 170
q6 -3 13 -4.5t15.5 -3t19 -2t23.5 -0.5h320v-4l-305 -444h144q28 0 47.5 5.5t36 19t34 37t41.5 64.5h12l-29 -164h-410v5z" />
    <glyph glyph-name="florin" unicode="&#x192;" horiz-adv-x="528" 
d="M53 -188q-27 0 -49.5 6t-38 17t-23.5 25.5t-8 32.5q0 16 6.5 29t17 21.5t24 13t27.5 4.5q4 0 8 -0.5t6.5 -1t6 -1.5t5.5 -1q-6 -6 -10.5 -13t-7.5 -15t-4.5 -16.5t-1.5 -17.5q0 -12 3 -21t8.5 -15t15 -9.5t22.5 -3.5q17 0 30 7.5t21.5 21t14 33t8.5 45.5l54 407h-103
l5 34h103l18 139q6 42 20 75t36 55.5t51.5 34.5t65.5 12q27 0 49.5 -6t38 -17t23.5 -25.5t8 -32.5q0 -17 -6.5 -29.5t-17 -21.5t-24 -13t-27.5 -4q-4 0 -8 0.5t-7 1t-5.5 1t-5.5 1.5q6 6 10.5 13t7.5 14.5t4.5 16t1.5 17.5q0 12 -3 21.5t-8.5 15.5t-15 9.5t-22.5 3.5
q-17 0 -30 -7.5t-21.5 -21t-14 -33.5t-8.5 -46l-23 -174h124l-5 -34h-124l-48 -360q-6 -46 -20 -81t-36 -59t-51.5 -36t-66.5 -12z" />
    <glyph glyph-name="Aringacute" unicode="&#x1fa;" horiz-adv-x="760" 
d="M525 1099l-144 -137h-18l54 137h108zM383 924q22 0 42.5 -7t36 -19.5t24.5 -29.5t9 -35q0 -19 -9 -36t-24.5 -30t-36 -20t-42.5 -7q-23 0 -43.5 7t-36 20t-24.5 30t-9 36q0 18 9 35t24.5 29.5t36 19.5t43.5 7zM383 884q-14 0 -26 -3.5t-21 -10.5t-13.5 -16.5t-4.5 -20.5
t5 -20.5t13.5 -16.5t20.5 -11t26 -4t26 4t20.5 11t13.5 16.5t5 20.5t-5 20.5t-13.5 16.5t-20.5 10.5t-26 3.5zM355 565l-134 -293h270zM196 8v-8h-188v8q19 13 30 22.5t20.5 20t18.5 25.5t20 38l280 598h5l280 -598q11 -24 19.5 -38.5t17.5 -25.5t20 -20.5t28 -21.5v-8h-218
v8q16 7 26.5 13t17 11.5t9 12t2.5 14.5q0 5 -1 9.5t-2.5 9.5t-4 10.5t-6.5 13.5l-60 129h-308l-58 -128q-3 -7 -5.5 -13t-4 -10.5t-2 -9t-0.5 -9.5q0 -8 4 -14t11.5 -12t18.5 -12t30 -15z" />
    <glyph glyph-name="aringacute" unicode="&#x1fb;" horiz-adv-x="542" 
d="M301 903h108l-144 -137h-18zM154 637q0 18 9 35t24.5 30t36 20t43.5 7q22 0 42.5 -7t36 -20t24.5 -30t9 -35q0 -19 -9 -36t-24.5 -30t-36 -20t-42.5 -7q-23 0 -43.5 7t-36 20t-24.5 30t-9 36zM332 637q0 11 -5 20.5t-13.5 16.5t-20.5 11t-26 4t-26 -4t-20.5 -11
t-13.5 -16.5t-5 -20.5t5 -20.5t13.5 -16.5t20.5 -11t26 -4t26 4t20.5 11t13.5 16.5t5 20.5zM360 255l-73 -15q-38 -8 -65.5 -17t-46.5 -22.5t-28.5 -32t-9.5 -44.5q0 -20 6 -35.5t17.5 -26t28 -15.5t36.5 -5q24 0 48 10.5t44 31t31.5 51t11.5 68.5v52zM545 23v-13
q-9 -3 -19 -6t-21.5 -5.5t-24 -4t-24.5 -1.5q-23 0 -40 6.5t-28.5 19.5t-18 33t-7.5 47q-8 -23 -24.5 -43t-39.5 -35t-51 -23t-58 -8t-56.5 8t-46 23.5t-30.5 39t-11 53.5q0 38 19 65.5t51 45.5t72 29t93 21l80 14v38q0 35 -6.5 59.5t-19.5 40t-33.5 23t-50.5 7.5
q-22 0 -39.5 -5t-30 -15.5t-19 -24.5t-6.5 -32q0 -8 1 -15t3.5 -13t6 -11t7.5 -10q-4 -3 -9.5 -6t-12 -5t-13.5 -3t-14 -1q-12 0 -22.5 3.5t-18 11t-11.5 18.5t-4 25q0 24 13.5 46t39 39t61.5 27t80 10q47 0 82.5 -10.5t59 -31.5t35 -52t11.5 -72q0 -30 -0.5 -58.5t-1 -67
t-1 -58.5t-0.5 -40q0 -21 6 -36t17.5 -25t30 -15t44.5 -7z" />
    <glyph glyph-name="AEacute" unicode="&#x1fc;" horiz-adv-x="1088" 
d="M703 933h120l-159 -164h-19zM300 304h241v349zM191 8v-8h-179v8q18 13 30.5 23t23.5 21t22.5 25.5t25.5 35.5l341 496q3 4 4.5 7.5t2.5 7t1.5 6.5t0.5 7q0 7 -4.5 14t-13 13.5t-18.5 12.5t-26 15v8h524q11 0 19.5 0.5t15.5 1.5t12.5 2t12.5 2l34 -159h-8
q-32 38 -48.5 55.5t-37.5 31t-49.5 20.5t-70.5 7h-174v-282h143q33 0 51.5 3t31 12.5t23 27.5t23.5 53h9v-231h-9q-13 35 -23.5 53.5t-23 27.5t-31 12t-51.5 3h-143v-301h197q41 0 70.5 7t52.5 22t43 39t47 64h8l-32 -171h-541v8q21 11 32 19t18 18.5t10.5 26t3.5 40.5v151
h-269l-110 -159q-6 -8 -10 -14.5t-7.5 -12.5t-5 -11.5t-1.5 -10.5q0 -7 2.5 -12t8 -10t15 -10.5t27.5 -14.5z" />
    <glyph glyph-name="aeacute" unicode="&#x1fd;" horiz-adv-x="844" 
d="M466 749h111l-159 -188h-19zM798 151q-8 -38 -25.5 -68t-44 -51t-61 -31.5t-76.5 -10.5q-33 0 -63.5 7.5t-56.5 22t-47 36t-35 49.5q-11 -22 -29 -42.5t-42.5 -37t-54 -26t-61.5 -9.5q-35 0 -64 8t-50 23.5t-32 39t-11 53.5q0 38 19.5 66t53 47.5t74.5 31t88 17.5l80 11
v39q0 34 -6.5 58.5t-19.5 40.5t-34 24t-50 8q-22 0 -39.5 -5t-30 -15.5t-19 -24.5t-6.5 -32q0 -8 1 -15t3.5 -13t6 -11t7.5 -10q-4 -3 -9.5 -6t-12 -5t-13.5 -3t-14 -1q-12 0 -22.5 3.5t-18 11t-11.5 18.5t-4 25q0 24 13.5 46t38.5 39t61 27t80 10q31 0 57 -6t46 -18t34 -29
t23 -39q14 21 31.5 38t38.5 29t45.5 18.5t51.5 6.5q51 0 91 -16.5t68 -48t42.5 -77t14.5 -102.5h-355q0 -48 11.5 -86.5t33 -66t53 -41.5t70.5 -14q29 0 53.5 7t44.5 21t36 35.5t27 50.5zM450 290h260q-1 34 -7 63.5t-20 52.5t-38 36.5t-58 13.5q-29 0 -53 -12t-41.5 -34
t-28 -52.5t-14.5 -67.5zM360 251l-73 -11q-35 -5 -62.5 -14t-47 -23t-30 -33.5t-10.5 -45.5q0 -19 6 -34.5t17 -26t25.5 -16t32.5 -5.5q30 0 55.5 10t45 30.5t30.5 51t11 69.5v48z" />
    <glyph glyph-name="Oslashacute" unicode="&#x1fe;" horiz-adv-x="788" 
d="M394 665q-56 0 -101.5 -22.5t-77.5 -64t-48.5 -100t-16.5 -128.5q0 -29 3.5 -55.5t9.5 -51.5t15 -47t21 -41l370 421q-15 21 -33.5 38t-40.5 28t-47.5 17t-53.5 6zM394 35q56 0 101.5 22.5t77.5 64t48.5 100t16.5 128.5q0 27 -3 53t-9 49.5t-14.5 45t-19.5 40.5
l-370 -419q15 -20 34 -36t40.5 -26.5t46 -16t51.5 -5.5zM741 350q0 -78 -25.5 -144t-72.5 -114.5t-111 -75t-138 -26.5q-32 0 -62 5t-57.5 15t-53 24t-47.5 32l-88 -99l-31 27l88 100q-23 24 -40.5 52t-30 60.5t-19 68.5t-6.5 75q0 78 25.5 144t72.5 114.5t111 75t138 26.5
q33 0 64 -5.5t59.5 -15.5t54 -24.5t47.5 -33.5l77 85l31 -27l-78 -88q22 -23 39 -51t29 -60t18 -67t6 -73zM433 933h120l-159 -164h-19z" />
    <glyph glyph-name="oslashacute" unicode="&#x1ff;" horiz-adv-x="581" 
d="M291 455q-36 0 -64 -14.5t-46.5 -42t-28 -67t-9.5 -88.5q0 -17 1.5 -33.5t4.5 -31.5t7.5 -28t10.5 -25l231 270q-9 15 -20 26t-24.5 18.5t-29 11.5t-33.5 4zM291 31q36 0 63.5 14.5t46 42t28 67t9.5 88.5q0 17 -1.5 32.5t-4 30t-6.5 27.5t-10 24l-231 -269q9 -14 20 -25
t24.5 -18t28.5 -10.5t33 -3.5zM535 243q0 -55 -18 -101.5t-51.5 -80.5t-78 -52.5t-96.5 -18.5q-21 0 -41.5 3t-39.5 9.5t-36 15.5t-33 20l-64 -73l-28 26l63 73q-15 17 -27.5 37t-21 42.5t-13 47.5t-4.5 52q0 55 18 101.5t51.5 80.5t78.5 52.5t97 18.5q22 0 42.5 -3.5
t40 -10t36.5 -16t33 -21.5l63 72l28 -26l-62 -72q15 -17 26.5 -36.5t19.5 -42t12.5 -47t4.5 -50.5zM339 749h111l-159 -188h-19z" />
    <glyph glyph-name="Scommaaccent" unicode="&#x218;" horiz-adv-x="603" 
d="M321 -151q-3 -3 -7 -4.5l-8 -3t-8.5 -2t-9.5 -0.5q-11 0 -20 4t-16 11t-11 15.5t-4 18.5q0 12 4 22t12 17.5t18.5 11.5t23.5 4q16 0 29 -6t23 -17t15.5 -26.5t5.5 -34.5q0 -22 -9 -41.5t-26.5 -35.5t-44 -25.5t-60.5 -10.5v26q20 2 36.5 7.5t29.5 14.5t20 23t7 32z
M291 669q-30 0 -55.5 -8t-45 -24t-30 -38t-10.5 -50t9 -49.5t26 -37.5t42 -27t58 -20l86 -23q43 -12 74.5 -28t53.5 -39t33.5 -55.5t11.5 -75.5q0 -49 -19.5 -87.5t-53.5 -64.5t-77.5 -39t-92.5 -13q-28 0 -55.5 5t-52 13.5t-43.5 18.5t-33 20l-45 -57h-9l-12 221h13
q23 -44 47.5 -77t53.5 -55t63 -33.5t73 -11.5q37 0 66.5 9.5t50 27.5t31.5 44.5t11 59.5q0 25 -7.5 46t-22.5 37t-37 27.5t-51 19.5l-92 25q-45 12 -79 28.5t-57.5 39t-35.5 53.5t-12 71q0 42 16 76.5t46.5 59.5t72 38.5t90.5 13.5q26 0 50.5 -4.5t45 -11t36.5 -14t34 -16.5
l44 46h8l1 -200h-10q-25 42 -45.5 70t-44 48t-53 30.5t-66.5 10.5z" />
    <glyph glyph-name="scommaaccent" unicode="&#x219;" horiz-adv-x="489" 
d="M267 -151q-3 -3 -7 -4.5l-8 -3t-8.5 -2t-9.5 -0.5q-11 0 -20 4t-16 11t-11 15.5t-4 18.5q0 12 4 22t12 17.5t18.5 11.5t23.5 4q16 0 29 -6t23 -17t15.5 -26.5t5.5 -34.5q0 -22 -9 -41.5t-26.5 -35.5t-44 -25.5t-60.5 -10.5v26q20 2 36.5 7.5t29.5 14.5t20 23t7 32z
M231 455q-22 0 -39.5 -5.5t-29.5 -15t-18 -23.5t-6 -30q0 -18 6.5 -31.5t21 -24t37 -18t55.5 -14.5q49 -9 83 -22.5t55 -31t31 -41.5t10 -55q0 -34 -14 -62.5t-39 -48.5t-59 -31t-73 -11q-23 0 -44 3.5t-39.5 10t-34 14t-29.5 15.5l-35 -43h-8l-11 185h14q19 -36 40 -62.5
t44 -44.5t49 -27t54 -9q23 0 43 5.5t34.5 16t22.5 27t8 38.5q0 21 -8 35.5t-24 24.5t-39.5 16.5t-57.5 13.5q-47 9 -78.5 22t-51 30.5t-28.5 40.5t-9 53q0 31 12.5 57t35 45t53 29t65.5 10q21 0 40 -3t35.5 -8.5t31 -12.5t28.5 -16l38 40h7v-165h-11q-18 28 -36 50t-38.5 39
t-44 26t-49.5 9z" />
    <glyph glyph-name="uni021A" unicode="&#x21a;" horiz-adv-x="733" 
d="M390 -151q-3 -3 -7 -4.5l-8 -3t-8.5 -2t-9.5 -0.5q-11 0 -20 4t-16 11t-11 15.5t-4 18.5q0 12 4 22t12 17.5t18.5 11.5t23.5 4q16 0 29 -6t23 -17t15.5 -26.5t5.5 -34.5q0 -22 -9 -41.5t-26.5 -35.5t-44 -25.5t-60.5 -10.5v26q20 2 36.5 7.5t29.5 14.5t20 23t7 32z
M122 700h489q11 0 19.5 0.5t15.5 1.5t12.5 2t12.5 2l33 -188h-9q-32 48 -46.5 68t-34 38.5t-44.5 28.5t-59 10h-99v-550q0 -25 3.5 -40.5t12 -26.5t21.5 -19t36 -19v-8h-236v8q23 11 36 19t21 18.5t11.5 26.5t3.5 41v550h-98q-34 0 -59.5 -10t-45 -28.5t-34 -38.5t-46.5 -68
h-9l33 188q8 -1 13 -2t12 -2t15.5 -1.5t19.5 -0.5z" />
    <glyph glyph-name="uni021B" unicode="&#x21b;" horiz-adv-x="415" 
d="M219 -151q-3 -3 -7 -4.5l-8 -3t-8.5 -2t-9.5 -0.5q-11 0 -20 4t-16 11t-11 15.5t-4 18.5q0 12 4 22t12 17.5t18.5 11.5t23.5 4q16 0 29 -6t23 -17t15.5 -26.5t5.5 -34.5q0 -22 -9 -41.5t-26.5 -35.5t-44 -25.5t-60.5 -10.5v26q20 2 36.5 7.5t29.5 14.5t20 23t7 32z
M22 443v26q31 6 54.5 21t40 38t27.5 53.5t17 68.5h28v-166h173l-5 -41h-168v-306q0 -22 5 -38.5t15 -28t24.5 -17t33.5 -5.5q20 0 36 6.5t28.5 19.5t21.5 33.5t14 47.5l20 -4q-3 -36 -13.5 -65.5t-29.5 -51t-45.5 -33t-59.5 -11.5q-31 0 -56.5 9t-44 26.5t-28.5 43t-10 57.5
l1 317h-79z" />
    <glyph glyph-name="uni0237" unicode="&#x237;" horiz-adv-x="269" 
d="M97 -60v443q0 20 -5 34t-14 25t-20 19t-29 19v6h155v-520q0 -45 -11 -80.5t-32.5 -60t-53 -37.5t-71.5 -13q-29 0 -53 6t-41 18t-26.5 28t-9.5 36q0 14 5 25t14 18t20.5 10.5t25.5 3.5q3 0 6.5 -0.5l7 -1t6.5 -1t5 -1.5q-2 -5 -4 -10.5t-3 -11.5t-1.5 -12t-0.5 -12
q0 -13 4 -24t11.5 -19.5t18 -13t23.5 -4.5q20 0 34 9.5t22.5 26.5t12.5 41t4 54z" />
    <glyph glyph-name="circumflex" unicode="&#x2c6;" horiz-adv-x="500" 
d="M258 756q11 -21 27.5 -48t37 -55.5t42 -54.5t41.5 -46h-28q-18 10 -35 22.5t-32.5 25t-29 25.5t-31.5 30q-18 -17 -31.5 -30t-29 -25.5t-32.5 -25t-35 -22.5h-28q20 20 41.5 46t42 54.5t37 55.5t27.5 48h16z" />
    <glyph glyph-name="caron" unicode="&#x2c7;" horiz-adv-x="500" 
d="M406 756q-20 -20 -41.5 -46t-42 -54t-37 -55t-27.5 -48h-16q-11 21 -27.5 48t-37 55t-42 54t-41.5 46h28q18 -10 35 -22t32.5 -25t29.5 -26t31 -29q17 16 31 29t29.5 26t32.5 25t35 22h28z" />
    <glyph glyph-name="breve" unicode="&#x2d8;" horiz-adv-x="500" 
d="M134 742q2 -26 12 -45.5t26 -32.5t36 -19.5t42 -6.5t42 6.5t36 19.5t26 32.5t12 45.5h26q0 -39 -11 -71.5t-30 -55.5t-45 -35t-56 -12t-56 12t-45 35t-30 55.5t-11 71.5h26z" />
    <glyph glyph-name="dotaccent" unicode="&#x2d9;" horiz-adv-x="500" 
d="M250 594q-13 0 -24.5 5t-20 13.5t-13.5 19.5t-5 24t5 24.5t13.5 20t20 13.5t24.5 5t24.5 -5t20 -13.5t13.5 -20t5 -24.5t-5 -24t-13.5 -19.5t-20 -13.5t-24.5 -5z" />
    <glyph glyph-name="ring" unicode="&#x2da;" horiz-adv-x="500" 
d="M143 663q0 21 8.5 40t23.5 34t34.5 23t40.5 8t40.5 -8t34.5 -23t23.5 -34t8.5 -40q0 -22 -8.5 -41t-23.5 -34t-34.5 -23t-40.5 -8t-40.5 8t-34.5 23t-23.5 34t-8.5 41zM312 663q0 13 -4.5 24.5t-12.5 20.5t-19.5 13.5t-25.5 4.5t-25.5 -4.5t-19.5 -13.5t-12.5 -20.5
t-4.5 -24.5q0 -14 4.5 -25.5t12.5 -19.5t19.5 -12.5t25.5 -4.5t25.5 4.5t19.5 12.5t12.5 19.5t4.5 25.5z" />
    <glyph glyph-name="ogonek" unicode="&#x2db;" horiz-adv-x="500" 
d="M138 -150q0 28 13.5 51.5t36 43.5t48.5 36.5t66 38.5l10 -17q-27 -19 -46 -35.5t-32 -32t-20 -32t-7 -33.5q0 -15 4 -25.5t12 -17.5t17.5 -10.5t21.5 -3.5q14 0 27 4t25 11t23 17t21 23l14 -12q-9 -19 -22.5 -35.5t-31 -29.5t-39.5 -20.5t-48 -7.5q-18 0 -35 6t-30 17
t-20.5 27.5t-7.5 36.5z" />
    <glyph glyph-name="tilde" unicode="&#x2dc;" horiz-adv-x="500" 
d="M97 578h-25q9 33 20.5 58t25.5 42.5t29.5 26.5t33.5 9t35.5 -8.5t42 -24.5t39.5 -23.5t29 -7.5q15 0 26 4.5t19.5 13.5t15.5 21t15 29h25q-9 -33 -20.5 -58t-25.5 -42.5t-29.5 -26.5t-33.5 -9t-35.5 8.5t-42 24.5t-39.5 23.5t-29 7.5q-15 0 -26 -4.5t-19.5 -13.5
t-15.5 -21t-15 -29z" />
    <glyph glyph-name="hungarumlaut" unicode="&#x2dd;" horiz-adv-x="500" 
d="M148 749h110l-155 -188h-20zM307 749h110l-156 -188h-19z" />
    <glyph glyph-name="Wgrave" unicode="&#x1e80;" horiz-adv-x="996" 
d="M352 933h120l58 -164h-19zM685 -10l-189 547l-181 -547h-9l-211 596q-8 22 -16 37t-17 26t-20 20t-30 23v8h213v-8q-16 -7 -26 -13t-16 -11.5t-9 -12t-3 -14.5q0 -5 1 -9.5t2 -10t8 -25.5l150 -429l140 438q-6 16 -13 28t-15 21.5t-18.5 18t-25.5 19.5v8h212v-8
q-16 -7 -26.5 -13t-17 -11.5t-10 -12t-3.5 -14.5q0 -5 0.5 -10t2 -10.5t3.5 -11.5t4 -13l144 -435l144 433q2 7 3.5 12t2.5 9.5t1.5 8.5t0.5 9q0 8 -4 15t-12 13.5t-18.5 13t-29.5 17.5v8h189v-8q-20 -14 -31.5 -23t-21 -20.5t-18 -26.5t-15.5 -36l-206 -596h-9z" />
    <glyph glyph-name="wgrave" unicode="&#x1e81;" horiz-adv-x="729" 
d="M495 -10l-131 366l-138 -366h-5l-146 378q-10 25 -18.5 41.5t-17 28t-18 20.5t-24.5 22v6h181v-6q-10 -7 -16 -11.5t-10 -9t-5.5 -9t-1.5 -10.5t1 -12.5t3 -13.5t4 -13t8 -23l88 -234l95 268q-5 12 -11 21t-13 17t-15.5 15t-20.5 15v6h176v-6q-10 -6 -16 -11t-10 -9.5
t-5.5 -9.5t-1.5 -10q0 -6 1 -12.5t3 -13.5t4 -13t8 -23l79 -237l91 234q9 26 10.5 31t2.5 9.5t1 9.5q0 7 -3.5 13.5t-10 13t-17 13t-25.5 15.5v6h161v-6q-14 -12 -23.5 -21t-18 -21t-17 -28.5t-18.5 -41.5l-155 -378h-5zM212 749h111l67 -188h-19z" />
    <glyph glyph-name="Wacute" unicode="&#x1e82;" horiz-adv-x="996" 
d="M546 933h120l-159 -164h-19zM685 -10l-189 547l-181 -547h-9l-211 596q-8 22 -16 37t-17 26t-20 20t-30 23v8h213v-8q-16 -7 -26 -13t-16 -11.5t-9 -12t-3 -14.5q0 -5 1 -9.5t2 -10t8 -25.5l150 -429l140 438q-6 16 -13 28t-15 21.5t-18.5 18t-25.5 19.5v8h212v-8
q-16 -7 -26.5 -13t-17 -11.5t-10 -12t-3.5 -14.5q0 -5 0.5 -10t2 -10.5t3.5 -11.5t4 -13l144 -435l144 433q2 7 3.5 12t2.5 9.5t1.5 8.5t0.5 9q0 8 -4 15t-12 13.5t-18.5 13t-29.5 17.5v8h189v-8q-20 -14 -31.5 -23t-21 -20.5t-18 -26.5t-15.5 -36l-206 -596h-9z" />
    <glyph glyph-name="wacute" unicode="&#x1e83;" horiz-adv-x="729" 
d="M423 749h111l-159 -188h-19zM495 -10l-131 366l-138 -366h-5l-146 378q-10 25 -18.5 41.5t-17 28t-18 20.5t-24.5 22v6h181v-6q-10 -7 -16 -11.5t-10 -9t-5.5 -9t-1.5 -10.5t1 -12.5t3 -13.5t4 -13t8 -23l88 -234l95 268q-5 12 -11 21t-13 17t-15.5 15t-20.5 15v6h176v-6
q-10 -6 -16 -11t-10 -9.5t-5.5 -9.5t-1.5 -10q0 -6 1 -12.5t3 -13.5t4 -13t8 -23l79 -237l91 234q9 26 10.5 31t2.5 9.5t1 9.5q0 7 -3.5 13.5t-10 13t-17 13t-25.5 15.5v6h161v-6q-14 -12 -23.5 -21t-18 -21t-17 -28.5t-18.5 -41.5l-155 -378h-5z" />
    <glyph glyph-name="Wdieresis" unicode="&#x1e84;" horiz-adv-x="996" 
d="M417 780q-12 0 -23 4.5t-19 13t-12.5 19.5t-4.5 23t4.5 22.5t12.5 19t19 13t23 4.5t23 -4.5t19 -13t12.5 -19t4.5 -22.5t-4.5 -23t-12.5 -19.5t-19 -13t-23 -4.5zM597 780q-12 0 -23 4.5t-19.5 13t-13 19.5t-4.5 23t4.5 22.5t13 19t19.5 13t23 4.5t23 -4.5t19 -13
t12.5 -19t4.5 -22.5t-4.5 -23t-12.5 -19.5t-19 -13t-23 -4.5zM685 -10l-189 547l-181 -547h-9l-211 596q-8 22 -16 37t-17 26t-20 20t-30 23v8h213v-8q-16 -7 -26 -13t-16 -11.5t-9 -12t-3 -14.5q0 -5 1 -9.5t2 -10t8 -25.5l150 -429l140 438q-6 16 -13 28t-15 21.5
t-18.5 18t-25.5 19.5v8h212v-8q-16 -7 -26.5 -13t-17 -11.5t-10 -12t-3.5 -14.5q0 -5 0.5 -10t2 -10.5t3.5 -11.5t4 -13l144 -435l144 433q2 7 3.5 12t2.5 9.5t1.5 8.5t0.5 9q0 8 -4 15t-12 13.5t-18.5 13t-29.5 17.5v8h189v-8q-20 -14 -31.5 -23t-21 -20.5t-18 -26.5
t-15.5 -36l-206 -596h-9z" />
    <glyph glyph-name="wdieresis" unicode="&#x1e85;" horiz-adv-x="729" 
d="M284 580q-12 0 -23 4.5t-19 13t-12.5 19.5t-4.5 23t4.5 22.5t12.5 19t19 13t23 4.5t23 -4.5t19 -13t12.5 -19t4.5 -22.5t-4.5 -23t-12.5 -19.5t-19 -13t-23 -4.5zM464 580q-12 0 -23 4.5t-19.5 13t-13 19.5t-4.5 23t4.5 22.5t13 19t19.5 13t23 4.5t23 -4.5t19 -13
t12.5 -19t4.5 -22.5t-4.5 -23t-12.5 -19.5t-19 -13t-23 -4.5zM495 -10l-131 366l-138 -366h-5l-146 378q-10 25 -18.5 41.5t-17 28t-18 20.5t-24.5 22v6h181v-6q-10 -7 -16 -11.5t-10 -9t-5.5 -9t-1.5 -10.5t1 -12.5t3 -13.5t4 -13t8 -23l88 -234l95 268q-5 12 -11 21
t-13 17t-15.5 15t-20.5 15v6h176v-6q-10 -6 -16 -11t-10 -9.5t-5.5 -9.5t-1.5 -10q0 -6 1 -12.5t3 -13.5t4 -13t8 -23l79 -237l91 234q9 26 10.5 31t2.5 9.5t1 9.5q0 7 -3.5 13.5t-10 13t-17 13t-25.5 15.5v6h161v-6q-14 -12 -23.5 -21t-18 -21t-17 -28.5t-18.5 -41.5
l-155 -378h-5z" />
    <glyph glyph-name="Ygrave" unicode="&#x1ef2;" horiz-adv-x="676" 
d="M362 341l163 260q4 6 6.5 11.5t4.5 10.5t2.5 9.5t0.5 7.5q0 7 -3.5 13t-10 12t-15 12t-22.5 15v8h176v-8q-16 -12 -27.5 -22t-21.5 -21.5t-20.5 -26t-23.5 -34.5l-188 -296v-180q0 -25 3.5 -40.5t11.5 -26t21 -18.5t36 -19v-8h-234v8q23 11 36 19t21 18.5t11.5 26
t3.5 40.5v180l-188 296q-13 20 -23 34.5t-20.5 26t-22 22t-27.5 21.5v8h204v-8q-10 -6 -16 -11.5t-10 -11t-5.5 -11t-1.5 -12.5q0 -6 1 -11.5t2.5 -11t4.5 -11t7 -11.5zM191 933h120l58 -164h-19z" />
    <glyph glyph-name="ygrave" unicode="&#x1ef3;" horiz-adv-x="517" 
d="M242 -2l-163 370q-10 22 -19.5 38.5t-19 29t-19.5 22.5t-24 22v6h186v-6q-10 -7 -16.5 -12t-11 -9.5t-6.5 -9t-2 -10.5t1.5 -12t3.5 -13t3 -8.5t12 -27.5l118 -280l111 276q4 11 7 18.5t4.5 13.5t2.5 11.5t1 11.5q0 7 -3.5 13t-10.5 12t-16 12t-23 14v6h162v-6
q-13 -12 -23 -22t-19 -22.5t-18 -29t-19 -38.5l-194 -457q-14 -35 -26.5 -58.5t-27.5 -41t-35.5 -27t-48.5 -9.5q-17 0 -32 5.5t-26 15t-17 22.5t-6 29q0 12 5 23t13.5 20t19.5 14.5t23 7.5q-1 -2 -1.5 -5.5t-1 -6.5t-1 -6.5t-0.5 -5.5q0 -10 3 -18.5t9 -15t14 -10t18 -3.5
q13 0 24 5.5t20.5 16.5t18 26.5t18.5 37.5zM118 749h111l67 -188h-19z" />
    <glyph glyph-name="endash" unicode="&#x2013;" horiz-adv-x="520" 
d="M50 253v43h420v-43h-420z" />
    <glyph glyph-name="emdash" unicode="&#x2014;" horiz-adv-x="820" 
d="M50 253v43h720v-43h-720z" />
    </font>
</defs>
</svg>
